<svg xmlns="http://www.w3.org/2000/svg" xmlns:xlink="http://www.w3.org/1999/xlink" xml:space="preserve" id="svg1" width="512mm" height="512mm" version="1.1" viewBox="0 0 512 512">
    <defs id="defs1">
        <linearGradient id="linearGradient1205">
            <stop id="stop1206" offset="0" style="stop-color:#5ad4ff;stop-opacity:.99999982"/>
            <stop id="stop1207" offset="1" style="stop-color:#3a21b7;stop-opacity:.89999998"/>
        </linearGradient>
        <linearGradient xlink:href="#linearGradient1205" id="linearGradient1207" x1="-23.9" x2="371.8" y1="-371.1" y2="281.7" gradientTransform="translate(99.6 301.3)" gradientUnits="userSpaceOnUse" spreadMethod="repeat"/>
    </defs>
    <g id="layer1">
        <rect id="rect1200" width="512" height="512" x="0" y="0" ry="72.4" style="display:inline;fill:url(#linearGradient1207);fill-opacity:1;fill-rule:evenodd;stroke:none;stroke-width:5.065;stroke-linecap:round;stroke-dasharray:none;stroke-opacity:1"/>
        <text xml:space="preserve" id="text1180" style="font-style:normal;font-variant:normal;font-weight:400;font-stretch:normal;font-size:38.1px;line-height:1.25;font-family:'Litho Display W05 Press';-inkscape-font-specification:'Litho Display W05 Press, Normal';font-variant-ligatures:normal;font-variant-caps:normal;font-variant-numeric:normal;font-variant-east-asian:normal;letter-spacing:12.7px;fill:#fff;fill-opacity:1;stroke-width:.264583" transform="translate(-1.3 30.4)"><textPath xlink:href="#path1187" id="textPath1207">hangman</textPath></text>
        <path id="path1187" d="M153.5 197.8a103.9 103.9 0 0 1 119.2-85.9 103.9 103.9 0 0 1 85.8 119.3A103.9 103.9 0 0 1 239.3 317a103.9 103.9 0 0 1-85.8-119.2Z" style="fill:none;fill-rule:evenodd;stroke:none;stroke-width:1.95709;stroke-linecap:round;stroke-opacity:1"/>
        <path id="path1207" d="M166.3 366.4a136.1 136.1 0 0 0 192-12.7 136.1 136.1 0 0 0-12.6-192 136.1 136.1 0 0 0-192 12.6 136.1 136.1 0 0 0 12.6 192Z" style="fill:none;fill-rule:evenodd;stroke:none;stroke-width:2.56383;stroke-linecap:round;stroke-opacity:1"/>
        <g id="g1207" transform="translate(-1.3 32)">
            <path id="path1049" d="M230.1 224.8c-4-1.4-5-6.4-1.8-9.1 1.6-1.4 2.3-1.6 8.7-1.5h5.6l1 .7c1.4 1 1.8 2 1.8 4.9 0 2.1-.1 2.4-.6 3.2a5 5 0 0 1-1.4 1.5l-.8.6H237c-5.3.1-5.7.1-6.9-.3zm23.4-1.3a21.9 21.9 0 0 1 5.9-14.6 19 19 0 0 1 4.5-3.1l1.7-1-1-.7c-4.3-2-7.8-6.6-10.1-13.6l-1-3.1c0-.4-.2-.4-2-.3h-1.7v1.3c-.2 4.1-.8 5.9-2.8 8-2 2-4.7 3-7.9 2.9h-1.5v-10.4c0-10.2 0-10.3.4-11.1.8-1.5 1.7-2.3 3-2.6 1-.3 2.4-.4 12.9-.3 11.2 0 11.8.1 13.7.5a17.7 17.7 0 0 1 12.7 11c.5 1 1 4.5 1 7.4 0 3.5-.4 6-1.4 8.3l-.7 1.6.5 1.3a15.7 15.7 0 0 1 .8 9.3l-.9 1.7a14.4 14.4 0 0 1-6.8 7.2c-3.3 1.7-5.6 2-14 2h-5.3zm31.9-9.2c-.1-.1-.2-6.4-.2-14 0-9 .1-13.6.2-13.4.3.4.2 27.6 0 27.4zM230 213a5.7 5.7 0 0 1-3.5-4c-.3-2 .2-3.7 1.7-5 1.3-1.4 2-1.6 8.5-1.6 5.5 0 5.7 0 6.5.5.4.2 1 .8 1.4 1.3.6.9.6 1 .6 3.5.1 2.7 0 3.5-1.2 4.5-1.1 1-1.3 1-7.5 1-4.3 0-6 0-6.5-.2zm.6-11.5a6.2 6.2 0 0 1-3.8-3.4c-.6-1.3-.4-3.3.3-4.5 1.3-2.2 3-3 6.4-3h2.2v11h-2.3l-2.8-.1zm-.2-11.9c-1.5-.5-2.1-1-2.8-1.8a5 5 0 0 1-1.2-3.4c0-2 1.2-4 3.2-5 1-.4 1.2-.4 3.8-.4h2.5c-.2.2-.2 1.6-.2 5.4 0 3-.1 5.3-.2 5.4l-2.1.1c-1.6 0-2.3 0-3-.3z" style="display:inline;fill:#87524b;fill-opacity:1;stroke-width:1.66039"/>
            <path id="path1180" d="M258 121.3c-.2 0-.4.2-.6.6-.2.4-.4.5-.6.4-.3 0-.3 0-.1.1.2.2.1.4-.7 1.5l-.9 1.3c0 .2-1.5 2.3-1.7 2.3l-.1-.4c0-.3 0-.3-.2 0-.1.2-.1.3 0 .4.2.1.1.4-.2.9a236.2 236.2 0 0 1 4.6-6.1c.7-.9.7-1 .4-1zm-5.2.4-.2.3-.3.5c0 .3 0 .2.4-.4l.1-.4zm7 1-.5.6-.3.6.5-.6.3-.6zm-1 1.5c-.2 0-.4.3-.5.5-.3.6 0 .5.3-.2.2-.2.3-.4.1-.3zm1.4.4v2a11.5 11.5 0 0 0 0-2zm-8.7.7v.3c0 .2 0 .3.1.2v-.4zm6.2.3-.4.5c-.3.6 0 .5.3-.1.2-.3.3-.5.1-.4zm-.6 1-.2.3-.4.3c0 .2.2 0 .4-.3l.2-.2zm-.7.9-.9 1.2-.7 1.2.7-1 1-1.4zm3.6.3v.4c.1 0 .1-.2 0-.4zm-.2 1.1s-1.4 2.5-1.6 3.3l.2-.2c.5-.5 1.6-3 1.4-3zm-1.9 3.7zm-1.2.5c-.1 0-.2 0-.2.2v.2c.1 0 .2 0 .3-.2v-.2zm-4.3.4-.1.2-.2.5.2-.1.2-.5zm7.3.6-.2.2-.4.3c0 .2.2 0 .4-.2l.2-.3zm-6.3.7v.5-.5zm6.8 1.1a11 11 0 0 0 0 1.8 10 10 0 0 0 0-1.8zm-2 .2-.5.6-.3.6.5-.6.3-.6zm-6.7.3v.3c0 .3 0 .4.1.3v-.5c0-.1 0-.1 0 0zm3.4.3c-.1 0-.2 0-.2.2l-1 1.5a22 22 0 0 0-1.4 2c-.4.8-.2.7 1-1 1.6-2.2 1.8-2.7 1.6-2.7zm-1.8.8s-.2.2-.2.5.1.5.2.5.2-.2.2-.5 0-.5-.2-.5zm19.7.4v.3l.3.2-.1-.3-.2-.2zm-15.9.2-.2.2-.4.3c0 .2.2.1.4-.2l.2-.3zm3 1.9s-.4.5-.6 1.3l-.4 1.1c.2-.2 1-2.3 1-2.4zm18 .1-.1.2c0 .1 0 .2.2.2a.2.2 0 0 0 0-.4zm-.5.3v.3c0 .4 0 .5-.2.2-.2-.2-.2-.2-.2 0 .1.2 0 .5-.2.7-.3.2-.3.2-.2-.1.2-.6 0-.4-.5.4-.4.4-.5.6-.3.5l.4-.2.8-.6c.6-.6.7-.8.6-1l-.2-.2zm-1.6.1c-.2 0-.6.6-.6 1l.2-.3.5-.5c.1-.1.1-.2 0-.2zm-2 .1v.3c0 .3 0 .4.1.3v-.5s0-.1 0 0zm-18.7.1-.3.2-.3.4c0 .1.2 0 .4-.3l.2-.3zm-3.6.1v.3c.3.3.4.3.3 0-.1-.3-.2-.3-.3-.3zm19.3.2v.5c.1 0 .1-.3 0-.4v-.1zm-16.5.6-.4.5c-.3.6-.1.5.3 0 .2-.4.2-.6.1-.5zm18.6 0s-.2.1-.3.4c-.3.4-.3.4 0 0 .3-.1.4-.3.3-.4zm-3.2.2-.2 1.2v1.7c.2.8.3.5.2-1.2zm.5.3v.7-.6c0-.1 0-.1 0 0zm3.6.1v.5c.2 0 .2-.3.1-.4 0 0 0-.1 0 0zm3.7.2-.2.1-.3.5.3-.1.3-.5h-.1zm1.1 0s-.3 0-.4.3c-.3.3-.3.3 0 .1.2 0 .2 0 .1.2-.2.5 0 .4.3 0v-.5zm-2.5.1-.3.4-.1.4s.2-.1.3-.4c0-.2.1-.4 0-.4zm-3.4 1c-.1-.1-.3 0-.4.5 0 .4 0 .5.2.3.1 0 .2-.3.1-.5 0-.2 0-.3.2-.2.1.1.2.1 0 0v-.2zm2.2 0-.5.1c0 .1 0 .1.1 0l.3.1c0 .3.1.3.2 0l-.1-.3zm4.2 0-.2.2c-.2.2-.1.2.1.1.2 0 .4-.2.3-.2h-.2zm-21.2.2-1 1.1a120.7 120.7 0 0 1-3.2 4.9c0 .2.3 0 1-1.3l1.2-1.7c.5-.5 2-2.8 2-3zm-5.2.3-.2.4c0 .2.1.2.3-.2l-.1-.2zm14.8.2-.2.4c0 .2.2.2.3-.2v-.2zm11 0-.1.4c0 .2.1.2.3-.2l-.1-.2zm-3.8.1-.1.5v1.3c0 .6.4.6.5 0 0-.2.2-.3.4-.3.2.1.3 0 .3-.4 0-.5 0-.5-.2-.2-.1.3-.2.4-.2.1 0-.1-.2 0-.3.4l-.3.7v-2.1zm-14.6.2c-.1 0-.2.1 0 .2l.1.2.1-.2s0-.2-.2-.2zm17.5.1v.2c0 .2 0 .4.1.3v-.4s0-.1 0 0zm-7.4.2v.4c.4 1.1.3 3.2-.1 3.5-.2 0-.3.3-.3.4l.5-.4c.5-.6.5-.7.4-2.1a5 5 0 0 0-.4-1.7c0-.1 0-.1 0 0zm-2.4.2c-.1 0-.2 0-.1.2l.1.1.2-.1c0-.1 0-.2-.2-.2zm-8 0c-.2.1-.3.3-.3.4 0 .2.2.2.3-.2v-.2zm11.6.6v.3c0 .4 0 .6.1.4v-.7c0-.1 0-.1 0 0zm-3.4 0c-.1 0-.3 0-.3.2l.2.1.3-.1c0-.1 0-.2-.2-.2zm1.4 0v.5c.1 0 .1-.2 0-.4 0 0 0-.1 0 0zm-10.2.1-.3.4-.1.4s.2-.1.3-.4l.1-.4zm10.9.1-.1 1.1c0 .7-.2 1.3-.4 1.6-.3.4-.3.4.1 0 .4-.3.4-.6.4-1.5zm-2.1.6v.5c.1 0 .1-.2 0-.4 0 0 0-.1 0 0zm10 .1c-.1 0-.2.1-.1.2 0 .2.1.2.2.2v-.2l-.1-.2zm-5.4.1v.5c.1 0 .2-.2.1-.4 0 0 0-.1 0 0zm-1.4.2v.5c.1 0 .2-.2 0-.4 0 0 0-.1 0 0zm-11 .3v2a11.5 11.5 0 0 0 0-2zm16 .3-.3.1c-.2.2-.2.2.1.1.2 0 .3-.1.3-.2h-.2zm-24.6.2v.7-.7c0-.1 0-.1 0 0zm16.8.2v.5c0 .3-.2 1-.4 1.3-.3.4-.3.7-.2.6.2-.1.4-.6.6-1 .3-.6.3-.9.2-1.2l-.2-.2zm3.2.2-.3.1c-.1.1-.3.2-.4.1l-.1.1c0 .4.3.3.6-.1l.2-.2zm3.5 0h-.2l-.3.3.5-.1v-.2zm2.2.4h-.1l-.2.5c0 .3 0 .3.2 0 .2-.2.2-.5.1-.5zm-3.3.2-.4.2c-.3 0-.4.2-.4.3l.4-.1.4-.4zm-17 .4-.7.9-.5.9.7-1 .5-.8zm16 .2-.4.2c-.3 0-.4.2-.4.3l.4-.1.4-.4zm3.9.2-.8 1.2-.4.7.9-1.2.3-.7zm-10 0h-.2l-.2.5c0 .3 0 .3.2 0 .2-.2.3-.5.2-.5zm.8 0s-.2.1-.2.3c-.2.3-.1.3 0 .1.2-.1.3-.3.2-.3zm-14.1.6-.5.4a266.9 266.9 0 0 0 .5-.4zm6.4 0v.7-.5zm9.8.9h-.1c-.2 0-.3.1-.3.2l.5-.1v-.1zm-10 .1-.5 1.1c-.2.7-1.3 2.5-2.5 4.3a192.5 192.5 0 0 0-4.4 6.2c-.3.4-.6.8-.7.7l-.2.1.2.2a346.1 346.1 0 0 0 6.9-9.6c.7-1 1.4-2.8 1.3-3zm8.9.4-.2.1c-.2.2-.2.3.1.2l.3-.3h-.2zm6.6.4-1 .7c-.5.5-1.3 1-1.7 1.2l-2.1 1.1a72 72 0 0 1-5.6 3.2c-.2.2.2 0 1-.3a65 65 0 0 0 9.4-6zm-23 .2-.2.1c-.2.2-.4.2-.5.1-.1 0-.1 0 0 .1.2.3.2.3.5 0l.2-.3zm15.2.2-1 1-.9.9 1-1 1-.9h-.1zm-10.3 2.6c-.2 0-.3.1-.4.3v.3l.3-.3c.2-.2.2-.3 0-.3zm16.6.8c-.3 0-.3 0 0 .2s.4.2.4 0l-.4-.2zm-21.4.2-.1.2-.2.5.2-.1.2-.5zm21 0-.6.3-.6.4.6-.2.6-.4zm-13.5.4-.2.2-.4.3c0 .2.2 0 .4-.3l.2-.2zm14 0c0-.2-.7 1.1-.8 1.6-.1.3 0 0 .4-.5l.5-1zm-2.7.9h-.4l-.4.4.4-.1.4-.3zm-12.3.5-.2.2-.4.3c0 .2.2 0 .4-.3l.2-.2zm5 .2-.2.2v.6c0 .2.4.2.5 0 .1-.1 0-.2-.2 0-.3 0-.3 0-.2-.4 0-.2.1-.3 0-.4zm5.9 0-.4.2-.5.3.5-.1.4-.3zm-9.6.4a11 11 0 0 0 0 1.7 10 10 0 0 0 0-1.7zm-8.6.4v.7-.7zm21 .2-.2.4c-.3.3-.4.6-.4.7 0 .4-.3.4-.6 0-.3-.3-.3 0 0 .4.2.2.3.2.7-.2l.5-1v-.3zm-4.7 0-.4.2-.4.3.4-.1.4-.3zm-4.2 2-.2.2c-.2.2-.2.2 0 0 .3 0 .4-.1.3-.2h-.1zm-3.7.2v.7-.7zm11 .2-.7.5c-.2.3-.7.5-1 .5l-.7.2-.5.4-2 1.2c-.5.4 0 .2 1.5-.7l2-1c.3 0 1.8-1.1 1.4-1.1zm-8.2.3-.6.6-1.1 1.2-.1.3a618.5 618.5 0 0 0 1.8-2zm-6.8.1-.5.6-.3.6.5-.6.3-.6zm3.8.8-.7 1.4c0 .4-1.1 2-1.4 2-.1 0-.2.1 0 .2 0 .2-.5 1-1.3 2l-.9 1.3a64.3 64.3 0 0 0 3.7-5.2c.4-.6.7-1.7.6-1.7zm3.3.8-.2.2.2.2c.1 0 .2 0 .2-.2 0-.1 0-.2-.2-.2zm-8.5.6c0-.1 0-.1-.2 0l-.5.6c-.3.6-.1.5.4-.2l.3-.4zm11 .5L263 166l1.6-.9 1.2-.8zm3.6.4-.2.1c0 .2 0 .2.1.1l.3.1v.1c.2 0 .1-.2 0-.3l-.2-.1zm-8.3.5.2.3c.3.3.4.4.4.2l-.3-.3-.3-.2zm7 .3-.4.1-.4.3h.4l.4-.4zm-14.7.1-.3.4-.1.4.3-.4.1-.4zm15.9.3s-.3.3-.5.9a9.4 9.4 0 0 1-2.1 3.4 3 3 0 0 0-.8 1c0 .4 1.8-1.8 2.3-3a179.6 179.6 0 0 1 1-2.3zm-6.5.1-.4.3c-.2.2-.3.2-.5 0 0-.3-.2-.3-.2-.2 0 .2 0 .3.2.4.2.2.3.1.7-.2.3-.1.3-.3.2-.3zm3.3.7-.6.2-.6.4.6-.2.6-.4zm-5.8.3-.8 1-.2.4a319 319 0 0 1 1-1.4zm3.7.8a2 2 0 0 0-.7.4c-.3.3-.3.4 0 .2.6-.3 1-.6.7-.6zm-3.6 1.1v1.7a8.7 8.7 0 0 0 0-1.7zm-8.6.7v.8-.7c0-.1 0-.1 0 0zm10.3.8-.2 1.2v.7c.2-.3.3-2 .2-1.9zm-4.4.1-.4.5c-.3.6-.1.5.3 0 .2-.4.3-.6.1-.5zm-2.7 0-.1.2c-.6.6-2 2.7-2.2 3 0 .3.5-.5 1.7-2.2l.6-1zm10.7.7-.2.1-.9.6c-1.8 1.3-2.7 1.8-2.9 1.5-.1-.2-.2-.2-.2.2l.1.4a28.8 28.8 0 0 0 4.1-2.8zm-12 0-.2.2-.2.5s0 .1.2 0l.2-.4v-.3zm6.5 1.3v.5c.1 0 .1-.3 0-.4 0 0 0-.1 0 0zm-4.1.5-.2.2-.4.4c0 .1.2 0 .4-.3l.2-.3zm4 .5-.2.2c-.1.2-.2.4-.1.5l-1.5.3h-1.5 1.5c1 0 1.5 0 1.5-.2 0-.1 0-.3.2-.4l.1-.3c0-.1 0-.1 0 0zm5.7.5-.2.3c0 .2 0 .3.2.2l.1-.3-.1-.2zm-9 .8zm7.9 0h-.3l.3.1h.2l-.2-.1zm11.4 4.4.2.2.3.4c.2 0 .1-.2-.2-.4l-.3-.2zm-39.3.2v5.4l-.1 5.2v-10.3 5.1c-.1 5.2-.1 5.2-.6 5.3h-.2.8-.8l-1.5.1-2.3.1 3 .1 3 .1-3 .1-3 .1h2.4l2.4.1v10.7-5.4c0-3 0-5.3-.2-5.3l-.1 5.5v5.6h2c1.6 0 2.8-.1 2.7-.2l-.1-.1c.2.2-.6.3-2.2.3h-6.9l3.3.2h3.3l-3.3.2c-2.2 0-2 0-.4.1h2.9l5.8.2h.2l.7.4.1.1.5.6c1 1 1.2 1.9 1.2 4.6 0 2 0 2.4-.5 3.2-.1.4-.5.8-.9 1.1a5 5 0 0 1-.6.4c-.4.2-.5.4-.3.4l-.3.2h-5.9c-3.5.1-5.7.2-5.5.3.2.2.2.2 0 .3l5.5.1a312.4 312.4 0 0 1 6.9 0c.2-.1.2-.2.1-.2l.1-.3c.2-.2.2-.3-.1-.3-.4 0-.3-.1 0-.2-.1.1.6.2 2 .2 1.6 0 2.3 0 2.1-.2l.7.2h.4l-.4-.2 1.1-.3h.1l1-.6-.5.5c.3 0 1.2-.8 1.7-1.5l.2-.4-.2.1c.3-.2.7-1.1.7-1.6 0 .7.2.4.3-.7v-.7c-.2.2-.2 0-.1-.6l-.1-1c-.1-.2-.2 0-.1.3.2.9-.1.5-.4-.4l-.2-.6v-.1c.1-.4.3-.4.5 0l-.2-.2v.2l.3.3v.3l.4.9c.2 0 0-1.3-.3-1.9-.3-.6-.5-.7-.7-.3v-.2c0-.3 0-.5-.6-1-1-.7-1.4-1-2.7-1l-.2-.1h-2.1l1.1-.1-1.9-.1c-1.1 0-1.9-.2-1.9-.3.1-.2-.3-.4-.9-.4a65.1 65.1 0 0 0 6.3-.2c.6-.1.7-.2.5-.4.1 0 .3 0 .5-.2v.1c0 .1 0 .2.1 0 .1 0 .2-.1.1-.2l.2-.3c.2.1.5 0 .8-.4.2-.1.2-.2.2-.3l.4-.3s.3-.2.4-.5l.2-.4a2.7 2.7 0 0 0 .2-.8l.1-.3c.3-.6.3-2.2 0-2.5v.2l-.3-.5c.2-.5.2-.6-.1-.4 0-.3 0-.5-.1-.2 0-.4-.5-1.4-1.2-2-.6-.6-1.8-1.1-1.6-.8l.1.1h-.1c-.2 0-.2.3-.4 1v.7l.2-.6.2-.6.1.3c0-.2-.1-.1-.3.5-.7 2-1.9 3.5-3.5 4.7 0 0-.2 0-.3.2l-1.5.8-.8.5h-.2c-.7.3-1.3.4-2.3.5h.5c.5-.2.1-.2-1.5-.2h-2.4l-.1-.5-.2-.6v.7-.2l-.1-19.1-.7-.2zm40.9.6.4.4c.3.4.5.6.5.4l-.5-.5zm-40.4.8v.8-.8zm.5 0v.5-.4zm0 0 .1.2v-.1zm-.6.3v.5-.4zm0 1.2.2 3.8v3.9-3.9l-.1-3.8v7.6-3.9zm46.5 4.3h-2.4c0 .1.5.2 1.2.2-.2 0-.2 0 0 0l.6.2h-1.3c-.2.1-.1.2.2.2h.2c-.2.1-.3.3 0 .6l.1.6.3 3.3c.3 4.1-.1 7.5-1.3 10.4l-.7 1.6.5 1.3c.8 2.2 1.1 4.2 1 6.8v2.4h2.2l2.2-.1v-13.4c0-11.9 0-13.4-.2-13.5l-.1-.1v-.2c-.1-.3-.6-.3-2.5-.3zm-30.2.6c-.1 0-.3.1-.3.3v.3l.2-.3c.2-.2.2-.3 0-.3zm-.8.1h-.3l-1 .1c-.6 0-.7.7-.2 1 .3.2.3.2 0 .2-.2 0-.3.1-.3.2l.3.2c.3 0 .6-.3.6-.5 0-.3.5-1 .8-1.1.1 0 .1 0 0 0zm1.2.4c-.1 0 0 .3.4.6.9.8 1 .8.3 0l-.7-.6zm-1.7.3-.2.2.3.2c.2 0 .3 0 .2-.2l-.3-.2zm2 .5c-.2 0-.3 0-.3.2v.2l.3-.2v-.2zm.3.4c-.1 0-.2 0-.2.2v.2c.1 0 .2 0 .3-.2v-.2zm-1.9 0-.3.3-.4.3.5.5 1.7 1.5c1.2 1.3 1.2 1.3 1.2 1l-1.5-1.6c-1.3-1.2-1.5-1.5-1.3-1.8l.1-.1zm-1.6.3-.2.2.2.2c.1 0 .2 0 .2-.2 0 0 0-.2-.2-.2zm.6.7v.8-.8zm-.9 0v.6-.5zm-14 .1v.1zm.6 1.3c.1 0 .2 2 .1 4.4v.4-4.8zm17.2 1.9c-.2 0-.2 0 0 0h.3-.3zm-17.3.3v4.4-4.4zm15.2.3zm0 .4zm.4.5zm2 .2v.3c0 .2.2.3.2.2l.9.4c.7.6 1.2.7 1.2.3 0-.1-.1-.2-.3-.1h-.3c-.1-.2-1.5-1-1.7-1zm-4.8.1zm3.6 0v.2l.2.3c0-.2-.1-.3-.2-.3v-.1zm-3.4.2zm-.2.4zm-1 .7zm8.2.2c-.3 0-.1.3.5 1 .5.4.8.9.7 1 0 .1 0 .2.2.1.1 0 .6.3 1 .8l.8 1c.2 0-.2-.7-.7-1.3-.3-.3-.5-.6-.4-.7h-.2c-.2 0-.3-.1-.3-.3v-.3c-.2 0-.4-.1-.7-.4-.2-.3-.5-.5-.6-.5-.1 0-.2 0 0-.2 0 0-.1-.2-.3-.2zm-8.5 0zm.1.3zm1.1.2zm3.4.8zm-6.4.5zm-.4 0zm0 .1zm6.3.3zm-7.2 1v.1h-.2.2zm-7.8.2h-.1v.3-.3h.1zm15.6 0-.4.5c-.4.4-.4.4 0 0 .4-.3.5-.2 1.7 1l2.5 2.5 1.2 1c.1 0 .1 0 0 0l-2.5-2.5zm-7.6 0zm-.8 0v.2-.1zm6.6.2zm-6.8 0-.3.1a8.2 8.2 0 0 0 .3 0zm15.5.2.1.2c.3.3.5.4.5.3l-.4-.4-.2-.1zm-16.6 0h-.8l-1 .2.7.2-.7-.2 1-.1.8-.1zm.5.2h-.3l.1.2.2.1-.2-.1-.1-.1v-.1h.3zm1.2 0 .1.3v-.2zm1 .2c-.1 0-.2.1-.2.4 0 .3-.1.4-1.9.4 1.8 0 2 0 2-.4l.1-.4zm-3.7 0zm-4.8.3.3.2a.6.6 0 0 1-.3-.2zm23.3.2v.1l.1.2h.2c0-.1 0-.2-.2-.3h-.1zm-21 0-1.1.2h1-1zm-1.7.2zm-.2 0-.4.1h.4zm23.5.2v.4l.2.2.1.1.5.5c.2 0 0-.2-.4-.6l-.2-.1v-.2l-.2-.2zm-19.4 0 1.1.2h-.5c-.6 0-.8 0-.7-.1zm9 0h-.3l-.4.3.7-.1v-.1zm.4.3c-.2 0 .5.8 1.4 1.6.9 1 1.7 1.6 1.8 1.6.1 0 0-.2-.4-.4l-.5-.7c0-.2-.1-.3-.3-.3-.2 0-.3 0-.2-.3v-.2c-.2 0-.5-.2-1-.6l-.8-.7zm2.8 0 .1.3c.1.2.3.3.4.3v-.3l-.5-.3zm-14 .2zm-.7 0zm1.3 0zm21.7.6v.2c0 .3 0 .4.3.3.2 0 .3-.1.3-.2l-.3-.2-.3-.1zm-17.7.1a3.4 3.4 0 0 1 1.5 1v.1c-.3.2-.4.2-.6 0-.1-.3-.5-.5-.8-.7l-.2-.4h.1zm4 0c-.4.3 0 .6.5.4a3 3 0 0 1 1.2 0c.2.1 0 .2-1 .2-1.2 0-1.5-.2-1.1-.4h-1.8.8a8.8 8.8 0 0 0 1.5-.1zm6.4.2-.1.1c0 .1 0 .2.2.2h.2s0-.2-.2-.3h-.1zm8.2.2.7 1c1 1 1.6 1.3.8.5-.2-.2-.3-.5-.2-.6 0-.1 0-.2-.1 0-.1 0-.3-.1-.3-.3l-.3-.2c-.1 0-.3 0-.4-.2 0-.2-.1-.3-.2-.2zm-12.5.3.5.3c0 .3.2.5.3.5 0 0 .3.6.4 1.3v.2-.1c-.2-.5-.2-.5-.3-.1 0 .2.1.5.3.6v.5c-.1.1-.3-.2-.5-1 0-.7-.3-1.2-.4-1.2-.1 0-.4-.9-.3-1zm-1.5.2zm-3.1.8zm0 .3zm6 .4.2.3-.1.3-.1-.3v-.3zm6.6 0s-.1.1 0 .2l.3.2c.4 0 .4-.2 0-.3h-.3zm5.3.5s-.2 0-.3.2l-.4.3.4-.1.4-.3zm-7.9 0-.2.2-.4.4c0 .1.2 0 .4-.3l.2-.2zm-1.5.2h-.3l-.4.3h.4c.2 0 .4-.2.4-.3h-.1zm6.4 0c-.3 0-.3.1 0 .4.4.3.4.3-.4.2l-1-.4c-.2-.2-.5-.2-.4 0 0 .2.4.3.8.4 1.2.4 1.6.3 1.4-.3l-.4-.2zm-8.6.2c.1 0 .2.1.2.3 0 .1 0 .3-.2.4l-.1-.2c.2-.2.2-.3 0-.5h.1zm10 .3c-.5.1-1 .4-.5.4.1 0 .2 0 .1.2 0 .1 0 .2.1 0 .1 0 .2-.2.1-.3 0-.1 0-.2.2 0l.4-.1c0-.1-.1-.2-.4-.2zm-5.5.2-.2.1-.4.4c0 .1.2 0 .4-.3l.2-.2zm-2 .7.2.4c.4.4.5.3.2-.1-.2-.2-.3-.4-.4-.3zm2.6.3h-.2c-.3.2-.2 1 .1 1.4.3.2.4.2.5 0 .2-.3.2-.3.3 0l.3.3s0-.3-.3-.5l-.3-.6c0-.1-.1-.2-.3-.1-.2 0-.3 0-.2-.3 0 0 .1-.2 0-.2zm-3.3 0v.5-.4zm5.5.3v.6l.5-.1c0-.1 0-.3-.3-.4l-.2-.1zm-9.6 0v.2-.2zm2.8 0zm4.8.6c.1 0 .2.2.1.3-.2.3-.3.2-.3-.1 0-.2.1-.3.2-.2zm-3.5.1v.2c0 .1.3.6.7.9l1.7 1.3c1 .9 1.2 1 .6.4l-.4-.6s0-.1-.1 0c-.1 0-.2-.1-.2-.3l-.8-.6c-.6-.2-.8-.5-.8-.8 0-.2 0-.3-.1-.2-.2.4-.5.3-.6 0v-.3zm5.4.3-.4.4-.3.4.5-.4.2-.4zm-7.9.7zm0 .2zm7 .3-.3.2-.3.3c0 .2.1 0 .4-.3l.2-.2zm-9.6 1.7zm-.4.1zm2 0zm-3.4.3.6.2zm-.4 0zm2.3.3h.2-.2zm7.3.3c-.1 0-.2.1-.2.3v.3l.3-.3-.1-.3zm-7.4 0zm2.4.1.6.7c.4.4.6.7.5 1-.1.3-.1.3.1 0 .2-.4.1-.6-.5-1.1l-.7-.6zm-1.6 0zm1 .2h-.2l-.4.2c0 .2.6 0 .7-.1v-.1zm-2 0h.3l-.2.1s-.1 0 0 0zm2.5.5.2.3c.5.4.6.4.3 0-.1-.2-.4-.3-.5-.3zm-2 0a1 1 0 0 0-.5.2c-.3.1-.3.2 0 .2l.5-.2v-.2zm-6.6.3h.4l.6.1c0 .2-1 .1-1 0-.1-.1 0-.1 0-.1zm-5.4 0zm48 .3h-.3l-.4.2c0 .2.6.1.7 0v-.2zm-38.9 0c-1 0-2.1.1-2.5.3-.4 0-.4.2-.1.2h-.1l.5.4 1 1.3c.5.9.5 1 .5 3.8v2.5c-.2 0-.4.3-.6.7l-.6.8-.8.7h1.3l1.5.2c.2.2.8.2 1.4.2.8 0 1 0 .9-.2 0 .1 0 0 .1 0l.3-.1h.3c.2 0 .3 0 .4-.2l.7-.1.5-.3c1.4.2 2.8-4.3 2.4-4.8 0-.6-.2-1.3-.4-1.2a1.6 1.6 0 0 0 0-.2v-.1c0-.4 0-.4-.2-.1v-.4l-.2.1v-.6c0-.2-.2 0-.3.4 0 .4-.2.6-.4.5.1 0 .3-.2.4-.5v-.9l-.3-.4-1.2-1-.3-.2a4.2 4.2 0 0 0-1.7-.6h-.4l-2-.1zm35 .1h-.2c-.2.1-.1.2.1.2l.3-.1h-.2zm1.6 0h-.2c-.1.1 0 .2.2.2.3 0 .4 0 .3-.1h-.3zm-36 .3c2.1 0 2.4 0 2.9.5-.1 0-.2 0 0 .2 0 .2-.1.1-.4-.2-.5-.4-.8-.4-2.4-.5zm-2 .2a30.7 30.7 0 0 0 .3 0h-.3zm.8 0 .4.2v.1h-.2l-.2-.2zm1.6 0h.2l.4.3c0 .1 0 .1 0 0l-1-.2h-.3.7zm6.1.3.4.4.4.5c.2 0 0-.2-.4-.5zm-3.3 0h.2c.1.2 0 .2-.2.1v-.1zm-1 .2zm-3.3 0 .2.1v.3l-.2.4v.1c-.2.4-.4.4-.4 0 0-.3.1-.5.2-.5l.2-.4zm5 .2.5.3.7.6a10.7 10.7 0 0 0-1.3-1zm2.8.5s0 .2.3.5.5.4.6.2l-.3-.4c-.3-.3-.5-.3-.6-.3zm-3.6.1zm4.7.3v.5c.1-.1.1-.3 0-.4v-.1zm-2.9.6zm-.2.1zm-.1.3zm-5.6 0zm5.7 0v.1l.2.2c-.1 0-.2 0-.2-.2zm1 .8h.1v.5-.5zm-.1.6h-.2.2zm.6.6zm-6.3 3.4zm6.7.1v.8-.7zm-3 .3h-.2zm-.7.5zm3.7.5-1.3 1.5-5.8 6.7c-1.6 1.7-2 2.2-2.8 4.1l-.6 1.6s.8-1.4 1.1-2.3l.8-1.3c.2-.1.4-.4.4-.6 0-.2.2-.3.6-.3 0 0 .1 0 0-.2 0-.2.3-.5.6-.9.7-.6 1.2-1.2 3-3.3a101.9 101.9 0 0 1 4.2-4.6c0-.2 0-.4-.2-.4zm-5.6.3zm.8.2h.2-.2zm-.6 0zm0 .4zm-6 0-.4.1h1-.5zm3.3 0-.4.1h.8-.4zm20.3 0-.3.1.3.1h.2l-.2-.1zm-26.2.2zm25.6 0h-1.4 1.4zm-10.3.1c-.2 0-.4.1-.4.3l.1.3c.1 0 .2 0 .2-.2 0 0 0-.2.2-.2l.2.4.1.4.1-.5c0-.4-.1-.5-.5-.5zm5.6 0-1.4.1h1.4c1.2.1 1.3.2 1.4.7l.2.4v-.6c-.3-.6-.3-.6-1.6-.5zm-11.7.1c-.2 0-.4.2-.4.4 0 .4 0 .4.5 0 .3-.4.3-.4 0-.4zm9 0v.3c0 .3 0 .4.1.3v-.5c0-.1 0-.1 0 0zm-3.5 1.1v.8-.7c0-.1 0-.1 0 0zm7.4.3v.5c.1 0 .1-.3 0-.4v-.1zm-3.6.1v.7-.6c0-.1 0-.1 0 0zm-2.6.2v.7-.6c0-.1 0-.1 0 0zm7 .3v.5c.1 0 .1-.3 0-.4v-.1zm.2.8v1.1c.2.3.2.3.3 0 0-.1 0-.5-.2-.8l-.1-.3zm-4.4.3v.7-.6c0-.1 0-.1 0 0zm-2.6.4c0 .3-.3.7-.6 1-.2.2-.3.2 0 0s.4-.2.2.3c0 .5 0 .6.1.3l.3-1.2v-.4zm4.5.3c-.1.1-.1.2 0 .4s.2.2.2-.2c0-.1 0-.2-.2-.2zm-10.4.3-.2.2v.2c.1 0 .2 0 .3-.2l-.1-.2zm13.3.3v.8c.2 1.2.2 1.5 0 3v1.3l.2-1.4c.3-1.4.2-3.4-.2-3.7zm-7.2.3v.5-.5zm2.6 0v.5-.5zm-3.9.4-.3.2-.3.4c0 .1.2 0 .4-.3l.2-.3zm.9.8v.5-.5zm3.2.2v.5-.5zm-5.3.4-.3.2-.3.4c0 .1.2 0 .4-.3l.2-.3zm-2.7.2c-.2 0-.3.1-.3.2 0 .2.1.2.3.2.2 0 .3 0 .3-.2 0 0-.1-.2-.3-.2zm1.9.8-.6.6c-.3.2-.4.5-.4.5l.6-.5.4-.6zm6.3.3v.9c.1-.2.1-.5 0-.8 0-.1 0-.1 0 0zm6.6.6v.5c.1 0 .1-.2 0-.4zm.6.4v.2l.3.3-.1-.4-.2-.1zm-15.3.2-.4.2c-.2 0-.4.2-.4.3l.4-.1.4-.4zm15.7.8v.2l.6 1.3c.5 1.1 1.1 3.8 1.1 5 0 .5 0 1.7-.2 2.6a164.6 164.6 0 0 0-1.5 9 2494.6 2494.6 0 0 1 1.3-7c.8-4.3.8-6 0-8a8.7 8.7 0 0 0-1.3-3zm-13 .2s-3.1 1.7-3.6 2.2c-.1.1.3 0 1-.4a11.1 11.1 0 0 0 2.1-1.5c.4-.2.4-.1.3.5v.7l.1-.7c.2-.4.2-.7.1-.8zm9.4 0v.5c.1 0 .1-.2 0-.4zm-4.2.2v1.7a10 10 0 0 0 0-1.7zm6.4.4v.5c.1 0 .1-.2 0-.4zm-17 0-.4.3-.5.4c0 .1.7-.3.9-.6zm14.6.3v.7-.6s0-.1 0 0zm-16.4.9c-.1 0-.3 0-.5.2-.3.4-.3.4.1.1l.4-.3zm18.6 0v.7-.5zm-2.4.3v.7-.6s0-.1 0 0zm-13 .3-2 1.3-1.9 1a21.7 21.7 0 0 0-5 4.2 877.3 877.3 0 0 1 .8-.7c.7-.8 1.5-1.4 4-3a68 68 0 0 0 3.4-2c.3.2.4.1.3 0 0-.2 0-.4.2-.6.2 0 .2-.1.2-.2zm-6.7.5c-.2 0-.2.2-.2.3 0 .3.1.2.2-.1.1-.2 0-.3 0-.2zm21.9.1v.5c.1 0 .1-.2 0-.4zm-20.3 0-.4.2c-.3 0-.4.2-.4.3l.4-.1.4-.3zm14.5.2v.5c.1 0 .1-.2 0-.4zm-6.5 0-.8 1.2c-.3.7-.5 1.1-.3.9a7 7 0 0 0 1-2zm-9 .4-.3.2c-.3.2-.4.2-.6 0-.1-.3-.1-.3-.1 0 0 .2 0 .4.2.4s.4-.2.6-.4l.2-.2zm18.9 0v.5c.1 0 .1-.2 0-.4zm2.2.6v.5c.1 0 .1-.2 0-.4zm-2.3.3-.2.5-.2 1.8-.1 1 .2-1.2a7 7 0 0 0 .3-2.1zm4.8.5s-.2 0-.3.2l.1.2.2-.2v-.2zm-2.7.5v.4c.1 0 .1-.2 0-.4zm-4.8.1v.2l.3.3-.2-.4-.1-.1zm-9 .6-.8.8-.7.8.9-.8.7-.8zm-5.7.1s-.3 0-.5.2l-.2.3c.3 0 .8-.4.7-.5zm15 .1.1.5c.1.2.2.3.3.2 0 0 0-.3-.2-.5 0-.2-.1-.2-.2-.2zm4.3.3v.5-.5zm-.2 1.4v.4c.1 0 .1-.2 0-.4zm-2.3.3-.1.2c-.2.1-.3.2-.5 0-.2 0-.2 0 0 .2.1.3.5.2.6-.2v-.2zm8.7.9v.4-.4zm-6.6 0v.5-.5zm-17.4.1-.2.2c-.2.2-.2.2.1 0 .2 0 .3-.1.3-.2h-.2zm-6.4.7c-.1-.1-1.4 2.2-1.4 2.4l.8-1 .6-1.4zm31.3 0c0 .4.3 1 .5 1.4.4 1 .7 1.2.4.4-.4-.9-.9-1.9-1-1.8zm-1 .2-.1.3v.2-.5zm-21.8.5v.3l.3.2-.1-.4s-.1-.1-.2 0zm15.1.2v1.8a10 10 0 0 0 0-1.8zm-15.8.2-2 1.2a111.6 111.6 0 0 1-5.1 3.6l1.8-1 2.9-2 1.8-1 .4-.4.2-.4zm22.2.3v.4-.4zm-21.4.4-.2.2c-.1.3 0 .3.1.2.1-.2.2-.3.1-.4zm-7.7 1-.3.2-.6.4c0 .2.8-.3 1-.5 0 0 0-.1 0 0zm31.7.4v.6l.3.4v-.6c-.1-.3-.2-.5-.3-.4zm-32.8.4-.4.1-.4.3h.4l.4-.4zm8 0-.2.2c-.1.3-.1.4.1.2.1-.2.2-.3.1-.4zm21.8 0v.8-.7zm-5.8.2v.5c.1-.1.1-.3 0-.4v-.1zm-25.8.1-.2.3c-.2.2-.3.4-.2.5.1.3.4.3.5 0 .1-.1 0-.1-.2 0-.3 0-.3 0 0-.4v-.4zm35 1 .1 1.1c0 1 0 2.4-.2 3.7l-.3 2.4.3-1a20 20 0 0 0 .2-6.2zm-26.2.6-.6.7-.4.6c.3-.1 1.1-1.3 1-1.3zm-6.8.7-.4.1-.4.3h.4l.4-.4zm-1 .6h-.3c-.6.4-1 .8-1 1 0 0 .2 0 .5-.3l.8-.7zm6.6.3-.5.5-.4.5.6-.5.3-.5zm19.2 0s0 .3.3.7c.2.4.3.7.4.6 0 0-.5-1.3-.7-1.3zm4.2.5v.5c.1-.1.1-.3 0-.4v-.1zm-31.7.5-.9.8a9.8 9.8 0 0 0-2.3 3.6c-.7 1.6-.4 1.2.5-.5l1.3-2.2c1-1.1 1.3-1.4 1.4-1.7zm7 .2-.3.2-.3.3c0 .2.1.1.4-.2l.2-.3zm21.8 1.1c-.2 0-.3 0-.2.2l.2.1.3-.1c0-.1 0-.2-.3-.2zm-23.8.4-.4.1-.4.3c0 .1.1 0 .4 0l.4-.4zm33 0-.1.3c0 .3 0 .4.1.3v-.5s0-.1 0 0zm-6.7.4v.5c.1 0 .1-.3 0-.4v-.1zm7.4.4.1.4c0 .2.2.3.2.3l-.1-.5-.2-.2zm-1 .6v.5c.2 0 .2-.3.1-.4 0 0 0-.1 0 0zm-6.5.2v1.7a8.7 8.7 0 0 0 0-1.7zm-24.8.1c-.3 0-.3 0 0 .2.3.3.4.3.4 0l-.4-.2zm-4.4.1h-.1l-.4.3c0 .1.4 0 .5-.2zm37.1 0s.1.7.4 1.3l.8 2c.4 1.3.3 5 0 7a13 13 0 0 0-.4 2 21 21 0 0 0 .7-8.8c-.4-1.4-1.3-3.6-1.5-3.5zm-33.2.3-.7.4-4.3 2.7-.5.4.7-.4 4.2-2.6zm31.6.2v.3c0 .4 0 .5.1.4v-.6c0-.1 0-.1 0 0zm-2.4.6v.5c.2-.1.2-.4 0-.5zm2.2 1v.2c0 .3 0 .4.1.3v-.5zm-3.8.1v.5c.1 0 .2-.3 0-.4 0 0 0-.1 0 0zm-35.6.4c0-.1-.7.3-.9.6l.4-.2c.3-.1.5-.3.5-.4zm37 0v.5c.1 0 .2-.3.1-.4 0 0 0-.1 0 0zm2.2.4v.5c.2 0 .2-.2.1-.4 0 0 0-.1 0 0zm-41.5.4v.5c.1 0 .1-.2 0-.4 0 0 0-.1 0 0zm1.1 0-.4.1-.4.4.4-.2c.2 0 .4-.2.4-.3zm38.2 0-.3 1a12 12 0 0 0-.4 2.4l-.1 1.5.2-1.6.4-2.5zm-29.8.5-.3.4-.2.4.4-.4c0-.2.1-.4 0-.4zm-5.2.2s-.3 0-.7.3l-1.7 1c-1.5 1-3.2 2.5-4 3.5-.6.9-1.8 3.1-1.8 3.4 0 .3.2 0 1-1.5.5-1.2 1-2 2.3-3 .9-1 1.7-1.6 1.7-1.6l.9-.5a51.8 51.8 0 0 1 2.3-1.6zm37 .1v.5c.2 0 .2-.2.1-.4 0 0 0-.1 0 0zm-33 1.6-1 1a178.4 178.4 0 0 0 1-1zm32.6 1v.3c0 .3 0 .4.1.3v-.6s0-.1 0 0zm-36 2-.5.1-.8.6-.4.3.4-.2.8-.5zm-1.8 1-.4.2c-.2 0-.4.2-.4.3l.4-.1.4-.3zm44.9 0v.2l.4 1.1.4.6s-.1-.6-.4-1.1l-.4-.7zm-4.5.8v.3c0 .2 0 .3.1.2v-.4zm-37.5.2c-.3 0-.3 0 0 .2s.3.2.3 0c0-.1-.1-.2-.3-.2zm34.4.1a8.1 8.1 0 0 0 0 1.5v-1.5zm-34.8 0-.4.2-.8.6-.4.3.4-.2c.3 0 .6-.3.8-.5zm41.1.6v.3c0 .2 0 .4.1.2v-.5zm-40.6.2s-.2 0-.2.2c-.2.3-.1.3 0 .1.2-.1.3-.3.2-.3zm-2 .2-.7.4a291.6 291.6 0 0 0-4 2.6h.2c.4-.1 3.4-2 4-2.5zm44.8.1.1.5.2.2v-.5l-.3-.2zm-50 .4-.2.2-.4.3c0 .2.2 0 .4-.3l.2-.2zm47.6.3v.3c0 .3 0 .4.1.2v-.5zm-2.4.6v.3c0 .3 0 .4.1.2v-.5zm5.4.3v.5c.5 2 .4 4 0 6.7l-.7 3.3v.5l1-4a16 16 0 0 0-.1-6.6l-.2-.4zm-9 0v.5c.2 0 .2-.2.1-.4zm-38.4.2s-.2 0-.2.2l.1.2.2-.2c.1-.1 0-.2 0-.2zm3 0-.4.7-.3.7c.2 0 .8-1.2.7-1.3zm41.2.3v.3c0 .3 0 .4.1.2v-.5zm-2.4.3v.2l-.2 1.2c0 1 .1.6.2-.6 0-.5.1-.8 0-.8zm-48.2.1h-.3c-.3 0-.5.2-.5.3 0 .2.8 0 1-.2h-.2zm50.4.6v.3c0 .3 0 .4.1.2v-.5zm-47.1 0c-.2 0-2.5 1.5-2.5 1.6 0 .2.4 0 .7-.2l.8-.5c.7-.3 1.2-.8 1-.8zm5 .9s-.2 0-.3.2l-.4.3c0 .2.2 0 .5-.3l.1-.2zm37.3.4.2.7.3.4-.2-.6-.3-.5zm2.3.4-.1.5-.2 1.3c0 .3 0 .2.2-.3l.1-1.3v-.2zm-47.4.1-.2.1-1.7 1.4.5-.2 1-.7.5-.5v-.1zm7 0-.9.8-.5.7.7-.7.6-.7zm38.7 1s0 .3.3.7c.4.8.5.8.1-.1-.2-.4-.3-.7-.4-.6zm3.8 0v.3c0 .3 0 .4.1.2v-.5zm-44.2.5-.2.2-.4.3c0 .2.2 0 .5-.3l.1-.2zm-7.5.2-.8 1-.4.7.7-.7.6-.9zm51.5.5v.2c0 .2 0 .3.1.2v-.4zm6.7.4.2.5.4.6c.2 0-.2-.8-.4-1-.1-.1-.2-.1-.2 0zm-56.8.3-.4.3c-.2.2-.2.3-.1.3l.4-.3.1-.3zm-2.8.7c0-.1-.8 1.5-1 2.3 0 .3-.1.5 0 .4l1-2.7zm8.6 1v.2c.1.2.2.3.3.2l-.1-.3-.2-.2zm50.6 0v.5c0-.1.1-.3 0-.4v-.1zm-50.8 0-.6.4c-.4.2-1 .6-1.2.9l-.6.4.7-.4.7-.4.6-.4zm-5 .6a3 3 0 0 0-1 .6c0 .3 0 .2.5 0l.6-.6h-.1zm49.2 0a8.1 8.1 0 0 0 0 1.6v-1.6zm8.2.2.1.7.2 1c0 .3 0 .6.2.7.3.3.2-.3-.1-1.4l-.4-1zm-1.8.2v.6-.5c0-.1 0-.1 0 0zm-53.2.8h-.2l-.3.2c0 .2.4.1.5 0v-.2zm53 .2v.5c0-.1.1-.3 0-.4v-.1zm-57.6.2-1.4 1.4-1.6 1.3v-.5c.1-.6.1-.6-.1 0-.1.2-.2.5-.1.7l.1.2 1.6-1.5zm3.9 0c-.6 0-4.9 3.9-5.8 5.3l-.4.7.6-.7c2.4-2.6 5-4.9 5.3-4.7 0 .1.1 0 0 0l.1-.3c.1 0 .2 0 .2-.2zm-6.6.4v.2l.1.3v-.5zm57.6.8c-.2 0-.6.8-.6 1.1l-.3.9-.3.8.2-.2a12.8 12.8 0 0 0 1-2.6zm-3.4.4v.3c0 .3 0 .4.1.3v-.5c0-.1 0-.1 0 0zm9 .3-.1 1.1v.9a13 13 0 0 0 0-2zm-3.9 1.3-.1.1-.2.5c0 .1 0 0 .2 0l.2-.6zm-51.6.5-.5.6-.3.6s.3-.2.5-.6c.3-.3.4-.6.3-.6zm48.6.7h-.1l-.2.5c0 .3 0 .3.2 0s.2-.5.1-.5zm6.7.6-.3.6c0 .3-.4 1.2-.8 1.9a10 10 0 0 0-.7 1.4l.6-.8c.6-1 1.3-3 1.2-3zm-4.4 0c-.1 0-.2 0-.3.3-.1.3 0 .3.1 0 .2 0 .2-.2.2-.3zm-52.3.6-.6.6a5 5 0 0 0-.7.7c0 .1.2 0 .7-.6zm-6 .6c0-.1-.9 1.8-1.1 2.7l-.2 1.6c0 .6 0 .6.4-1.5l.6-2c.3-.4.4-.7.3-.8zm57.7 0c-.1 0-.2 0-.3.3-.1.3 0 .3.1 0 .2 0 .2-.2.2-.3zm3.7.2v.5c.1 0 .1-.3 0-.4 0 0 0-.1 0 0zm-56.7.7-.6.5-.4.5s.4-.2.6-.5c.3-.2.4-.5.4-.5zm52.1.4-.7 1.4c0 .2.1 0 .5-.7l.2-.7zm-50 .2c-.2 0-3.5 5.2-3.5 5.6 0 .3.4-.2.6-.7.1-.4.3-.6.4-.6l.2-.4c0-.2.5-1 1-1.7 1-1.3 1.5-2.2 1.4-2.2zm.6.2v.5-.5zm56.3 1-.4.4-.1.4.4-.4c.2-.2.2-.4.1-.4zm-3 .3-.7.9a27 27 0 0 1-3.8 4.3c-.9 1-1.1 1.2-.6.8a28.1 28.1 0 0 0 5.2-6zm-53.3.3v2.6a22.3 22.3 0 0 0 0-2.6zm55.6.5s-.2.1-.3.4l-.1.4.3-.4.1-.4zm-60.9.7-.2.3c0 .3.1.2.3-.2 0-.1 0-.2-.1-.1zm61.7 0v.7-.6s0-.1 0 0zm-1.7.9-.2.1-.4.4c0 .1.2 0 .4-.3l.2-.2zm-7.2.2v.2c0 .3 0 .4.1.3v-.4zm-56.2 0v1.7l.3 1.4v-1.6l-.3-1.5zm64.9.8v.9c.1-.2.1-.5 0-.8 0-.1 0-.1 0 0zm-8.9.2v.2c0 .3 0 .4.1.3v-.4zm-47.5.7v.5-.5zm-4 .1c0-.1-.7 1.3-.7 1.6 0 .2.2-.1.4-.6l.3-1zm57.2 0-1.3 1.3a42.3 42.3 0 0 1 1.3-1.2zm3 .3-.1.7a25.2 25.2 0 0 1-1.7 3.7c.8-1 1.7-2.7 1.8-3.6zm-56.4.6v.7-.6s0-.1 0 0zm47.4 1c0-.1 0 0 0 0-.2 0-.3.2-.3.3 0 0 .1.2.3.2.2 0 .3-.1.1-.2-.1 0-.2-.2 0-.3zm-55.2 0v.8c.1.4.4.4.6 0 .2-.6.1-.6-.2-.2-.3.4-.3.3-.3-.2v-.4zm3.2.1a7 7 0 0 0-.8 2.4v.5a63.2 63.2 0 0 1 .8-2.9zm6.3 2-.2.1c-.2.3-.2.3 0 .2.3-.1.4 0 .4 0 0 .2 0 .3.2.2l-.1-.4-.3-.1zm-.5.8-.4 1.4c0 .6 0 .8.1.7.1-.1.3-.7.3-1.3v-.8zm52.6.8a26.3 26.3 0 0 1-7 4.3c0 .4 3.9-1.7 5.7-3.1 1.1-.9 1.5-1.2 1.3-1.2zm-7 0-1 1-.8.9 1-1 .9-.9zm-48.2.5v.4c.1 0 .1-.2 0-.4zm-.2 1v.5-.5zm46.7.5-.3.2-.3.3c0 .2.1 0 .4-.3l.2-.2zm-44.5.3c0-.1 0 0 0 0-.2.3-.2 1.6-.2 2.9 0 3 0 2.5.2-.9v-2zm-6 0c-.1 0 0 .4 0 .8s.2.7.2.6v-.8c0-.4-.2-.7-.2-.6zm59.5.6h-.2c-.1 0-.1.2 0 .4 0 .3.1.3.2 0 .2-.2.1-.4 0-.4zm-56 .1v.4c0 .4.1.5.2.3v-.7h-.1zm55.2.4-.3.2a32.1 32.1 0 0 1-.4.4c.2 0 .4-.2.5-.4l.2-.2zm-9.2 0-.3.2-.3.3c0 .2.1 0 .4-.3l.2-.2zm-49.2.7.4 1 .5.9-.4-1-.5-1zm48.6.1-.3.2-.3.3c0 .2.1 0 .4-.3l.2-.2zm10.1 0s0 .2-.2.3l-1.1 2c0 .3.3 0 .7-1l.6-1.2zm-7 .2a2 2 0 0 0-.8.2l-1.6.6-1 .4c.4 0 2.8-.7 3.3-1 .2-.1.2-.2 0-.2zm4.4.5h-.2c-.2 0-.3.2-.3.2 0 .2.4 0 .5-.1v-.1zm-.7.4-.4.1-.6.3c-.3.3.4 0 .7-.2l.3-.2zm-46 0v.2c0 .2 0 .3.2.2v-.3l-.1-.1zm-7.8.2c-.1 0-.2 0-.2.2s.1.3.2.3.2 0 .2-.2c0 0 0-.2-.2-.3zm-.6.8.5.8c.2.4.4.7.5.6l-.5-.8-.5-.6zm8.7.3v.8-.7c0-.1 0-.1 0 0zm47.6.2-.6.6c-.5 1-2 2.3-3 3l-1 .6c0 .2 2-1 2.8-1.9 1.1-1 2-2.3 1.8-2.3zm-45 0c-.1 0-.2 0-.3.2-.2.2-.2.2 0 .1l.5.1.3.2-.2-.3-.3-.3zm44.1.2-.3.2-.3.3c0 .2.2 0 .4-.2l.2-.3zm-6.9.5.2.1c.2 0 .3 0 .2-.1h-.4zm-1.8.4.2.1c.2 0 .3 0 .2-.1h-.4zm-34.2 0 .4.5.5.4-.4-.5zm-1.4 0v.8-.7zm34.8.2.1.1c.3 0 .4 0 .3-.1h-.4zm-44.7.2.4.7c.4.8.8.8.8 0 0-.5 0-.5-.1 0l-.1.5-.5-.6zm12.4.4.5.7.7.6-.6-.7zm-9 0v.4c0 .3.1.5.2.4v-.6c0-.1 0-.2-.1-.1zm4.5.6v.6-.5c0-.1 0-.1 0 0zm2.2 0 .6 2.3a34.7 34.7 0 0 0 3.8 7.2c.5.8 2.2 2 3.7 2.6 1 .4 1.5.6 1.5.4l-1.3-.6a10.4 10.4 0 0 1-5.5-5 26.8 26.8 0 0 1-2.7-6.8s0-.1 0 0zm-6.2 1.4c-.2.2.4 1.6.9 2.5l.5.8-.6-1.7-.8-1.6zm46.3.4h-.2c-3.5 1-4 1-7.7 1-2.3 0-3.4 0-2.9.2a28.8 28.8 0 0 0 10.8-1.2zm-12.3.1-.2.4.2.4.2-.4-.2-.4zm-19.6 1.8.5.9c.5.5.5.4 0-.3a3 3 0 0 0-.5-.6zm2.7 0c-.1 0-.1.1 0 .2l.7.2c.2 0 .1 0-.1-.2a2 2 0 0 0-.6-.1zm13 .5h.2c.4.1.5 0 .4 0h-.6zm-2.6 0h.7-.7zm4.3.2c-.2 0-.1.1.1.1h.3c0-.2-.3-.2-.4-.1zm-26.6.2v.4l.3.3-.1-.5-.2-.2zm40.3.1-.3.2-.3.4.4-.3.2-.3zm-21.5 0v.2c0 .1.3.4.7.6l.7.4.7.5.8.3c.3 0-.3-.3-1.6-1a6 6 0 0 1-1.3-1zm-22.2.2c-.1 0 .1.4.5.9.5.5.5.4 0-.3l-.5-.6zm10.9 0c-.1 0 0 .2 0 .4l.4.4-.1-.4-.3-.4zm22.1.1c-.2 0-.1.1.1.1h.3c0-.2-.2-.2-.4-.1zm8 0 .3.1c.2 0 .4 0 .2-.1h-.5zm-2 .2h.8-.8zm-4.4 0 .2.1c.3 0 .4 0 .3-.1h-.5zm-21 0a27 27 0 0 0 7.9 7c1.1.5 1.4.4.4 0a25.7 25.7 0 0 1-8.3-7zm-9.8.4.2.6.3.5s0-.4-.2-.7l-.3-.4zm11.1 0 .2.1h.2c0-.2-.2-.2-.4-.1zm-3.4.3c-.1 0 0 .3.3.7l.5.6-.8-1.3zm30.3.2-.4.2a14 14 0 0 1-3 2l-1 .6a8 8 0 0 0 3-1.6l1.1-.7c.2 0 .4-.2.4-.3l-.1-.2zm-40.4.4.6.5.7.5-.6-.6zm24.3.5c-.3 0-.3 0 0 .1.6.3.6.3.4 0 0 0-.3-.2-.4-.1zm.8.4c-.1.1 1.6.8 3.5 1.3l1.7.6h.7c.4 0 .3 0-.3-.2a42.6 42.6 0 0 1-5.6-1.7zm-3.7.6.3.2c.4.4.5.4.5.2l-.4-.3-.4-.1zm-9.7.2 1.6 1.7zm-7.6.5-.2.3v.3c.2 0 .2 0 .2-.3v-.3zm31.4.3a3 3 0 0 0-.6 0 5 5 0 0 0-1 .3c-.2.1 1.3 0 1.6-.2zm-2.9.4.2.1h.3-.5zm-7 .6c-.2 0-.1 0 0 .1.2.2.4.2.5.2.1 0 0 0 0-.2l-.6-.1zm-15.3.8s-.1 0 0 .2l.3.2c.1 0 .1-.1 0-.2 0-.2-.1-.2-.3-.2zm4.8.7.4.4.4.5c.2 0 0-.2-.4-.6zm15.2 0c-.1 0-.2 0-.2.2 0 .1 0 .3.2.3l.1-.2-.1-.3zm-3.4 1-.8.3c-.5.2 0 .2.7 0 .4-.2.4-.2.1-.2zm-13.7.1c-.5 0-.5 0 0 .2l1.2.1c.4 0 .4 0-.1-.1l-1.1-.2zm3.6.2v.1c.1.1 0 .3-.3.3s-.3.1.1.1c.6 0 .8-.2.4-.5h-.2zm5.9 0c-.3 0-.1.1.4.1h.6-1z" style="fill:#a67570;fill-opacity:1;stroke-width:1.66039"/>
            <path id="path1042" d="M251 322.3c-.4-.1-.7-.3-.6-.4l-.1-.1a19.3 19.3 0 0 1-4.9-5.1 19 19 0 0 1-2-3.4l-.5-.8-.7-.9c-.8-1-3.2-3.5-3.4-3.4v-.5c0-.4 0-.5.2-.3l1.6 1.4c1.7 1.5 2.5 2.5 4.2 5.3a25.7 25.7 0 0 0 7.6 8.3c.3.2-.7.2-1.5-.1zm11-1.5a19.3 19.3 0 0 1-4.4-2 20 20 0 0 1-2.5-1.5c-.4-.3-.8-.6-1-.6l-.2-.1a12.4 12.4 0 0 0-4.4-2.5c-.5-.3-1.2-.5-1.7-.6-.3 0-1-.6-1-.8a35.6 35.6 0 0 0 2.3.6c2.5.7 3.8 1.3 7 3.6 2.2 1.5 4.9 2.8 8.1 3.7 1.6.4 1.6.4 1 .7-.8.3-.9.3-3.2-.5zm-23-2.7a258 258 0 0 0-1.3-1.3l-.2-.6a25.7 25.7 0 0 1-2.3-8.3 28 28 0 0 0-1.3-6.5c-.3-.2-.9-2-.8-2.5.1-.5 1.8 3.2 2.3 5 .3.8.5 2 .6 2.9.2 3.2 1.4 7.2 2.8 9.9.8 1.7.9 1.9.2 1.4zm29.3-2.5a39 39 0 0 1-2.8-.5c-1.6-.4-2.8-.5-5.1-.5-4.8 0-4.8-.5 0-.8 2.2-.1 2.7 0 5.3.4a32.2 32.2 0 0 0 10.8.2l.8-.2.4-.1-.4.4c-.8 1-1.6 1-5 1.1h-4zm-1.7-3.8.5-.5.7-.4a21.4 21.4 0 0 1 6.5-2.7l3.8-1a29 29 0 0 0 7.3-3.8c.1.1-.8 1.7-1.1 1.8-.2.1-.3.3-.3.4 0 .2 0 .3-.2.2-.1 0-.8.2-1.5.6a29.8 29.8 0 0 1-7.2 2.5 17 17 0 0 0-7 2.6c-.6.4-1.5.6-1.5.3zm-37.3-2.7c0-.1-.1-.4-.4-.7-.4-.4-.4-.6-.3-2.6l.2-3.6c.3-1.9 1.2-5.3 1.4-5.6.4-.5 1-3.5 1-5.3 0-3 .4-3.4.5-.6.1 2.4-.2 4.8-.9 6.9-1 3.1-1.2 4.9-1.3 8.5l-.1 3.2c-.1 0-.2 0-.1-.2zm45-3.7.6-.9.8-1c.8-1.4 3-3.5 4.6-4.6 1.4-1 2-1.5 3.6-3.2a20 20 0 0 0 3.4-4l1-1.4v.9a6 6 0 0 1-1.4 2.6 14 14 0 0 1-2.6 2.9 21.3 21.3 0 0 1-4.3 3.4 22 22 0 0 0-4.1 4.2l-.2.4-.5.4c-.2.4-.8.6-.8.3zm-50.6-9.3c0-.7.2-1.8.5-2l.6-1.2 1-1.8.4-1 .4-.6c.2-.2.4-.4.4-.6 0-.2.1-.3.3-.2.2 0 .3 0 .2-.1 0-.2.4-.8 1-1.5 2.3-2.4 3.7-4.3 3.7-5 0-.2.1-.2.3-.2.1.1.1 0 0 0v-.5c.2 0 .4-.5.6-1 .4-.9.8-1.4 1.2-1.4v.4l-1.3 3a19.5 19.5 0 0 1-4.1 5.7 24 24 0 0 0-4.3 7.5c0 .4-.4 1.3-.6 1.3l-.3-.8zm55.4-.5c.3-2 1-4.3 1.9-6a31.8 31.8 0 0 0 4.5-12.5v.3l.1.2.4 1v.7c-.2 0-.3.2-.2.8l-.1 1.2-.5 1c-.6 2.1-1.6 4.4-2.7 6.2-.6 1-1.7 3.3-1.9 3.9a16 16 0 0 0-.7 2.6c-.2 1.2-.3 1.5-.6 1.5s-.3-.2-.2-.9zm.1-10.1a25.3 25.3 0 0 1-.6-3.6 20 20 0 0 1 .4-6.6 177.3 177.3 0 0 0 1.6-9l.4.7c.3.8 0 2.5-1.2 9a28.6 28.6 0 0 0-.4 7.2v.4c.4.8.6 2.3.5 2.7-.2.6-.4.4-.7-.8zm-55-3 .4-1s.8-.5 1.5-1.2l2-1.6.7-.5.2-.2.8-.4 2.3-1.5c2.4-1.5 4.2-3 4.2-3.6l.1-.3c.2 0 .7-.9 1.3-2 1-1.9 1.4-2.3 1.4-1.7 0 .5-1.9 4.1-2.6 5-1.3 1.6-1.7 2-5.8 4.6a36.9 36.9 0 0 0-6.3 4.8c-.1 0-.2 0-.1.1 0 .2 0 .3-.2.4-.2 0-.1-.3 0-1zm51.6-6.1-.2-.5-1.2-2.7-.5-2a16 16 0 0 1 .3-6.7l1.4-8.8.1-.5.3.6c.3.7.3 2.3 0 3.2l-.4 2.4c0 .9-.4 3-.7 4.8-.5 2.8-.6 3.2-.3 4.6.2 1.5.7 3 1.3 4.2.4.8.3 1.8 0 1.4zm-47.3-5 .3-.6.4-.5c0-.2.3-.4.5-.4s.4-.1.5-.3l1.1-.7 2-1.2c.4-.4 1.3-1 2-1.3a31.8 31.8 0 0 0 5.2-3.7c0-.2.2-.5.5-.7l.5-.6.1-.3c.2 0 1-1.5 1-1.8 0 0 0-.3.3-.6l.4-.8c0-.3.5-.7.7-.5 0 0 0 .5-.3 1-.9 2-1.3 2.7-1.5 2.6-.1 0-.1 0 0 .1l-.3 1c-1.1 1.7-2.8 3-8.9 6.8a74 74 0 0 0-4.1 2.6c-.5.4-.5.4-.4-.1zm41.7-7.6c-.4-1-1-2.3-1-2.8a22 22 0 0 1 .2-8l1-5.9c.4-2.3.5-2.6.7-2 .5 1 .5 1.4.2 2.6l-1 5.4c-.7 5-.7 7.8 0 9.2.3.4.4.9.3 1l.2.4c.4.4.7 2 .4 2l-1-1.9zm-37-3c0-.2.8-1.3 1-1.4a28 28 0 0 0 3.8-2.5l2.2-1.4 2.2-1.4a11.2 11.2 0 0 0 3.7-3.3l.5-.6.6-1.2.8-1.5c.1-.6.9-1.2.9-.8l-1 2.5c-1.8 3.5-2.6 4.2-10.2 9a820.9 820.9 0 0 0-4.5 2.7zm32.9-6v-.8c-.2 0-.5-.5-.8-1.1-1.6-3.8-1.7-4.5-.4-12a61.1 61.1 0 0 1 1.2-7c.5.6.6 1.5.2 3.6a458.4 458.4 0 0 0-1.3 8c-.5 2.1 0 5.3 1 7.5.6 1 .7 2.1.4 2.1-.1 0-.3-.2-.3-.4zm-28-5s.2-.2.4-.1c0 0 .1 0 0-.2-.1-.3.3-1 .6-.9.2.1.2 0 .1-.2v-.2l2.3-1.2a19.1 19.1 0 0 1 2.8-1.7l1.8-1.3a107.7 107.7 0 0 0 4-3l1-1 .6-1 .4-1 .6-1c.4-1 .7-1.3 1-1l-1.6 3.5c-.7 1.5-2.7 3.6-4.7 4.8l-4 2.6c-5.5 3.5-5.5 3.5-5.3 3zm2.3-4.2c0-.2.2-.3.2-.2l-.1.3c-.2.2-.2.2-.1 0zm20.6-2.3-.9-2a13 13 0 0 1-.9-6.2c.2-1.8 0-3.4-.8-9 0-.2 0-.5.2-.6.3-.2.8.1.9.5l.6 5a12 12 0 0 1 0 4.3c-.4 1.5.2 5.3 1.2 7 .5.9.6 1.8.2 1.8l-.5-.8zm-17.9-4.5.5-.8 3.9-2.5c1.3-.7 4-2.6 4-2.8l1.3-1.5c.7-.7 1.5-1.6 1.6-2l.5-.5c.1 0 .2 0 .3-.3 0-.8.5-.7.5.1 0 .4 0 .9-.2 1l-1.8 2.2a14 14 0 0 1-2.3 2.4 491.3 491.3 0 0 0-8.4 5.2l.1-.5zm13-6.7-.2-.8v-.8l.3.7c.2.7.1 1.2-.1 1zm-1.2-16.2c-.3-.3-.5-.7-.4-.8 0-.1 0-.1-.1 0-.2.1-2.5-2-2.5-2.4l.3-.1.4-.3c0-.3.3-.2 1.1.6a56.6 56.6 0 0 1 2.3 2c.1-.1.1 0 0 0 0 .2-.2.3-.4.3-.1 0-.3 0-.3.2h-.3c-.3 0-.3 0-.1.2.1.2.3.3.4.3 0 0 .2 0 .2.3 0 .5 0 .5-.6-.3zm0-1.1c0-.1 0-.2-.2-.2-.1 0-.2 0 0 .2l.1.2.1-.2zm-.7-.4c.2-.4 0-.5-.3-.1-.1.2-.2.3 0 .3l.3-.2zm-.7-.4c0-.2-.6-.8-.8-.8 0 0 0 .2.3.5.5.5.5.6.5.3zm-.5-1.3h-.5c-.2.2-.2.3.2.3s.4 0 .3-.3zm-7.8 1c.2-.1.4-.1.4 0h-.4zm1.3 0h1.5-1.5zm6.9-2.6c.6-1 .9-1.2.5-.6v.8c-.2 0-.4 0-.6.2-.3.3-.3.1.1-.4zm5.3-2.1c-.7-.8-.7-.8 0-.8 1 0 1.3.2 1.2.7-.1.2-.2.2-.6 0-.2 0-.4-.2-.4-.3 0-.1-.1-.2-.3-.2-.3 0-.3 0 0 .2l.7 1-.6-.6zm-3.3-1.4.3-1c.5-.6.8-.9.6-.4l.1.3c.2 0 .3-.1.2-.2 0-.1 0-.1.1 0 .2.2.2.3 0 .6-.2.1-.4.4-.4.6 0 .3-.7.4-.9 0zm-1.1-1.8c.3-.1.3-.4-.1-.5-.2 0-.6-.2-.8-.5l-.3-.5.8.6c.8.5 1 1 .5 1h-.1zm5.6-.3a10 10 0 0 1-2.1-1 33 33 0 0 1-4.3-4.4c.1 0 .2 0 .2-.2 0-.1-.1-.2-.3 0-.2 0-.3 0-.2-.2 0-.1.3-.1.4 0 .3 0 .3 0 .2-.4l.1-.7c.2-.3.2-.3.1 0a23.5 23.5 0 0 0 4.2 4.5l1 .6a7 7 0 0 0 4 1.3c1.7 0 2.1.1 1.5.5-.3.1-.7.2-1 .1-.4 0-.4 0-.2.1.7.5-2.2.3-3.6-.2zm1-.1a4 4 0 0 0-1-.3l-.7-.1.6.3c.7.3 1.7.4 1.1 0zm.6-.4h-.4c-.2 0-.1.1.1.1h.3zm-2.4-.2c0-.2 0-.3-.2-.3v.3l.1.2.1-.2zm1-.1s-.1-.2-.3-.2c-.2-.1-.2 0-.2 0 .2.2.5.3.5.2zm-2.1-1.2c-.2-.2-.3-.2-.2.1l.3.3-.1-.4zm-1-.3c0-.1-.2-.3-.4-.3-.2-.1-.3-.3-.2-.4 0-.2 0-.5-.2-.7-.3-.3-.3-.3-.2 0 .2.5-.1.4-.6 0-.3-.4-.3-.5 0-.5s.4 0 .1-.2c-.2-.2-.2-.2-.3 0 0 .1-.2.2-.3.1-.3-.2-.3-.2.8 1.1 1 1 1.2 1.2 1.2.9zm-2.5-3c-.3-.4-.3-.4-.4-.1-.2.4 0 .6.3.5.2 0 .3-.2 0-.5zm-3.6 2.5c-.2 0-.2-.2 0-.2l.3.2c.2.3 0 .3-.3 0zm11.5 0c0-.2 0-.3.2-.2v.3c-.1.2-.2.2-.2-.1zm-12.3-.3h.3l-.2.1h-.1zm-4.3-.3h1.3l2 .2c.1.1-2.7 0-3.3-.2zm9.5-5.9c0-.2.1-.2.2-.2s.2.2.1.3c-.2.3-.3.3-.3 0zm-1-.4c0-.3.1-.4.2-.2v.6c-.1.1-.1 0-.1-.4zm-1-3.2-.4-.5h.7l1 .2c.1.1.1.2 0 .2-.2 0-.3.1-.3.3 0 .5-.6.4-1-.2zm-2.2-1.5c-.2-.1-.2-.2 0-.2 0 0 .2 0 .3.2.2.3 0 .3-.3 0zm.2-1.5.4-.3c.3-.3.3-.3 0 0-.2.4-.4.5-.4.3zm2.6-1.7c-.3-.3-.3-.4-.1-.4.2 0 .4.2.5.4.3.5.2.5-.4 0zm11-13.5s.1-.2.3-.2c0 0 .1.1 0 .2 0 .2-.1.2-.2.2v-.2zm-13.3-.3v-2.3c0-3 .4-4.4 2.5-7.5a208.6 208.6 0 0 0 4.3-6.1l1.4-2 .1.7c0 .5 0 .9-.6 1.6a49.7 49.7 0 0 0-2 2.9 74.7 74.7 0 0 1-4.3 6.4c0 .3-.2.6-.3.7a12 12 0 0 0-.6 4c0 1.5-.2 2.3-.5 1.6zm3.4 0a162.1 162.1 0 0 1 4.5-6.3l.4-.6v.7c0 .6-.2 1.1-.8 2l-1 1.3-.2.3-.4.7-.4.6c0 .2 0 .2-.2.2l-.2.3c0 .5-.7 1.1-1.3 1.1-.3 0-.5 0-.4-.2zm6.6-4.3c0-.3 0-.5.2-.6a256.3 256.3 0 0 1 6.8-4c.7-.5.7-.4 0 .8-.3.5-.6.8-.7.7l-.5.1-1.1.7-2.5 1.5-.8.4-.7.4-.5.4zm-1.3-5.1c.2-.3.4-.4.5-.4v-.1c0-.3 1-1.7 1.9-2.5l1.3-.8c1.4-.5 2.2-1 2.8-1.3a201.3 201.3 0 0 0 6-3.4c.7-.4.9-.2.6.4-.2.3-.7.7-3.2 2a42.5 42.5 0 0 0-3.6 2.1l-1 .4c-1 .1-3.3 1.8-4.2 3-.3.6-.7.9-.7.7 0-.2 0-.2-.3 0-.3.3-.3.3 0-.1zm-8.8-3.7c0-2.1 0-2.6.5-4a18.6 18.6 0 0 1 3-5.1 5817.2 5817.2 0 0 1 4.7-6.7c.2-.3.2-.2.2.5s0 1-.5 1.6a34.8 34.8 0 0 0-3.1 4.4l-1 1.2c-2.5 3.7-3 4.9-3.1 7.7 0 1-.3 2.1-.4 2.4-.2.4-.3.2-.3-2zm12.2-2.8a12.3 12.3 0 0 1 4.2-6.3 96.7 96.7 0 0 1 9.6-5c.2 0 .1.4-.1.7l-.6.7-1.3.6a122.6 122.6 0 0 1-6.8 3.7l-.6.4c-.3 0-3.1 3-3.2 3.4 0 .4-.3 1.1-.5 1.6-.2.3-.7.5-.7.2zm-12.2-8.4c0-2.6.2-3.6 1.2-5.5.5-1 1-1.8 5.3-7.8l1.8-2.6.1.7c0 .6 0 .9-.3 1-.2.2-.2.4-.2.5.1.1 0 .2 0 .2l-1.2 1.4-1 1.4c-.2 0-.3.3-.4.6-.2.6-.4.8-1 1.6-.4.4-2.4 3.5-2.9 4.2-.3.7-.8 3.3-.8 4.9 0 .8 0 1.4-.2 1.5-.3.2-.3-.2-.4-2zm3.1-2.4c0-.2.2-.2.2-.2l.1.2s0 .2-.2.2c-.1 0-.2-.1 0-.2zm22.6-2.9c0-.2 0-.3.1-.2v.5-.3zm-1.7-2c.2-.1.3-.2.4-.1l-.3.2c-.2.1-.3.1 0 0zm-17.4-.2.2-.2c.2 0 .2.1.1.2l-.2.2v-.2zm-6.6-3.3.2-3.3a16 16 0 0 1 2.6-5.1 97.5 97.5 0 0 0 4.7-6.8l.9-1.1c.2 0 0 1.6-.4 2a9 9 0 0 0-1.2 1.8c-.5.7-1 1.5-1.3 1.7l-1.2 1.7-.7 1-1.9 2.9c-.6 1-.9 2.3-1 4.6l-.4 2.5c-.2.3-.3 0-.3-1.9zm0-11.5a9 9 0 0 1 .5-3.8c.8-2.2 1-2.4 1.6-2.4h.6l-.4.5a8 8 0 0 0-1.4 3.2c-.2.8-.3 2-.3 2.8 0 1 0 1.5-.3 1.8-.3.4-.3.1-.3-2.1z" style="fill:#e4b38f;fill-opacity:1;stroke-width:1.66039"/>
            <path id="path1041" d="M259.8 322.2h-1a4 4 0 0 1-2-.5 24 24 0 0 1-9.5-8.5l.6.3c.5 0 1.2.3 1.7.6l.7.2c.5 0 3.5 1.9 3.7 2.3l.3.1 1 .6a34.4 34.4 0 0 0 7.5 3.8l1.8.5-1.3.3c-2 .4-3.5.5-3.5.3zm-10-7.2h-.4c-.2 0-.1.1 0 .1h.4zm-.6 7-1.2-.4a10.3 10.3 0 0 1-6.4-5.3 26.8 26.8 0 0 1-2.3-5.6l-.1-.3-.3-1v-1c0-.3.3-.1 1.5 1.1a37.3 37.3 0 0 1 2.6 3c.4.4.8 1.5.7 1.7.1 0 .5.4.8 1l1 1.5.7.8a20 20 0 0 0 4.3 4.5c-.1.2-.4.2-1.3 0zm-2.7-1.6c0-.2-.2-.2-.3-.2-.1 0-.2 0-.1.2l.3.2c.1 0 .2-.1.1-.2zm4.5.8c-.3-.3-.3-.3 0 0 .3 0 .4.2.4.3l-.4-.3zm14.6 0c.3-.2.3-.2 0-.3-.3-.1-.3-.1 0 0 .4 0 .4.3 0 .4-.2 0-.2 0 0-.1zm-16.8-2-1.1-1.2 1.2 1.1c1 1 1.2 1.3 1 1.3l-1.1-1.2zm11-.3c-.1 0 0-.1.1 0 .4.1.4.2.2.2-.1 0-.3 0-.4-.2zm6.8-.4a42.6 42.6 0 0 1-7.8-3c-1.2-.7-1.2-.8-.7-.9 1-.2 5.4 0 7.6.5 1.8.4 2.6.5 6 .5a20 20 0 0 0 4.9-.3l-.3.2-.5.2a11.1 11.1 0 0 1-5 2.8c-1.6.3-3 .3-4.2 0zm-29-1.4c-2.5-1.8-3.5-2.9-4.3-4.7-.3-.9-.7-1.6-.8-1.7a44.9 44.9 0 0 1 .4-10.7l.1-1.2.4 1.2.5 1.4c.2 0 .3.4.3.6l.1.6.2.4.3 1.4c.2.5.4 2.1.6 3.5a20.4 20.4 0 0 0 .7 4 25.7 25.7 0 0 0 1.7 4.9c0 .2.3.5 1.3 1.2l.6.5-2.1-1.4zm1.8.6-.1-.4.3.4c0 .3.1.4 0 .4l-.2-.4zm7.8-.3c-.3-.3-.3-.3 0 0 .2 0 .4.2.4.3 0 .1-.2 0-.4-.3zm8-1.3-.5-.5.5.4.4.5-.5-.4zm22.1-1.5.6-.5s-.1.3-.4.5l-.6.5.4-.5zm-6.7.2h2.1-2zm-18-.3c-.1 0 0-.1.1 0 .4 0 .4.2.1.2 0 0-.2 0-.3-.2zm15.5 0 .6.1h-.6zm6.5.1h.5l-.2.1c-.3 0-.4 0-.3-.1zm-15.2-.8h.4l-.3.1c-.2 0-.3 0 0-.1zm4.4 0h.4l-.3.1c-.2 0-.2 0 0-.1zm-2.4-.2h.8-.8zm6.6-1.5-.8-.1 1-.5a17 17 0 0 1 7-2.6 21.1 21.1 0 0 0 7.2-2.5c.7-.4 1.4-.7 1.5-.6.1 0 .2 0 .2-.2l.3-.4c.2 0 .2.2-.1.8a8.4 8.4 0 0 1-1.3 1.8c-2.2 3-5.2 4.2-11 4.4h-4zm14.8-4.7c.2-.4.2-.4-.1-.1l-.4.3c0 .2.2 0 .5-.2zm-40 3.5c-.4-.4-.6-.8-.5-.8l.7.8.5.8s-.4-.3-.7-.8zm-6.2-.5c0-.2 0-.3.1-.1v.4l-.1-.3zm32.7-.4.6-.4.6-.2-.6.4-.6.2zm-28-.6-.4-.6.5.5c.5.5.7.6.5.6l-.5-.5zm-4.9 0c0-.4 0-.5.1-.3v.5l-.1-.3zm-7.5-.8c-.2-.4-.2-.4 0-.1.4.2.5.4.4.4l-.4-.3zm7.3-.4c0-.3 0-.4.1-.2v.6l-.1-.4zm-6.6-1.8v-1 2.2-1.2zm10 1.5-.3-.5.4.4.5.4c0 .2-.2 0-.5-.3zm35.3 0h.3c.1.2 0 .2-.2.2-.3 0-.3 0-.1-.1zm-36.3-.4c0-.3 0-.4.1-.2v.5l-.1-.3zm-10.6-.7a11 11 0 0 1-1.8-6.6c.2-2 2.2-7.3 2.8-7.3l.1-.4a9 9 0 0 1 2-2.9c.6 0-.2 6-.8 7.1l-.6 1.7c-.1.7-.3 1.3-.4 1.3v.4l-.3 2c-.2.8-.3 2.4-.3 3.5l-.2 2-.5-.8zm.3-.9s0-.2-.2-.3c0 0-.2 0-.2.2s.1.3.2.3.2 0 .2-.2zm50.6 1 .4-.3c.2 0 .4 0 .3.1-.1.2-.7.3-.7.1zm-43-.7c0-.2.1-.3.2-.1v.3l-.1-.2zm38.4-.7c0-.1 0-.2.2-.1l.2.2-.2.1c-.1 0-.2 0-.2-.2zm7.6 0c.1-.2.3-.2.3-.2 0 .1 0 .2-.2.3-.3.1-.3 0-.1-.1zm-6.6-.4c.2-.2.4-.4.5-.3l.2-.4.1-.3a22 22 0 0 1 4-4c.4 0 3.1-2.2 4.3-3.4l1.3-1.3 1.4-1.7 1.3-1.7-.2 1.3a10.3 10.3 0 0 1-2.7 6.5c.1 0 .2-.1.2 0l-1 .7-1 .8a32.4 32.4 0 0 1-7.3 3.8c-1.4.5-1.4.5-1 0zm9.6-.6.2-.3c.1 0 .2 0 .1.2-.1.3-.3.4-.3.1zm-49.3-.5c0-.3 0-.3.1-.1v.3l-.1-.2zm39.5.2.4-.3c.3-.3.3-.3 0 0-.2.4-.4.5-.4.3zm9.7-.5.5-.4s0 .2-.3.4l-.4.4.2-.4zm-8.2-1.5.8-1c.2 0-1 1.7-1.4 1.8l.6-.8zm-46.8.3v-.3.5-.2zm.2-1.3v-.2c.1.2.1.4 0 .4v-.2zm48.2-.7.5-.4s0 .2-.3.4l-.5.4.3-.4zm-47.8-1.1v-.2c.1.2.1.4 0 .4v-.2zm-6.5-2.3.2-.2c.2 0 .2 0 .1.2l-.2.2v-.2zm59.8-1.1a10 10 0 0 1 1.2-1.1l-1 1a10 10 0 0 1-1.2 1.2l1-1.1zm-4.6.5h.4c0 .1 0 .2-.3.2-.2 0-.3-.1-.1-.2zm1-1.5c.4-2.5 1-3.7 2.5-6.5a31.5 31.5 0 0 0 3.3-8.4v-.9c.2 0 .2-.1.3-.3 0-.6.7 1.7.7 2.4l.2.6c.3.2.3 3.5 0 4.6a18.8 18.8 0 0 1-2.4 4.4c-.2.4-.5.7-.6.6a16.4 16.4 0 0 1-3.8 4.3l-.5.5zm6-7.6c0-.2-.1-.1-.1.1v.3c.1 0 .1-.3 0-.4zm-62.5 7c-.2-1-.1-3.4.2-4.7.6-2.3 1.2-3.3 3.6-5.7 1.9-1.8 3-2.6 3.2-2.4h.1c-.1-.2.3-.8.5-.8l1-.6 1.1-.6c.2 0 .3-.1.3-.2v-.1c.2 0-.7 2-1 2.1v.4c.2.2.1.2 0 .1-.2 0-.2 0-.2.2 0 .7-1.5 2.6-3.7 5-.6.7-1.1 1.3-1 1.5 0 .1-.1.2-.3.1-.1 0-.3 0-.3.2 0 .1-.1.4-.4.6l-.4.7-.4 1c-.3.3-.7 1-1 1.7l-.6 1.2-.3.6-.2.5zm1.3.6.2-.5c.1-.2.2-.2.2-.1 0 0 0 .3-.2.5 0 .1-.2.2-.2 0zm6.9-1.3v-.4.7-.3zm-6.2-.3c.1-.2.2-.3.3-.2l-.1.3c-.2.2-.3.2-.2-.1zm60.6-.3c.2-.3.4-.4.5-.4l-.3.4-.4.4.2-.4zm-6.5-.6c0-.2 0-.2.2 0v.3c-.1 0-.2 0-.2-.3zm-53.5-.3.3-.3-.1.4c-.2.2-.3.2-.2-.1zm.5-1 .3-.4v.5l-.4.4.1-.4zm5.1-.8v-.5 1.1-.6zm48.3 1 .2-.6c.1-.1.2-.2.2 0 0 0 0 .3-.2.5 0 .1-.2.2-.2 0zm8.3-.5v-.2.6-.4zm-.7 0 .4-.5-.2.4c0 .3-.2.5-.3.5l.1-.5zm-56.2-2c0-.2.2-.3.3-.3l.1.2c0 .1 0 .2-.2.2s-.3-.1-.2-.2zm50-.5.3-.4v.4l-.4.4.1-.4zm-52.8 0 .4-.4c.3-.2.3-.2 0 0-.2.4-.4.5-.4.4zm51.1-1.9.3-.5a17.4 17.4 0 0 0-.6-2.8l-.1-.8c-.2-.7 0-4.3.5-6.4a334 334 0 0 0 1.3-7.6l.2-.7.6 1.2c.6 1.5 1.1 3.8 1.1 5.5a49 49 0 0 1-2.2 10l-.4 1c-.4 1.1-.6 1.4-.8 1.4l.1-.3zm2.5-16.2c0-.2 0-.3-.2-.3v.3l.1.3.1-.3zm-51.7 16 .5-.5s0 .2-.3.4l-.4.4.2-.4zm52.6-1.1.3-.3-.1.4c-.2.2-.3.2-.2-.1zm.8-2c0-.3.2-.6.3-.5 0 0-.3 1.1-.5 1.1l.2-.6zm-60 .4 1.3-1.3 1.3-1.2-1.2 1.3a5 5 0 0 1-1.4 1.2s-.1 0 0 0zm54.7-.4c0-.3 0-.4.1-.2v.5-.3zm-.2-1.3c0-.3.1-.4.1-.2v.6-.4zm-53.8-.4c-.3-.2-.2-.5 0-.4.1 0 .2 0 .1-.1l.5-1.8a9 9 0 0 1 3.7-4.5l.5-.5.3-.2.6-.3.8-.5 1-.6.6-.5a47.3 47.3 0 0 0 5.8-3.7c.4-.2-1.5 3.3-2 3.7l-.2.4c0 .6-3.5 3.4-3.9 3.2-.1-.1-.2 0-.1 0a7109.8 7109.8 0 0 0-4.1 3c-.7.3-1.2.7-2.7 2.2-.4.4-.9.7-1 .6zm3.8-4.2c.2-.2.2-.3.1-.3l-.4.3c-.2.2-.2.3-.1.3l.4-.3zm7-6.1-.1-.2c-.1 0-.2 0-.2.2v.2l.3-.2zm-8.6 9.7.4-.3c.3-.3.3-.3 0 0-.2.4-.4.5-.4.3zm1-.8.4-.3c.3-.3.3-.3 0 0-.2.4-.4.5-.4.3zm57-.5c0-.3.1-.4.2-.2v.5l-.1-.3zm-50.8-.6c.1-.2.3-.2.4-.2 0 .1 0 .2-.3.3-.3.1-.3 0-.1-.1zm44.4-.7c0-.3.1-.4.1-.2v.6-.4zm6.7 0v-.3.5-.3zm-53.5-.8.4-.3.5-.1-.5.3-.4.1zm44.6-1.6-.7-2a11.6 11.6 0 0 1-.6-7.7 87 87 0 0 0 1-7.2 212.6 212.6 0 0 0 .6-1.9l.6 1.4.7 2a21 21 0 0 1 0 7 260 260 0 0 0-1.6 8.4zm.5-8v.4s.1-.2 0-.4zm-41.6 7.2.5-.5s0 .2-.3.5l-.6.5.4-.5zm44-.7v-.3.5-.2zm-43.2 0 .3-.4c.3-.3.3-.3 0 0-.2.4-.3.5-.3.3zm43.3-1c0-.3 0-.4.1-.3v.5-.2zm-4.9-.2c-.1-.2 0-.3.1 0 .2 0 .2.2.2.3-.1 0-.2 0-.3-.3zm-37-.8c0-.1 0-.2.2-.3 0 0 .1 0 0 .2 0 .3-.2.4-.2.1zm-8-1.1.4-.3s0 .2-.3.4c-.4.2-.4.2-.1-.1zm50.3-.3c0-.3 0-.4.1-.3v.5-.2zm-50.9-.4.3-.2v.2s0 .2-.2.2c0 0-.1-.1 0-.2zm45-.1v-.2.4s-.1 0 0-.2zm-42.9-.2.4-.3.4-.1s-.1.2-.4.3c-.2.1-.4.1-.4 0zm-.8-2a11.1 11.1 0 0 1 3.9-4.4c.1 0 .2 0 0-.1 0-.1 0-.3.3-.4l.9-.5a162.4 162.4 0 0 1 7.7-4.9c.6-.4.6 0 .1.7l-.4.7c0 .4-.7 1.7-.8 1.7-.1 0-.2.1-.2.3 0 0-.2.4-.5.6-.3.2-.5.5-.5.7 0 .1-.2.3-.6.3-.3 0-.4 0-.3.1.2.1.1.3-.2.5a49.2 49.2 0 0 1-6.1 4l-2 1.3c-.6.3-1 .6-1.1.8-.1.2-.2.2-.4.2l-.5.1c-.2.1.1-.6.7-1.6zm49.8 1.4c0-.3 0-.3.2-.2v.4c-.1 0-.2 0-.2-.2zm-47.8-.2.4-.2h.2c-.2.3-.6.4-.6.2zm7-1c.1-.3.1-.3.2-.2v.4l-.1-.2zm34.6-1.2c0-.4 0-.5.1-.3v.6-.3zm6.6 0c0-.3 0-.3.2-.2v.4c-.1 0-.2 0-.2-.2zm.2-1.1c0-.2.1-.2.2-.1l.2.2h-.2l-.2-.1zm-9.2-.4c.3-.2.1-1.6-.4-2.1l-.2-.5c.1 0 0-.4-.3-.9-.3-.6-.4-1.3-.5-2.7a18.4 18.4 0 0 1 .7-6.1c-.2-.4.4-4 .8-5.9l.3-1.3.4.8.4 1 .1.2c.3.2.7 1.8.8 3.4a52.8 52.8 0 0 1-1.7 12.5c0 1.2-.2 1.7-.4 1.7-.3 0-.3 0 0-.1zm0-6.3c-.1-.2-.2-.1-.2.1s0 .4.1.3v-.4zm-1 4.8v-.3s.2 0 .3.2c0 .4 0 .5-.2.1zm-.4-1c-.3-.8-.3-1 .1-.3.2.3.3.6.2.7l-.3-.5zm4.4.1c0-.2 0-.2.1 0v.3-.3zm-33.5 0 .3-.3c.3-.2.4-.2.1.1l-.4.3zm34-2.2v-.2.6-.4zm-32.2-.3.3-.4-.1.4-.3.4v-.4zm-9 0c.2-.3.4-.4.4-.3.1 0 0 .2-.3.3-.4.3-.4.3-.1 0zm-.1-.6c0-.2.2-.3.2-.3l-.1.4c-.2.2-.2.2-.1-.1zm.9.2.3-.4c.3-.2.3-.2 0 0l-.3.4zm34.5-.7c0-.2 0-.3.1-.1v.4l-.1-.3zm-34.1-2c.6-1.1 1.2-2.2 1.5-2.5l1.2-1.2c.4-.5.8-.7 1-.7 0 .1.1.1 0 0-.1-.2.7-.9 2-1.6a107 107 0 0 0 7.5-4.8c.4-.4.4-.4.1.3 0 .4-.5 1.2-.8 1.7l-.6 1.2-.9 1.1-1 1.2a16 16 0 0 1-2.3 1.6l-2.1 1.4a20 20 0 0 1-2.8 1.7 33 33 0 0 1-3.2 2.1l-.6.4zm40.3 1.1c0-.2 0-.4.1-.2v.5-.3zm-38-.2.5-.4c.2 0 .4-.1.4 0l-.4.2-.4.2zm38.2-1c0-.3 0-.4.1-.2v.4-.3zm.2-1.3c0-.2 0-.3.1-.1.1.1 0 .3 0 .4v-.3zm-32.8-1.3c.1-.2.9-.7.9-.5l-.5.4c-.3.2-.5.3-.4.1zm24-.6c0-.3-.2-1-.5-1.5a12.5 12.5 0 0 1-1-7.5l.5-3.1a36 36 0 0 1 1.2-7l.2.4.3.8c.2.2.3.5.2.5v.3c.2.1.3.4.2.6v.2c.2 0 .4.6.6 1.4.4 1.8.3 2.8-.3 6.7a357.7 357.7 0 0 0-1.4 8.2zm.8-13.8-.1-.2s-.2 0-.2.2c-.1 0 0 .2 0 .2.2 0 .3-.1.3-.2zm-23.7 13.7.3-.3c.4-.3.4-.2.1 0-.2.4-.4.5-.4.3zm1.4-1.2.8-.7-.6.7-.8.7.6-.7zm20-.5v-.3l.1.2c.2.4 0 .4-.1.1zm4.3-.2c0-.3 0-.4.1-.2v.5-.3zm.6-3.6c0-.3 0-.4.1-.2v.5-.3zm-31.5.2a15.4 15.4 0 0 1 2.2-3.7c0-.1-.1 0-.2 0-.1.3-.2.3-.2.2 0-.2.8-1.3 1.7-2.2.4-.5 1.5-1.3 3.7-2.6l2.3-1.6c.5-.3 1-.5 1.2-.4.2 0 .3 0 .2-.2 0-.2.4-.5 1.5-1.1a21.4 21.4 0 0 0 2-1.4c.4-.2 0 .5-.8 2l-.4.9-.6 1-1 1a107.7 107.7 0 0 1-11 7.1l.1.3c.1.2 0 .3 0 .2-.2 0-.4 0-.5.2l-.2.3zm6.4-7c.2-.1.2-.2.2-.3 0 0-.3 0-.5.2-.4.3-.2.4.3 0zm3.2 6.5.2-.5c.1-.2.2-.2.2-.1s0 .3-.2.5c-.1.2-.2.2-.2.1zm22.1-.7c0-.3 0-.4.1-.3v.6-.3zm.2-1.1c0-.3 0-.3.1-.1v.3l-.1-.2zm-26-.6.5-.3.4-.1-.4.3-.4.1zm26.7-1.1v-.3l.2.2c0 .3 0 .4-.2 0zm-7-.7c0-.3.1-.3.2-.1v.3l-.1-.2zm-2.8-.3c-.1-.1 0-.2.1 0 .4 0 .5.2.2.2l-.3-.2zm.5-.5c0-.3-.3-.9-.5-1.3-1-1.7-1.6-5.5-1.2-7 .3-1 .3-2.6 0-4.4l-.4-3c-.2-2.2-.2-2.1-.5-2.3 0-.1 0-.2.2-.1l1.5.1h1.2l.3 1 .5 1.8c.8 3.5.8 3.7.6 5a232.6 232.6 0 0 1-1.7 10.2zm-1-14c0-.2-.1-.3-.3-.3 0 .1-.1.2 0 .4s.2.2.2-.2zm1.3-2.6c0-.2-.1-.1-.1.1v.3c.1 0 .1-.3 0-.4zm-12 15.3 1.2-1.2-1 1.2-1.4 1.2 1.1-1.2zm10.5.6v-.3s.2 0 .2.2c.2.3 0 .4-.2 0zm4-1c0-.3 0-.4.1-.3v.5l-.1-.2zm.2-1.2c0-.3 0-.4.1-.3v.5l-.1-.2zm.2-1.3c0-.3 0-.3.1-.2v.4l-.1-.2zm-22.1 0 .3-.2h.2c-.1.3-.5.4-.5.2zm16.3-1v-.2c.1.2.1.3 0 .4v-.2zm6 0c0-.3 0-.3.1-.2v.4l-.1-.2zm-21.5-.8.9-1.8.7-1.3c.2-.1.4-.4.4-.6 0-.2.2-.3.6-.3.1 0 .1 0 0-.2 0-.2.3-.5.6-.9.7-.6 1.3-1.2 3-3.3a101.8 101.8 0 0 1 2.8-3.2c.6-1 1-1.2 1.3-1 .2.2.3.4.2.5h.3c.2 0 .3.1.3.3l.1.2c.1 0 .2 0 .3-.2.1-.5.3 0 .5 1 0 .7 0 1-.2 1-.2.2-.4.4-.4.7 0 .2 0 .3-.2.2 0 0-.3.2-.5.6-.1.3-.9 1.2-1.6 2-.7.6-1.3 1.3-1.3 1.4 0 .2-2.7 2.1-4 2.8a38 38 0 0 0-3.8 2.4l-.5.5zm7.6-5.2s-.1-.2-.3-.2l-.3.2c0 .2.2.2.3.2.2 0 .3 0 .3-.2zm-1-2.6s0-.2-.2-.2l-.2.2.1.2.2-.2zm4.4-3.1-.1.3v.4-.7zm-8 10.4c.7-.5 1-.7.6-.3a2 2 0 0 1-.7.5l.1-.2zm18.7-.2c0-.2 0-.2.1 0v.3l-.1-.3zm.2-1.2c0-.2 0-.2.1 0v.3l-.1-.3zm-14.9-1.1.4-.3.4-.2-.4.4c-.2 0-.4.1-.4 0zm2-1.6.4-.4s0 .2-.3.4l-.4.5.2-.5zm6.5-.4v-.2.5-.3zm-5.2-1.2.9-1-1.4 1.8c-.2 0 0-.3.5-.8zm2.1-.3c0-.2.1-.3.2-.1v.4c-.1 0-.2 0-.2-.3zm2.9 0v-.3.5-.3zm-3.3-.2.2-.6c.3-.1.3 0 0 .6-.1.4-.1.4-.2 0zm-.5-1.1.4-.4.1-.7c0-1 .2-.8.3.4v.7c-.2-.2-.3-.2-.6 0-.2.3-.3.2-.2 0zm3.6-.2v-.2.5-.3zm-.2-1.6v-.2.5-.3zm-.2-1.5v-.1c.1.1.1.3 0 .4v-.3zm-10.3-1.2h.4l-.3.1c-.2 0-.3 0-.1-.1zm6-10-.7-.8.8.7c.7.6.8.8.7.8l-.8-.8zm1.2-.9a41.3 41.3 0 0 0-2.4-2.4c0-.3.8-.8 1-.7 0 .1 0 0 0 0-.2-.3.2-1.5.5-1.5v-.3c0-.3 0-.3.2-.2.2 0 .3.2.2.2 0 0 .2.3.6.5.9.5 2.1 1.6 2.1 2 0 0 0 .1-.2 0 0 0-.2.1-.2.4 0 .2 0 .4-.2.4-.4 0-.6.5-.3.7.2 0 .2 0 0 0s-.3.2-.3.4 0 .6-.2.8c-.3.3-.3.3-.8-.3zm-10.2-.5 2.2-.2c1 0 1.9 0 1.7.1-.2.2-4 .2-3.9 0zm10.8-6c-.2-.1-.2-.1 0-.1.3 0 .4 0 .4.2s0 .2-.4 0zm6.6-1.8h-1 2.1l-.1.2-1-.2zm-1.8-.3h.4l-.3.1c-.2 0-.2 0 0 0zm-7.2-1.2-.5-.6c.2 0 .5.2.8.5.8.8.6.8-.3 0zm11.2.4h-1.4c-1.5 0-3-.5-4.1-1.2l-1-.7-2.2-2c-1.9-2-2-2.2-1.9-2.6.1-.3.3-1 .3-1.7l.3-1.3c.1-.3 1.8 1 1.7 1.2 0 .1 0 .2.2.2.4 0 1.6 1.4 1.4 1.6 0 .2 0 .3.2.2.2-.1.5.1 1 .7.3.4.7.7.8.6h.1c0 .1 0 .3.2.5.3.1.4.4.4.6 0 .3.2.4.3.4l.5.4c.2.2.2.2.1 0l.3.2c.3.2.5.6.5.8 0 .3.2.4.4.3a8 8 0 0 1 2.2 1.9h-.3zm-9-8.7s0-.2-.2-.3c0 0-.2 0-.2.2 0 .4.2.4.3.1zm2.2 8.3c-.2-.3-.2-.3 0 0 .4.2.5.4.4.4l-.4-.4zm-5.5-1.1c-.6-.7-2-1.2-4.1-1.3l-2.1-.2h2a269 269 0 0 0 3-.1l.9 1c.5.4.8.8.7.8-.1 0-.3 0-.4-.2zm2-10.5.2-.2.3.1c0 .1-.1.2-.3.2h-.3zm-.8-.9h-1v-.3c0-.2-.1-.3-.2-.3s-.4 0-.6-.2c-.4-.1-.5-.4-.5-1 0-.3.1-.6.3-.6.1 0 .9.6 1.6 1.3l1.3 1.3-.9-.2zm-2.7-1.6c0-.3 0-.4.1-.2v.5-.3zm3.2-2.4-.5-.5.6.5c.5.4.6.6.5.6l-.6-.6zm.6-13.6.3-.4c.1 0 .1 0 0 .1 0 .2 0 .2.4.2.6 0 1.3-.6 1.3-1.1l.2-.3c.1 0 .2 0 .2-.2l.4-.6c.3-.2.4-.5.4-.7l.2-.3.7-.7.8-1.3.4-.5v2.2a9 9 0 0 1-.5 2.7l-.2.7-1 .1-2.2.2-1.4-.1zm-3.3-.8v-.2.6-.4zm.7-1.6c.2-2.2.3-3.2.6-3.6l.3-.7c0-.3.6-1.1 1-1.8a74.7 74.7 0 0 0 5-7l.7-1 .2-.2v2.1a7.7 7.7 0 0 1-.5 3l-.5 1c0 .3-1 2-1.3 2l-.2.1c.2.2-.4 1.2-1.3 2.1-.3.4-.6.7-.6.9 0 .2-.4.8-2.3 3.4a6 6 0 0 0-.9 1.4l-.1.3v-2zm1.2-.6c0-.3 0-.3-.2 0s-.2.6 0 .4l.2-.4zm1.8 2.3.4-.4c.3-.2.3-.2 0 0-.2.4-.4.5-.4.4zm6.4-.9.1-2 .1-1c0 .3.3.2.7 0l.7-.5.7-.4c.7-.5.8-.6 2.5-1.5l1.2-.6c.2-.2.9-.3.9-.1l-.6 1.3c-.8 1.6-2 2.7-4.1 4.2-2.4 1.6-2.5 1.6-2.2.6zm-10.1-1v-.7 1.3-.7zm7-2.7.3-.4c.3-.2.3-.2 0 0-.2.4-.4.5-.4.4zm1.6-1.4v-.3.7-.4zm1.4-1.9c-.1-.3-.4-.6-.7-.7-.3 0-.3-.2-.2-.2.2 0 .6-.4 1-.9.7-1.2 3-2.9 4-3l1-.4a50.1 50.1 0 0 1 6.1-3.4l.8-.5-.3.5-.3.9c0 .1-.1.2-.2 0-.2 0-.2 0-.1.2 0 0 0 .5-.3.8l-.4.8c0 .3-.3.3-.6 0-.2-.2-.2-.2-.2 0 0 0 0 .2.2.2.4 0 .2.5-.3.9l-.9.7c-.1.2-.5.3-.8.4-.3 0-.7.1-.8.3a3 3 0 0 1-.6.4l-1.1.6-1.1.6-1.1.7-2.8 1.6-.3-.5zm1.8-2.5-.2-.2c-.2 0-.2.1-.2.2s0 .2.2.2c0 0 .2 0 .2-.2zm-11.8-2v-1 2-1zm.5 1.5.3-2.3c.1-2.8.6-4 3.2-7.7l.9-1.2 1.4-2 1.7-2.4.6-.7-.1 2a9 9 0 0 1-.6 3.4 18.4 18.4 0 0 1-3.1 4.7l-.9 1.5a58.3 58.3 0 0 0-3 4.3c-.4.7-.7 1-.4.4zm5-7.8c.2-.2.2-.3 0-.3 0 0-.2.1-.2.3v.3l.2-.3zm4.6 7.7.4-.4-.2.4-.5.4s0-.2.3-.4zm-6.6.1.4-.3c.3-.3.3-.3 0 0-.2.4-.4.5-.4.3zm9.4-2.3c.1-.2.4-.2.6-.2.3.1.2.1-.2.2s-.5 0-.4 0zm-7.6-.2.2-.3c.1 0 .2 0 .1.2-.1.3-.3.4-.3.1zm.4-.7.4-.3c.3-.3.3-.3 0 0-.2.4-.4.5-.4.3zm.8-1c.1-.3.4-.6.6-.7l-.2.3c-.5.8-.7.9-.4.3zm5.7-.3c0-.1 0-.2.2-.1l.2.2h-.2l-.2-.1zm.7-.3a6 6 0 0 0 .6-1.7c0-.4 2.9-3.4 3.2-3.4l.6-.4 3-1.7a122.6 122.6 0 0 0 5.7-3.3c.5-.6.3-.2-.2.6l-.4.7a11 11 0 0 1-1.7 2.7l-.5.3c-.1-.1-.2 0-.2.2 0 .3-1.4 1.4-2.2 1.7l-1.7 1a83.8 83.8 0 0 1-6.2 3.3zm-4.4-1.3v-.8c.2 0 .2.3.2.8v.8l-.2-.8zm11 .3.4-.2h.2c-.1.3-.5.4-.5.2zm2.5-1.1c-.3-.2-.3-.2 0-.2.2 0 .4 0 .4.2s0 .2-.4 0zm-8.4-1c0-.2.2-.4.3-.4l-.1.4-.4.4.2-.4zm-12.3 0 .2-.3c.1 0 .2 0 .1.2-.1.3-.3.4-.3 0zm13.3-1.3.5-.5s0 .2-.3.5l-.6.5s.1-.3.4-.5zm-11.5-1.3.2-.3c.1-.1.2 0 .1.2-.1.3-.3.4-.3 0zm12.7 0 .3-.3c.3-.2.3-.2.1.1-.3.4-.4.5-.4.3zm-15.8-.3v-3.6 1.8c.1 1.8.1 1.9.5 1.6.3-.2.3-.2 0 .1-.3.4-.4.5-.5.1zm16.6-.2.3-.2h.2c-.1.3-.5.4-.5.2zm-13-.2s0-.2.3-.4.3-.2 0 .1c-.2.3-.4.5-.4.3zm-2.9-1.4c0-1.5.5-4 .9-4.8a62.8 62.8 0 0 1 5.3-7.8l1-1.4c.2 0 .2-.1.1-.3 0-.1 0-.3.3-.4.3 0 .3 0 .2 2a7 7 0 0 1-.8 3.6c-.4 1-.8 1.6-1 1.6 0 0-.2 0-.1.3 0 .2-.2.4-.5.6-.2.1-.4.2-.2.2s.2.1 0 .4l-1.2 1.6c-.5.8-1 1.4-1.1 1.4l-.4.1.1.2c.2 0 0 .4-.5 1l-.7 1.1-.1.3-.7.9-.6.8zm6.3-8c.1 0 0-.2 0-.2-.2 0-.3.1-.3.2l.1.2s.2 0 .2-.2zm10.5 9c.2-.1.3-.2.4-.1 0 0 0 .2-.3.3-.2 0-.3 0 0-.2zm-13.4-.4.4-.4c.3-.2.3-.2 0 .1-.2.3-.4.5-.4.3zm15-.4.5-.3.4-.2-.4.4c-.2 0-.4.1-.4 0zm-3.2-.4c0-.2.2-.3.3-.3v.3l-.3.3v-.3zm.6-2.4-.1-2c-.1-.1-.2-.3-.1-.4l-.1-.3-.2-.4c0-.3 0-.2.2.1l.3.6.1.4c.1.1.1.3 0 .4 0 .1 0 .3.2.4.1 0 .2.5 0 1.2-.2 2-.4 2-.3 0zm1.3 1.3.4-.6c.4-.4.4-.7 0-3.7 0-.5 0-1 .2-1 .2-.2.5 2 .4 3.5 0 1 0 1.3-.4 1.6-.4.4-.6.5-.6.2zm1.7-1 .4-1.3.3-.9-.1 1c0 .6-.3 1.2-.4 1.3-.3.3-.3.3-.2 0zm4.5-.1s.1-.2.3-.2h.2c-.1.2-.5.3-.5.2zm-17-1 .3-.4c.3-.2.3-.2 0 .1-.2.3-.4.4-.4.3zm1.5-1.2c0-.5 0-.9.1-.8l.1 1v.7zm14.7-.4c0-.7.1-1.4.3-1.8.4-.7.6-.6.3.2l-.3 1.5c-.1 1.4-.3 1.4-.3 0zm-15.5.6c0-.2.1-.3.2-.3l-.1.4c-.2.2-.3.2-.1-.1zm12.3-.6c0-.2 0-.4.2-.4l.2.2-.2.3c-.1.1-.2 0-.2-.1zm-19.2-.4.3-.3c0 .1 0 .3-.2.4-.2.2-.2.2 0-.1zm24.8 0s.1-.1.2 0l.2.2h-.2c-.1 0-.2 0-.2-.2zm-5.3-.5.2-.3v.3l-.1.3v-.3zm5.6-.2c0-.1 0-.4.2-.6.4-.4.5-.3.2.4-.2.5-.3.5-.4.2zm-24.6-.3.3-.4v.4l-.4.4.1-.4zm16.9-1.3c0-.3 0-.7.2-.7l.2.6-.2.7c-.1.1-.2-.1-.2-.6zm-16.5.5.4-.4c.3-.2.3-.2 0 0-.2.4-.4.5-.4.4zm24.7 0 .4-.4c.3-.2.3-.2 0 0-.2.4-.4.5-.4.4zm-.9-2c0-.2.2-.3.3-.3l-.2.4c-.2.2-.2.2 0-.1zm-24.7-2.8c.1-2.2.4-3.5 1-4.5l2-2.9.7-1 1.1-1.7c.3-.2.8-1 1.3-1.7s1-1.6 1.3-1.8l.4-.5-.1 2.2a7 7 0 0 1-1.1 4.2 35 35 0 0 1-4 6.1l-1.5 2-1.2 1.7zm1-.3c0-.3-.2-.5-.3-.5l-.1.5.1.5c.1 0 .2-.2.2-.5zm0-3.1c0-.2 0-.1 0 0v.4c.1-.1.1-.3 0-.4zm3.4-1.6c.1-.1 0-.2 0-.2-.2 0-.3 0-.3.2l.1.2s.2 0 .2-.2zm-5.2 5.3v-.7c.1.4.1 1.2 0 1.6v-.9zm.1-2.6c0-.2 0-.3.2-.1v.4c-.1 0-.2 0-.2-.3zm7.4-1 .6-.7-.4.6-.5.6.3-.6zm1-.4c0-.5 0-.7-.2-.6-.2.1-.2.1 0-.1.4-.4.5-.1.4.7v.8zm-7.6-1 .3-.6c.3-.4.3-.4.1.1-.3.6-.4.7-.4.5zm2.3-3.7.5-.4s0 .2-.3.4l-.4.4.2-.4zm-3.2-.1v-.5l.1.3c0 .2.1.3.3.2 0-.1.1 0 0 0-.2.4-.3.4-.4 0zm.8-2.5c.1-2.5.4-3.7 1.3-5l.7-1h3.3l-.3.6c-.2.4-.4.5-.6.4-.3 0-.3 0 0 .1.2.2 0 .4-.7 1.5l-1 1.3c0 .2-1.5 2.3-1.6 2.3l-.2-.4c0-.3 0-.3-.2 0v.4c.2 0 0 .5-.3 1l-.6 1 .2-2.2zm-.8.2v-.9 1.7-.8zm5 0 .2-.4c.1 0 0 .2 0 .4l-.4.4.1-.4zm-4.7-3.5c0-.3 0-.3.2-.2v.4c-.1 0-.2 0-.2-.2zm8.2-.7v-.8c.2 0 .2.3.2.8v.8l-.2-.8zm-7.2-1.7c0-.2.1-.3.2-.2l-.1.5c-.2.2-.2 0-.1-.3z" style="fill:#efd0b4;fill-opacity:1;stroke-width:1.66039"/>
            <path id="path1039" d="M259.2 121.3c-.1 0-.4 0-.5.2-.2.1-.1.1.2 0 .3-.1.4 0 .1.2-.1.2-.3.3-.4.3-.1 0-.3 0-.4.2-.3.3-.3.3 0 0 .4-.2.4-.2.3.2 0 .2.1 0 .5-.3.4-.6.5-.8.2-.8zm-1 0-.4.4-5 7.1c-1.4 2-1.5 1.8-1.4-1.6 0-2.2.2-3 .5-4l.7-1.4c.3-.4.2-.6-.3-.5-.4 0-.5.3-1 1.5-.5 1.9-.7 5.6-.3 6.7.2.5.5.8.7.8.4 0 1.5-1.1 1.5-1.5 0-.2 0-.4.2-.5.4-.1 1.2-1.3 2.8-3.5l1.2-1.7.2-.4.1-.2c.2 0 .7-1 .6-1.2zm2 0c-.5 0-1 .6-1.8 1.8-.5.7-1 1.5-1.3 1.7l-.3.6-.4.6-.4.6c0 .1 0 .3-.2.3l-.7 1-1.6 2.2c-2 2.9-2.7 5-2.7 8.2 0 1.8.2 2.8.6 3l.3.2c.3 0 1.5-1.3 1.5-1.5 0-.2.1-.3.3-.4l.6-.7 1.1-1.7a75 75 0 0 0 4.4-6.4l1-3c.3-1.2.2-5.8 0-6.2l-.5-.2zm-8.8.7c-.2 0-.2.2-.2.3 0 .3.1.2.2-.1.1-.2 0-.3 0-.2zm8.6.3c.3 0 .2 4.6 0 5.9-.5 1.8-1 2.8-3 5.6a575.3 575.3 0 0 0-3.9 5.7c-1.2 1.7-1.4 1.9-1.6 1.7-.3-.3-.1-4.5.2-5.9.3-1.5 1.3-3.2 3.4-6.3.8-1 1.2-1.8 1.2-2-.1 0-.1-.1 0 0 .2 0 .4-.2.6-.5l.8-1 .4-.8v-.2c.2 0 .6-.5 1-1.1.4-.6.9-1.1 1-1.1zm-2 .4c-.2 0-1 1-1.5 2l-.7 1c-.4.5-.4.5 0 .5l.4-.1.5-.8.9-1.4.6-.7s-.2 0-.4.3c-.5.6-.5.3-.1-.3l.2-.5zm-6.9.3-.3.4-.2 1c0 .2.1 0 .3-.4l.2-1zm-.5 1.4zm10.4 1.4v.2c0 .2 0 .3.1.2v-.4zm-5.5.8-.5.1-.2.7v.5l.4-.5c.2-.3.2-.4 0-.2-.2 0-.3 0-.2-.1 0-.2.2-.3.3-.3.1 0 .3 0 .4-.2h-.2zm-1 1-.3.5c-.3.2-.4.5-.3.6.2.3.5 0 .6-.6zm-.5 1.5-.3.2-.3.3c0 .2.1 0 .4-.3l.2-.2zm-1.8 1-.4.3c-.2.2-.2.3 0 .3s.4.2.5.3c0 .4.1.4.4 0 .3-.5.1-1-.3-.7-.2.2-.3.2-.2 0 .1-.1.1-.2 0-.2zm7.4 1.4c0-.1-.3.2-.8 1l-.4.7c.2-.1.2 0 .1.2 0 .2.2 0 .5-.3l1-.9h-.2c-.3-.1-.4-.2-.3-.4v-.3zm.4 1c-.4.2-1 .7-1.6 1.8l-1 1.3c-.4.4-1.4 2.1-1.4 2.3l-.2.2-1.4 2-1.4 2c-.3 0-1.3 2.3-1.8 3.5-.2.7-.3 2-.4 3.6 0 2.3 0 2.5.4 3l.4.6.6-.5c.3-.2.7-.6.8-.9 0-.2.3-.5.6-.7l.4-.4s0-.3.2-.4a31.3 31.3 0 0 0 2.8-4.2s.2-.4.5-.6l.5-.7.6-.8.7-1.1c0-.3.2-.5.3-.6.2-.2.8-1.9 1-3.3.3-2 .2-5.7-.2-6h-.4zm-8.6.7c-.2 0-.2.2-.2.3 0 .3.1.2.2-.1.1-.2 0-.3 0-.2zm8.6.3a15.7 15.7 0 0 1-.8 8 45 45 0 0 1-4.3 6.5 216 216 0 0 1-3.3 4.6c-.2 0-.3-.9-.2-3.2.1-3.9.3-4.2 4.8-10.7a14 14 0 0 0 1.9-3c-.1-.2 0-.2 0-.1.1 0 .6-.4 1-1s.9-1 1-1.1zm-9 .4c-.2 0-.3.4-.3 1.1l-.1 1 .3-1 .2-1-.2-.1zm7 0-.7.7-.7 1-.6 1c-.5.5-.6.7-.3.6.2-.1.3 0 .2 0v.3l.7-1 1-1.4c.4-.4.9-1.3.6-1.1l-.2-.1zm-2.7 3.6-.3.4c-.2.4-.2.4 0 .3.2-.1.2 0 .1.2-.2.5 0 .4.3-.1.2-.3.2-.4 0-.3-.2.1-.3 0-.2-.1.1-.3.1-.4 0-.4zm17.5.3-.1.2c0 .2 0 .3.2.2l.1.2c0 .1 0 .8.2 1.5.3 1 .3 1.2.5.8.2-.5-.3-2.4-.7-2.8h-.2zm-18.3 1.1-.2.1a1 1 0 0 0-.3.7l-.4.8c-.4.7-.1.4.7-.7.5-.6.6-.8.4-.7-.3 0-.4 0-.2-.2zm17 .6c-.2 0-.8 1.3-.7 1.6 0 .3.3 0 .2-.3 0 0 0-.2.2-.3.2 0 .5-1 .3-1zm4.3.8h-.2l-.2.5c0 .2 0 .3-.1.2-.2 0-.2 0-.1.3l-.1.2c-.1-.1-.4.3-.6.9l-.5 1v-2.2c0-.5 0-.5-.2-.1v1.3c0 .6 0 1-.2 1 0 0-.2.1-.2.3l-.4 1.5a5 5 0 0 0-.4 1.5l-.1.4c-.3-.2-.5.4-.4.7.2.2.4 0 .4-.2l.3-.6c.1-.2.2-.6.1-.8v-.2c.2.1.4-.2.6-.9.4-1 .5-1.1.5-.6v-.2l-.2.3v.3l.2-.2v.4c-.2.5-.2 1.1-.2 1.3 0 .2 0 .3-.2.3 0-.1-.2 0-.2.3-.1.3 0 .3.1.2.2-.2.5-.3.7-.3.6-.1 1.5-.9 1.3-1-.2-.3-.4-.2-.5.2-.2.6-.6.6-.6 0l.1-1.7c.1-.7 0-.9-.1-.7h-.1c.1-.2.2-.2.3-.2.3 0 .6-.4.5-.7 0-.2 0-.8.3-1.2.3-.6.3-.9.2-.9-.2 0-.1 0 0-.2.2 0 .2-.1.2-.2zm-23.2.7-.4.3c-.5.3-.5.3 0 .5.4.1.5.3.1.7-.2.3-.2.3.1 0 .2 0 .4-.3.4-.4l.3-.7c.2-.2.2-.3 0-.1-.3.3-.6.3-.5 0v-.3zm18 .4c-.2 0-.4.5-.4 1 0 .4 0 .4.3-.2.2-.3.2-.6.2-.7l-.2-.1zm-19.5.2.1.1h.3c0-.2-.2-.2-.4-.1zm21.4.2-.7.5c-.4.5-.7 1-.7 1.2 0 .1 0 .2-.2.2-.1 0-.3.2-.3.5-.1.2-.2.3-.4.2l-.2.1.2.3.2.8c0 .8.2.6.3-.3.2-.9 1-2.3 1.5-2.7.2-.1.3-.3.2-.3-.1 0 0-.2 0-.4v-.1zm-4.4.5c-.2 0-.3.2-.2.3.3.8.9 3.4 1 4.2 0 1-.1 1-.4.3v.6c0 .7 0 1.2-.4 1.8-.2.4-.5.8-.7.8l-.6.1c-.2.2-.2.1-.1-.3.1-.3 0-.4 0-.1-.2.1-.3.2-.3 0 0-.3-.4.5-.4 1l.2.4c.2 0 .2-.2.1-.3 0-.2 0-.3.4-.3.5 0 2-1 2-1.4 0-.1 0-.2.2-.2s.3-.2.3-.3c0-.2.2-.4.3-.5l.3-.5c0-.1 0-.1-.2 0-.1.3-.2.1-.2-.5a7 7 0 0 0-.1-1.4l.1-.5.2.4c0 .2 0 .3.1.1.2-.3-.4-1.6-.8-1.7l-.4-1c0-.7-.2-1-.4-1zm-8.5.4c-.2 0-.4.2-.8.9l-.4.8c.1 0 .2 0 .1.2l-.3.3h-.4c-.1 0-.2.1-.2.3l-.8 1.3-.8 1.2c0 .2-.1.3-.2.3s-.2 0-.3.2c-.2.5.4.3 1-.4l.4-.8v-.1l.3-.1v-.5l.2-.4.4-.2c.2 0 .4 0 .4-.2s.4-.7 1-1.3c.9-.9.9-1 .6-1.3l-.2-.2zm17.2 0-.3.2c-.5.5-1 1.7-1 2.2l.2.5.2-.4v-1c.2.2 1-.8 1-1.2l-.1-.2zm-4.2.6-.5.3c-.4.4-.4.4 0 0 .3-.1.5-.2.6-.1h.1c0-.2 0-.3-.2-.2zm6.5 0c-.3 0-.8.8-.7 1.2 0 .2 0 .3-.1.2-.2-.1-.2 0-.2.1 0 .5.3.4.5-.2l.3-.8s0-.2.2-.3c.2-.1.2-.2 0-.2zm-19.1.4c-.2 0-.6.4-1 .8a248.2 248.2 0 0 1-2.8 4.3c-.3 0-3.8 5.1-4.7 7-.8 1.6-1 6.9-.4 7.7l.5.3c.2 0 1.4-1 1.4-1.2l.7-1 .8-1c0-.2.2-.4.3-.4.1 0 .2 0 .1-.1 0 0 0-.3.2-.5.6-.6 1-1.2 1-1.3l.9-1.3.8-1.4c0-.1 0-.2.1-.1a12.2 12.2 0 0 0 2.9-8.9c0-2.4-.1-2.9-.8-2.9zm7.4.3-.2.1c-.2.2-.2.2 0 .1.3 0 .4-.2.3-.2h-.1zm8 .3-.2.3.1.3.2-.3v-.3zm-24 0s-.6 1.4-.6 1.8v.2c.2-.1.7-1.8.7-2zm23.7.1v.9c.2.2.2.2.3.1l-.1-.7-.2-.3zm-15 .1v3c0 4.2-.2 4.5-3.7 9.5a371.5 371.5 0 0 1-4.8 6.6c-.4.1-.2-5.4.3-6.8a27 27 0 0 1 2.4-4.2 32.9 32.9 0 0 0 2.3-3.5c.2.1 1.6-2 1.5-2.2-.1-.1 0-.2 0 0 .1 0 .6-.5 1-1.2l1-1.2zm17.7.5-.2.5c0 .1.2.2.5.2.2 0 .4 0 .4-.2 0 0-.1-.1-.2 0-.2 0-.2 0-.2-.3 0-.1-.1-.2-.3-.2zm-6.1.9v.5-.5zm6.4 0c-.5 0-1.1.3-2.2.8a24.5 24.5 0 0 0-3.5 1.8l-.8.5.1-.7.1-.8-.3.6c-.1.4-.3.6-.4.6-.3 0-1 .3-1.6 1l-.6.5 1-.5c.5-.2.9-.5.8-.6l.1-.2c.1-.1.2 0 .2 0l.5.2-.7.3a19.4 19.4 0 0 0-4.8 3l-.4.6c-.6.6-1 1.5-.9 1.8 0 0 0 .1-.2 0-.2 0-.3.2-.4.6 0 .4-.2.8-.4 1-.4.3-.6 2-.3 2.3.2.1.2.1.1 0-.1-.3 1-2.8 1.8-4.2.8-1.2 2-2.4 3.4-3.2a10049.9 10049.9 0 0 1 9.3-4.7l-1 2.2c-1.5 3.3-2.5 4.1-9 7.6a2901 2901 0 0 1-4 2.3c-.2.2-.2.2.3 0 1.2-.3 1.3-.4 1.3-.5 0-.1.1-.2.3-.2l1.2-.6a1845.9 1845.9 0 0 0 7-4c.5 0 2.9-2.8 3.3-3.8l.8-1.8c.2-.5.5-1.1.5-1.4 0-.4-.2-.6-.6-.5zm-2.3.4h-.3c-.3.3-.3.3-.2 0l-.1.1-.7.4-.7.3c-.2.2-.1.3.4.2.8-.2 1.9-.7 1.7-1h-.1zm-8.8.4s-.2.5-.2 1.1l-.3 1.4c0 .2 0 .3.2.3.3 0 .6-1 .5-2.2 0-.5-.1-.7-.2-.6zm1.7.1v.5c.1 0 .1-.2 0-.4zm-.8.2v.5c.1 0 .1-.2 0-.4 0 0 0-.1 0 0zm3.6.4v.5c.1 0 .1-.2 0-.4zm-.6.4c-.1 0-.3.2-.4.5l-1 .9-.4.4c.4 0 1.7-1 1.6-1.1l.1-.4c.2-.2.2-.3 0-.3zm1.9 0s-.3 0-.5.2l-.1.4.4-.1c.2-.2.3-.4.2-.5zm-17.6 1c-.1 0-.2 0-.2.2v.2l.3-.2-.1-.2zm.4.4-.2.1c-.2.1-.4.2-.5.1-.1 0-.1 0 0 .1.1.3.2.3.5 0l.2-.3zm11.4.5c-.1-.1-.2 0-.2.1 0 .4.1.5.3.2v-.3zm-12.5.4h-.2l-.3.5c0 .2 0 .1.2 0 .2-.3.2-.3.1 0l-.4.2c-.3 0-.7.7-.6 1.1.1.3.5.2.5-.2l.3-.4.4-.8v-.4zm13.8 0-.9.5c-.5.3-1 .7-.9.8.2.3.3.2 1.3-.4l.7-.6c-.2 0-.2-.1-.2-.2zm-15.5 2-.5.3c-.6.3-.7.7-.1.5.2 0 .4 0 .4.2s0 .2.2.2l.1-.7-.1-.4zm12.9.5c-.2 0-.3.1-.4.3v.3l.3-.3c.2-.2.2-.3 0-.3zm9 .8s-.6.2-1.1.6l-.8.4c-.2 0-.2 0 0 .1.1 0 .2.2.1.3h.3l.8-.2c.3 0 .4-.2.4-.4l.3-.6s.1-.1 0-.2zm-15.2.4-.2.2c-.2.1-.3.3-.3.4 0 .2-.2.4-.4.6-.2.3-.2.4 0 .3.2-.1.2-.1.1.2 0 .2 0 .2.5-.2.6-.6 1-1.5.6-1.2l-.2-.1v-.2zm15 1c-.4 0-1.3.2-2.3.8a69.8 69.8 0 0 0-6 3.3c-.9.6-2 1.1-2.3 1.2a2 2 0 0 0-1 .3c-1 .8-1.6 1.4-1.7 1.7l-.1.6c-.1.2.3 0 1-.6 1.1-1 2.1-1.7 2.7-1.7l3.2-1.7a25 25 0 0 1 6-3l-.5 1.3-1 2.3c-.6 1-2.6 3.1-3.1 3.1l-1.4.6a83.3 83.3 0 0 1-6.4 3.5c-.2-.1-.3 0-.1.4 0 .2.3.1 1.3-.3l1.8-1c1.2-.9 4.2-2.6 4.4-2.6h.1l-1 .6c-.5.3-.8.5-.7.6.1 0 .2.1.1.2-.2.3 1.6-.7 2-1.1.4-.4.4-.5.2-.6-.1 0-.3 0-.4.2h-.1c0-.2.3-.3.6-.4 1-.2 2.6-1.8 3.3-3.4l.7-1.8c0-.2.1-.3.2-.3.2 0 .6-1.5.6-2l-.1-.2zm-14.5 0c-.5.2-1 1-2 2.3a134.2 134.2 0 0 1-5.4 7.8l-.3.6a9 9 0 0 0-1.3 3.6c-.3 1.6-.3 4.7 0 5.2.2.4.3-.1.4-2.4 0-1.7.2-3.1.4-3.8.4-1 1.6-3.3 2.6-4.5a53 53 0 0 0 3.8-5.6l1-1.1c.3-.6.8-1.1.8-1.1a16.2 16.2 0 0 1-.8 8.1c-.2.6-2.4 3.8-3.2 5l-4 5.5c-.2.4.3.3.7-.2l.8-.9.7-1 1-1.5c.3-.4.6-.8.6-1 0 0 0-.2.2-.2l.5-.7.7-1 .4-.6c0-.2 0-.3.2-.3.1 0 .2-.1.1-.3 0-.2 0-.3.2-.3.1 0 .4-.3.6-.7.1-.4.4-.7.5-.7 0 0 .2-.1.2-.3 0-.2 0-.3.2-.3l.2-.4c0-.1 0-.4.2-.5.4-.5.7-2.2.7-4.6.1-3.1 0-4.4-.7-4zm12.5 0a9 9 0 0 0-2.9 1.5 1 1 0 0 1-.6.3c-.2 0-.2 0 0 .1.1 0 .2.2.1.4l.2-.2.4-.3c.2.1 2.5-1.3 2.4-1.5l.3-.1c.2 0 .2 0 .1-.1zm1.3.2c.1 0 .2 0 .2.2 0 0 0 .2-.2.2l-.2-.2.2-.2zm-12.9.6v.1c-.1.2 0 .5 0 .8.1.6.2.6.3 0v-.4c-.1 0-.2 0-.2-.3v-.2zm13.7.5-.2.3c0 .3.2.2.3-.1v-.2zm-16.8 0-.3.4c0 .3 0 .4.2.4l.2-.4-.1-.4zm-6.7.1-.1.2c-.2.1-.2.5-.2.8 0 .4 0 .5.2 0l.1-.7v-.3zm6.3 1-.4.3c-.4.3-1.2 1.6-.9 1.4l.3.1c0 .2.3-.2.6-.7.5-.8.6-1.2.4-1.1zm10.8 0c0-.2-1.3.4-1.7.8v.4c0 .1.2.2.3 0l.9-.5.9-.6s0-.1-.2 0h-.2zm-2.3 1v.4l.1.3c.1 0 .1-.3 0-.4l-.1-.3zm-.4.3-.5.3-.5.2h-.6c-.6 0-.6 0-.2.3.3.3.4.6 0 .4 0-.1-.1 0 0 0 .2.4 1.8-.4 1.8-.9v-.3zm-10.1 1.7c-.1 0-.2 0-.2.2v.2c.1 0 .2 0 .3-.2l-.1-.2zm5.7.5c-.1 0-.3.2-.3.7 0 .3 0 .6-.2.7a8 8 0 0 0-.6 2.2c0 .8 1-1.6 1-2.4 0-.7.1-.8.3-.7.2.2.3.1.4 0 .1-.2 0-.2 0-.1-.2 0-.4 0-.4-.2l-.2-.2zm-6.7.4-.3.3-.5.8-1 1c-.8.7-.8.8-.4.7.6-.1.7 0 .4.4l.3-.2c.3-.3.3-.4.2-.5-.2-.1-.2-.2 0-.4s.3-.2.3 0c0 .1.2 0 .5-.5.9-1.2 1-1.4.7-1.2-.2.1-.3 0-.2-.2.1-.2.1-.2 0-.2zm6.5 2.1-.2.3-.3.6c0 .2 0 .1.4-.5l.1-.4zm8.7.7c-.4 0-1.2.3-2.5 1.2a28.7 28.7 0 0 1-3.6 2l-1.2.7c-.3 0-.7.6-.7 1 0 .2 0 .2.7-.2a256.7 256.7 0 0 1 7-3.8 12.2 12.2 0 0 1-6.1 8.1l-1.9 1.1-.2-.3v.2c-.1.5 0 .6.3.4.3 0 .7-.3 1-.5l.6-.4c.3 0 2.9-1.7 3.5-2.3.8-.8 1.3-1.6 1.2-1.8-.1 0 0 0 0 0 .2 0 .4-.1.6-.6l.7-1.6c.6-1.2 1-2.9 1-3.1l-.4-.1zm-2.5.6h-.4c-.6.2-2.2 1.3-2.3 1.7 0 .2.2.1.5-.1l1.5-.9c.7-.3 1-.7.7-.7zm-7.3.2c-.1 0-.2 0-.2.2s0 .3-.2.3l-.8 1c-.4.6-.8 1-.9 1-.2 0-.2.7 0 .9a86.8 86.8 0 0 1 1-1.2h-.3c0-.2.1-.3.3-.3.1 0 .2-.1.2-.3-.1-.1 0-.3 0-.4l.3.1c0 .1 0 .2.2.1.2 0 .2-.2 0-.3-.2 0-.2-.2 0-.3l.3.1c0 .1.2.2.3.1 0 0 .3.1.5.4l.5.4c.1 0 .1.3 0 .8v.8l.2-.9c.1-.7 0-1.2-.3-1.5.5.3.6.4.2 0-.2-.3-.5-.5-.6-.5l.2.3h-.4c-.5 0-.5 0-.4-.3l-.1-.5zm9.9 1.2v.5c.1-.1.1-.3 0-.4v-.1zm-9.6.1c-.5 0-1.3 1-3 3.6-.6.9-1 1.6-1.2 1.6-.2.2-2.1 3.1-2.1 3.3l.4.1c.3 0 .4 0 .3-.2 0-.2 0-.3.1-.2a70.5 70.5 0 0 1 2.2-2.9c.8-1 1.3-2 1.2-2.1 0-.1 0-.2.1-.1.1 0 .6-.4 1-1s.8-1 .9-1c.4 0 0 6.1-.4 6.8-.2.5-.2.8.2.7.6-.1.8-1.5 1-4.8 0-2.4 0-3.2-.3-3.5-.1-.1-.2-.3-.4-.3zm4 .1-.2.1a1 1 0 0 1-.5.2l-.4.2c0 .1-.1.2-.3.2-.1 0-.4.1-.5.3-.1.2-.1.2.1.2.7 0 1.8-.7 1.8-1v-.2zm5.3.8-.2.3c0 .2.1.2.2.1l.2-.3c0-.1 0-.1-.2 0zm-7.8.5c-.1 0-.2.3-.2.7 0 .7.1.7.3-.1l-.1-.6zm-10.6.3c-.2 0-.2.4-.2.7 0 .6 0 .5.2-.2v-.5zm6.4.6c-.2 0-1.6 1.7-1.6 2.1l-.3.4-.8 1a48.8 48.8 0 0 1-1.5 2.3c.3-.2.4-.2.4 0l.6-.5c.3-.4.6-.8.6-1l.4-.6c.2-.3.4-.7.3-.8 0-.1 0-.2.2-.2s.3-.2.3-.4c0-.4 0-.5.3-.5.4 0 1.4-1.6 1.1-1.8zm3.8.7-.2.2c0 .1 0 .2.2.2.1 0 .2 0 .2-.2l-.2-.2zm.3.7v1.7a8.7 8.7 0 0 0 0-1.7zm-.4.6-.1.7-.5 2.4c-.2 1-.2 1.2 0 1.2s.3 0 .2-.2c0-.1 0-.5.2-.8.3-.6.4-1.8.3-3v-.3zm6.3.3-.2.2-.4.4c0 .1.2 0 .4-.3l.2-.3zm-17 .9v.5-.6zm15.4.5c-.3 0-.5.3-.7.5 0 .2-.3.3-.5.3l-.6.3c-.1.2-.3.3-.4.3l-1 .5-.5.5c.2 0 .3 0 .4-.2h.5c.2 0 .5 0 .5-.2.1-.1 0-.2-.1 0-.2 0-.2 0-.1-.1 0-.2.2-.2.3-.1l.8-.3c.3-.3.8-.5 1-.5.5 0 .6 0 .6-.5.1-.5 0-.6-.2-.5zm-.3.4.1.2c0 .2 0 .2-.2.2-.1 0-.2 0 0-.2l.1-.2zm-4.3.3v.2c0 .2 0 .4.1.3v-.4s0-.1 0 0zm4.5.6c-.4-.1-2.5 1-2.5 1.2 0 .2 1.4.2 1.4 0l.6-.4c.4 0 .4 0 .3.2 0 .3 0 .3.3.2.5-.3.4-1.1 0-1.2zm-13.2 1.2.3.1h.2-.5zm1 13.5h-.2c-.3.3-.2.5.7 1.4 1.1 1.2 1.3 1.3 1 .8l-.1-.8c0-.2-.4-.7-.7-1-.4-.4-.6-.5-.7-.4zm.3.5s.1 0 0 .2l-.1.2-.1-.2c0-.1 0-.2.2-.2zm-.6.1-.6.1c-.2.2-.2.3 0 .6l.6.3h.2c0 .2 0 .2.3.2.1 0 .2-.3.1-.4 0-.2-.2-.2-.4-.2-.1.1-.2 0-.1-.2l-.1-.4zm1 .3c.1 0 .1 0 0 .2l-.1.2-.1-.2c0-.1 0-.2.2-.2zm-2 .3c-.2.1.3.7 1.3 1.7 1.7 1.7 2 2.4.9 2.3-.5 0-.6 0-.5.3v.4c0 .1.2.2.3.1v-.3c0-.2 0-.2.1-.1.5.3.9-.4.8-1v.4c.1.4.2.5.2.2l.1-.4.2.4c.1.4.1.4.3 0l-.1-.5c-.1 0-.3-.4-.3-.8l-.2-.6-.1-.3c0-.3 0-.3-.2-.1-.2.2-.2.2-.3-.3-.2-.5-.4-.7-.6-.3-.1.1.8 1.4.9 1.3v.6l-.1-.3c-.2-.1-.3-.3-.2-.4.1-.2-2.3-2.5-2.5-2.3zm-23.1 3h-.3l-.3.4c0 .2.1 0 .4-.2l.2-.3zm27 1.2-.1.1c-.3.2-.3.2 0 .4h.3c.1-.3 0-.5-.1-.5zm-1.2.4c-.7 0-.8.2-.7.6l.2.2h-.2l1 .7 1 .7h.3c.3-.1.3 0 .2.2 0 .2 0 .3.2.3s.2.1.2.2 0 .2.2.3c.2 0 .6.5 1 1l.6.7c.2 0-.9-1.8-1-1.8-.2 0-.3 0-.2-.2l-.1-.2c-.2 0-.2-.1-.2-.3.1-.1 0-.2 0-.2a2 2 0 0 1-1.1-.6c-.6-.6-1-.8-1.5-.8h-.4.2c.4-.4 1.1 0 2 .8.7.7 1 .8.6.2l-.2-.2c0 .3-.8-.7-.8-1 0-.4-.6-.7-1.3-.6zm-2 6.6c-.2 0-.3.3-.3.4l2.2 2.4c2.7 2.6 4 3.3 5.8 3.3h1.2l-.5.3c-.4.1-.4.1.1.1.3 0 .6 0 .6-.2h.3c.2 0 .5 0 .8-.3.4-.3.4-.3-.6-.2-1.1 0-3-.5-4.2-1.2-.5-.2-1.8-1.4-3-2.6-1.7-1.7-2.3-2.2-2.5-2zm-1 .6-.3.1-.4.4c-.2 0 1.8 1.8 2 1.7 0 0 .1 0 0 .2 0 .2 0 .3.2.3l.4.2c0 .1.2.5.6.8.6.7.8 1.5.3 1.5-.3 0-.4.2-.2.4s.6-.2.6-.6v.1c-.1.4 0 .5.2.4.2 0 .4-.3.4-.6.1-.7.3-.7 1.1 0l.5.3c0-.2 0-.2.2-.2.3 0 .1-.2-.4-.6l-1.2-.5c-.2 0-.6-.1-.8-.4l-.3-.3c.3.5.4 1.1.3 1.6 0-.8-.6-1.8-2-3.1a8 8 0 0 1-1-1.2l.8.8 1 .7h-.1c0-.2 0-.2.2-.2l.2.3h-.2l.4.4c.3 0 .6.3.9.5l.5.6c.1 0-.5-.8-1.4-1.7-1-1-1.8-1.6-2.1-1.6h-.3l-.1-.2v-.1zm2.1 2.1-.2-.1.2.1zm-1.5-1.6c.2 0 .5.3.8.7l.2.3c-.1 0-1.2-1-1-1zm1.8.4.4.3c.2.2.2.3.1.3s-.3 0-.4-.3c-.2-.1-.2-.3-.1-.3zm1 1.1.3.3h-.2c-.1 0-.2 0-.2-.2zm9 1 .4.4.6.6.2.1v-.3c0-.2-.2-.5-.6-.6zm1.4.6c-.1 0-.2 0-.2.2l.2.2.2-.2c0-.1 0-.2-.2-.2zm-9.5 1c-.2 0-.4.1-.4.4 0 .1 0 .1.2 0l.4-.1c.1 0 .1 0 0-.2h-.2zm3.4.4s.2 0 .3.2v.2l-.4-.2v-.2zm-2.8 0 .2.2c.2.3.2.4-.1.7l-.3.6.4-.4c.4-.6.4-.6 0-1l-.2-.1zm1.5.2-.2.3c-.1.2 0 .3.3.2h.5c0 .2-.2.3-.6.3-.5 0-.5 0 .4.2l1.5.2.6.2c0 .2 0 .1.2 0 0-.2.2-.2.2-.2s.3 0 .5-.2c.3-.1.1-.2-.9-.3-.6 0-1.5-.2-1.8-.4l-.7-.3zm2 .4.2.1h.2-.3zm-4.7.2-.3.2c-.3.3-.4.4-.1.7l.3.2c-.4-.2-.6-.2-.4.1 0 .2 0 .2-.2.1-.4-.1-.4-.1 0 .2.4.3.5.3.4 0l.2-.1c.3 0 .3 0 0-.2l-.1-.3c-.2-.3-.2-.4 0-.7l.2-.2zm-.5 0c-.2 0-.3.1-.2.2l.2.2.2-.2c0-.1 0-.2-.2-.2zm2.2.1-.3.3c-.3.3-.4.6-.4.9v.4c-.1-.1-.2 0-.3.2 0 .2.3.7.8 1.2.5.6.8.8 1 .7l.3-.2-.1-.1c-.7-.7-1-1.2-1.2-1.7.2.5.7 1.2 1 1 0 0 .1 0 0 0l.1.5c.4.3.5.3.8 0 .2-.3.1-.5-.5-1-.5-.6-.7-.7-.7-.5 0 .2 0 .3.2.3 0-.1.2 0 .2 0 0 .3-.3.3-.6 0s-.3-1 0-1.3c.2 0 .2 0 .1.2 0 .3.2.3 1.7.3l1.8-.1c.2-.1-1.5-.5-2.5-.6-.7 0-1.3 0-1.5.4l.1-.3c.2-.2.3-.3.1-.3-.1 0-.2-.2-.1-.3zm-.7.9-.2.1c-.1.2-.3.2-.4.2-.2-.1-.2-.1-.1 0 .1.3.5.2.6-.2v-.1zm-2 .4v.4c0 .6.3.8.4.3l.2.2c0 .3.2.6.8.8l.8.6c0 .2 0 .2.2.2s.3 0 .3.2l.1.4c.3.4.6.3.6 0 0-.4-1.5-1.8-1.7-1.6-.1.1-.1 0 0 0 0-.2-.2-.5-.6-.8l-.7-.4-.2-.1-.2-.2zm2.8 1.4s.2.1.2.3l-.1.3-.2-.3v-.3zm-5.8 3.4-.4.2c-.2.2-.2.4.8 1.2.8.7 1 1 1.2.7.1-.1.2-.1 0 .1 0 .3 0 .4.3.4.2 0 .3 0 .1.1-.1 0 0 .4.4.8.7.7 1.1.9 1.3.4 0-.2-.3-.7-1-1.4-1-1-1.2-1.1-1.4-.9-.1.2-.1.2 0 0 0-.4-.2-.7-1-1.4l-.3-.2zm-.8.4-.5.1c-.4.2-.4.2.2.7 1 .5 1.4.2.7-.5l-.4-.3zm.9.2.5.3c.3.4.2.4-.3 0l-.2-.3zm-1.8.1h-.2c-.1.1 0 .2.2.3.5.2.5.2.3-.1l-.3-.2zm2 1 .5.5.1.2c.3.4.5.5.5.3l-.3-.3c.6.4.7.4 0-.2l-.7-.5zm1.4 1.3c-.1 0-.2 0 .1.3l.8 1.3c.4.8.5.8.5.4 0-.2.2-.4.3-.3h.2c0-.2-.3-.3-.6-.3s-.4 0-.3-.1c.2-.1.1-.3-.3-.7l-.7-.6zm.8 0s.3 0 .6.3c.2.1.3.3.2.5 0 0-.2 0-.5-.3s-.3-.4-.3-.5zm.3 2.2v.3l.2.6c0 .1 0 .1.1 0l-.1-.6-.2-.3zm0 2.6-.1.3v.3c.2 0 .3-.1.3-.3l-.1-.3zm0 1c-.1-.2-.2 0-.3.2-.1.2-.1.3 0 0 .2 0 .3-.2.2-.3zm-.2.5v.3c0 .3 0 .4.1.3v-.5c0-.1 0-.1 0 0zm-.3.6c-.2-.2-.8.3-.6.5 0 .1 0 .2-.3.3-.3.1-.3.2 0 .3l.3.2-.5.5-.8.8-.3.3c.2 0 .1.2 0 .4a294.6 294.6 0 0 0-6.6 7.4 16.9 16.9 0 0 0-3 7h.3l.6-.1c.2 0 1.2-.6 2.4-1.4l2.7-1.7c1-.5 4.5-2.9 5-3.4 1-.9 1.8-1.9 2-2.4.3-.4.3-.4.5 0l.1-.7v-1l-1.7 2a12.8 12.8 0 0 1-4.4 3.6l-.8.5-2 1.4c-.8.4-1.9 1-2.5 1.5-1.2.8-1.6 1-1.6.6a27.2 27.2 0 0 1 4-6.8 249.6 249.6 0 0 0 7.5-9c0-.3 0-.3-.6.2l-.3.3v-.2s0-.2.2-.3c.2 0 .3-.2.2-.4l.1-.3c.1 0 .2 0 .1-.1zm-1.2 1.3c-.4 0-1.6.8-1.5 1l-.2.4c-.2.1-.2.2 0 .1s.2 0 0 .3c-.3.2-.4.5-.4.7 0 .3 0 .2.5-.2l.4-.6-.1-.3c0-.1 0-.1.2 0 .1 0 .2 0 0-.1 0-.2 0-.3.4-.3.3 0 .4 0 .3-.4v-.3h.5c.2-.2.2-.3-.1-.3zm-1.5.7h-.2l-.4.2c0 .2.5.1.6 0v-.2zm-1.1.3v.4c.3.3.3.3 0 0-.4-.1-.5 0-1 .3l-.4.4.1-.4c0-.4 0-.4-.3-.3-.3.2-1 1.9-1 2.5l.4.1c.5 0 3-2.6 2.6-2.8l-.4-.2zm-6.3 0c-.8.1-.2.1 1.2.1h1.4-2.6zm22.6 0c-.2.1-.1.2 0 .2l.4-.1h-.4zm-4 .2.1.9a39 39 0 0 1 1.3 4.8c.1.8 0 2.2-.8 7-1 6.3-1 6.4-1.4 6.4a12 12 0 0 1-2-4 14 14 0 0 1-.5-5.1 49.5 49.5 0 0 0-1-9.9h-.3c-.4.2-.4.3-.3 1.6a31.8 31.8 0 0 0 .7 4.7v3.6c.1 2.5.2 3.2.6 4.2a216.2 216.2 0 0 1 1.4 3.5l.5 1c.6.6 1.1.8 1.5.3a67.9 67.9 0 0 0 2-11.2c.3-1 .3-1.4 0-2.8-.7-3.4-1.3-5-1.8-5zm-6.2 0 .1.2c.2.2.3.5.3.8 0 .8.2 1.8.4 1.7v3.5l-.3-2.6-.3-2.4c0-.4-.2-.8-.3-1-.3-.2-.3-.1-.3.3l.3 2.6c.3 2.4.4 4.2 0 4-.2 0-.2.2 0 .4l.5.1c.1 0 .2-.2.2-.5v.6l-.2.4h.9v-.3c-.4-.3-.4-.6 0-.6.2 0 .2-.1-.2-2.1-.2-.6-.1-.7 0-.6.3.2.3 0 .2-1a22 22 0 0 1-.2-2.4c0-.8 0-1-.3-.8h-.6l-.2-.3zm7 .7.3.8c0 .2.1.3.2.3.2 0 0-.5-.2-.9l-.2-.2zm-6.3.2v.7-.7zm-9.4.1s-.2.3-.2.7c0 .7.1.7.3-.1v-.6zm2.2 1-.7.4c-.8.7-1.5.8-1.7.4v.4c0 .4.1.8.3.9.2 0 .2.1 0 .1-.1 0-.3.3-.3.5l-.1.5c-.1 0-.3.2-.3.5l-.1.4.3-.4 1.4-1.6c.6-.6 1-1.3 1-1.4-.1-.2 0-.2 0-.2.1 0 .3 0 .5-.2s.2-.3-.2-.1c-.2 0-.3 0-.1-.2zm-1.8 1.3h.4l-.3.1c-.2 0-.3 0 0-.1zm16.2 0v.5s.1-.3 0-.4c0 0 0-.1 0 0zm-15.6.3c.3 0 .3 0 0 .2-.3.3-.6.3-.5 0l.5-.2zm16 1v.4c-.1.3 0 .6.1.6l.2.5v.5l.1-.3a2.8 2.8 0 0 0-.3-1.6zm-9.1 1.5-.2.6c0 .4 0 .4.2 0 .2-.5.2-.7 0-.6zm10.5 1c-.4 0-.7.8-1 2.3a357 357 0 0 1-1.7 10.4v1c.2.2.2.3 0 .3-.1 0-.2.3-.2.7a10.6 10.6 0 0 0 .8 3.7c0 .6 1.7 4 2.2 4.4l.4.2c.2 0 .6-.3.7-.6l.2-.6a99.1 99.1 0 0 0 2-13c0-2.1-.5-3.6-2-6.6-.6-1.5-1-2.2-1.4-2.1zm-1.4.4a42.3 42.3 0 0 0-.8 6.9v.8l.2-.9c.3-1 .7-3.7.6-4.6v-.3c.2.3.3.2.3-.4.1-.7-.1-1.7-.3-1.5zm-6.5.5-.1.1-.6.4.2.3c.3.3.5.6.5 1v.5c.1 0 .2-.6.2-1.3 0-.8 0-1-.2-1zm8.1.3.5.5c1.8 4.2 2.2 5.6 2.2 7.6 0 1.1-1.8 13-2.1 13.4-.3.3-.5 0-1.2-1.4l-.7-1.7c0-.1 0-.2-.2-.2-.1 0-.2 0-.1-.1l-.3-1.6c-.2-.8-.4-2-.4-2.7 0-1.6 2-13.7 2.3-13.8zm1.1.2.2.6c0 .4 0 .4.2 0 0-.1 0-.4-.3-.6-.1-.1-.2-.1 0 0zm-13.5.4-.2.3c-.2.5-.5.6-.5.3 0-.2-.2-.2-.5 0-.2 0-.4.2-.4.3 0 .2 0 .3-.2.2l-1.4.7-1.7 1c-.4.2-.6.5-.6.6v.3c-.2 0-.3 0-.2-.1.2-.3.1-.3-.6 0-.7.4-.9.6-.3.4.3 0 .3 0 0 .2l-.4.4c0 .2 1.2-.4 2.3-1.2.5-.4.9-.8.8-.9l.4-.1a3 3 0 0 0 1.2-.6l1.8-.9.8-.3-.2-.4-.1-.2zm.5 1-.3.9-.5 1.2-1 1.9c-.8 1.8-2.2 3.5-4 4.6-.7.5-1.4 1-1.6 1a374.3 374.3 0 0 1-8.9 5.5c-.2-.1 2.1-4.8 3.1-6.1.4-.6 1.3-1.5 2-2a229 229 0 0 0 3-2c.1 0 6.8-4.2 7-4.5.4-.3 0-.3-.7 0a41.2 41.2 0 0 0-4.8 3 8 8 0 0 0-2.1 1.5h-.3l-.5.4-.5.4c-.3 0-2.4 1.6-2.5 1.9 0 .2-.2.3-.4.3s-.3 0-.3.2l-.6.8a16.6 16.6 0 0 0-3 6.3c0 .6 0 .7.6.7a318 318 0 0 1 9.8-6c1-.6 3.5-2.6 3.6-3a15.4 15.4 0 0 0 2.8-6zm.2.9v.3c-.1.4-.1.5 0 .4.1-.1.2-.4.1-.6v-.1zm9.7 1c.1.2 0 .3 0 .4v-.5zm4.6 0v.3l.3.4c.1 0 .1-.2 0-.4l-.3-.3zm-26 .5-.3.3-.3.5c0 .3.1.2.4-.4l.2-.4zm3.7 1c-.1 0-.3 0-.4.2 0 0 0 .2.2.2.4 0 .4-.1.2-.3zm-.6.6c-.4 0-.7.1-1 .4a3 3 0 0 1-.9.6l-.6.4h.3c.1 0 .1 0 0 .1 0 .2-.2.2-.3.1l-.8-.2h-.5l.5.2c.4.2.5.2.2.4-.2.1-.2.2.2.2.5 0 1-.6.9-.9 0-.1 0-.1.2 0 .2 0 .3 0 .2-.1 0-.1 0-.2.2-.2l1-.4.7-.5-.3-.1zm-4 .6v.5c.1 0 .1-.2 0-.4zm16.8.6.2.2.3.4c.2 0 0-.2-.3-.4l-.2-.2zm4.8.6c-.4 0-.6 1.3-.5 2 .2.6.5.5.5-.2l.1-1.2c.1-.5 0-.6-.1-.6zm6.2.7c-.2-.2-.2.9 0 2v.8l.2-.6c.1-.3.3-.7.5-.7.1-.1.1-.2 0-.2-.2 0-.4-.5-.6-1l-.1-.3zm1.1 1.6c-.4 0-.7.6-.9 2a106.9 106.9 0 0 1-1.6 9.7c-.3 2-.2 4.4.3 6 .8 2.5 1.9 5 2.1 4.8.1 0 .2 0 .3.2l.1.1c-.8-.3-.9-.3-.6 0 .2.2.6.4 1 .4.3 0 .7-.2.8-.3.2-.3.2-.3 0-.3s-.4 0-.5.2l-.4.1c.4-.1.9-1 1-1.8a294.3 294.3 0 0 1 1.7-10.3c.3-1.2.2-2.5-.2-4.3-.2-1.2-1.2-3.8-1.4-4l-.2-.4-.1-.4-.6-1c-.3-.5-.5-.7-.8-.7zm-8 .2-.2.4v.9l.2.2v-.2l.1-.5c.2-.2.2-.4 0-.6l-.1-.2zm-12.6.3a70.7 70.7 0 0 1-3.2 2.4c0 .3.3.2 1 0l1-.3c.3.1.5-.2.3-.4-.4-.2-.3-.5.5-1.3l.4-.4zm21 .4 1 2.5c1.8 4.1 1.9 5.4.6 12.3l-.8 4.8c-.4 2.8-.5 2.8-1.7.2a13 13 0 0 1-1.3-8.5l.4-2.7v-.8l.1-.2.3-1.2a39 39 0 0 1 1.2-6.3l.1-.1zm-31.2.2-.5.4-.2.4.4-.4.3-.4zm32.2.2v.4c.2.2.2.2.3 0 0-.3-.1-.5-.3-.4zm-2.6.6-.2.5c0 .4-.2.7-.3.7-.1 0-.2.2-.1.6v.7c-.2 0-.3.2-.3.4l.2-.1c.2-.2.2-.2.2.1 0 .2.2-.3.3-1.1l.2-1.8zm-22 .6v.2c0 .1 0 .2-.2.2 0 0-.1 0 0-.2l.2-.2zm1.4.2c-.4 0-1.8.6-1.8.8 0 .1-.1.2-.3.2a4 4 0 0 0-1.6 1l-.3.2-1.3.7-1.4.9c-.2 0-1.3.8-2.3 1.5-1.1.7-2 1.3-2.2 1.3-.1 0-.7.6-2.8 3.1-.3.4-1.4 2.6-1.4 2.9l-.3.4c-.4.5-1 2.4-.8 2.8.1.4 1.3.2 2.4-.5l5.7-3.8c4.2-2.6 5.9-4 7-6.2a267.5 267.5 0 0 1 1.2-2.4l.2-.6c.2-.1.3-.7.3-1.2 0-.8 0-1-.3-1zm0 .3c.4 0 .2.6-.4 1.8l-.4 1-.6 1.3-.7 1.2-.8 1c-.5.5-.8 1-.7 1 0 .2 0 .2-.1.1-.2 0-.5 0-.7.3l-2.3 1.6a12.2 12.2 0 0 0-1.9 1.3s-1.6.8-4.2 2.5c-3.2 2.1-3.5 2.1-2.5.2.3-.5.5-1 .4-1.2v-.1c.1 0 .5-.5.9-1.3.9-1.8 2.9-4 5-5.2a18.7 18.7 0 0 0 2.8-1.8l3.1-2c1.8-1.1 2.7-1.7 3-1.7zm-3 .7-.2.2-.4.3c0 .2.2 0 .5-.3l.1-.2zm-.7 0s-.2 0-.4.3c-.4.3-.3.3 0 0 .3 0 .5-.2.4-.3zm-1.6 1.2c-.4 0-.5 0-.3.2.2.1.2.2-.1.4-.2 0-.3.2-.1.2l.7-.4.4-.4zm30 0 .1.4c.2.3.3.2.2-.1 0-.2-.2-.3-.2-.2zm-35.9.1-.2.3c0 .1.1.2.2.1l.2-.3c0-.1 0-.2-.2-.1zm11.3.5-.3.5v.4c.3-.1.4-.9.3-.9zm-6.4.2h-.5l-1.8 1.2-1.6 1-.8.2c-.5 0-.5.3-.1.7.2.2.3.2 1-.3l2-1.3c.7-.4 1-.8 1-1 0 0 0-.1.2 0 .2 0 .4 0 .5-.2.2-.2.2-.3 0-.3zm25.9 0v.6c.1-.1.1-.3 0-.4v-.1zm0 1c-.2 0-.3.4-.4 1.3a6 6 0 0 0-.1 1.4c.2.4.4 0 .5-1l.2-1.3c0-.2 0-.3-.2-.3zm-.2 1.3v.5-.5zm6 .2v.6-.6zm0 1-.3 2.2a43 43 0 0 1-.8 5.5c0 .8-.2 1.7-.3 2-.1.5-.1.5.2.2.2-.2.4-.7.4-1.2v-2c.2-1 .2-1 .4-.5v-.3c0-.8.2-2.9.3-2.2 0 .2.1.1.3-.2v-1c0-.4 0-.7.2-.8.1 0 .1-.2 0-.2 0 0-.2-.3-.2-.7l-.1-.8zm-6.2 1.2v.5c.1-.1.1-.3 0-.4v-.1zm7.4.4c-.1 0-.3 0-.4.2-.3.2-.8 3.3-1 5.1l-.2 1.8a17 17 0 0 0-.8 4.7v.6c-.2 0-.3.7-.3 2a9 9 0 0 0 .6 3.8c.6 1.7 1.6 3.8 2.2 4.5.3.3.4.3.7 0 .3-.1.5-.4.5-.6l.2-.8a65 65 0 0 1 .8-4.5 36.8 36.8 0 0 0 1-6.4c.2.2.3-.2.2-1.7a10.6 10.6 0 0 0-.4-2.8l-.4-1.2-1.3-2.8c-.6-1.3-1-2-1.4-2zm-8 .4c0 .2-.3.5-.5.7-.3.3-.3.4-.1.4.3 0 .8-1 .6-1.1zm-22.3.2c0-.2-.2 0-.6.2l-.7.7c0 .2 1.2-.7 1.3-1zm22.7.2v.3c0 .2-.2.4-.3.4 0 0-.1.2 0 .4 0 .2.1.2.3-.2v-.8zm8 0 .2.6 1 2.3a13 13 0 0 1 1 8.5 4929.7 4929.7 0 0 1-1.6 9.8c-.2 1-.6.7-1.3-.9-1.7-3.5-2-6-1.3-10a27.1 27.1 0 0 0 .6-4l.3-1.5c.6-3.9.8-5 1-4.7zm-1.6.2v.5-.5zm-31 1-.1.2-.2.3c-.2 0-.3 0-.2-.1 0-.2-.7.2-1.7.9-1 .6-1.7 1.2-1.7 1.3l.3.1c.2 0 .2 0 .1-.2 0-.1 0-.2.1 0 .1 0 .4 0 .5-.2a9 9 0 0 1 3.1-1.6c.7 0 1-.3.5-.5l-.7-.2zm.8.8c-.5-.1-2 .5-2 .8l-.3.1-.8.5a40.8 40.8 0 0 0-4.2 2.6l-3.5 2.3c-.4.2-2.6 2.2-2.6 2.4l-.5.7-1 1.9-1 2c-.2.4-.2.7 0 .9.2.2.1.2-.4.3-.3 0-.4.8-.1 1.2.1.2.4.2.7.2l4.3-2.6a37.8 37.8 0 0 1 4-2.5l1.9-1.2c.8-.5 2.8-2.4 3.6-3.4l1.2-2.4c1.1-2.2 1.4-3.7.7-3.8zm0 .2c.3 0 .1.5-.3 1.5-2.1 4.8-2.6 5.3-9.3 9.6a99 99 0 0 1-6.4 3.8c0-.3 2.5-5.2 3-6a18 18 0 0 1 4.6-3.8 754 754 0 0 0 8.5-5.1zm34.2 1.4v.4h.3l-.1-.3-.2-.1zm-39.8.5v.3c.1.5.2.4.2 0 0-.3-.1-.4-.2-.3zm-.6.4c-.1 0-.1.1 0 .2 0 .1 0 .3-.2.4-.2 0-.2 0-.1-.1v-.3c-.2 0-1.7 1.1-1.7 1.3 0 0 0 .1-.2 0-.2 0-1.6.9-1.5 1 .1 0 0 .2-.3.2l-.5.1h.6c.7-.1 2.4-1.2 2.1-1.5h.5c0-.2 0-.3.1-.2.5 0 1.6-.6 1.5-1 0-.1-.2-.2-.3-.1zm-5.4 1c-.1-.1-.2 0-.3.2-.1.3 0 .3.1.1.2-.1.2-.3.2-.4zm1 2.3-.5.1c-.3 0-.5.3-.6.5 0 .3 0 .3.5 0l.6-.6zm45.7.2s-.2.4-.2 1l-.1 2c-.1.5-.1.9 0 .8 0 0 .2 0 .2.3l-.2.2a33.4 33.4 0 0 0-1.5 8.6l-.3.5c-.2.4-.5.6-.9.7-.4.1-.5.2-.4.3.2.1.5 0 .8 0 .6-.3.6-.3.7.2 0 .6.5-1.5.6-2.5 0-.6.1-1.1.2-1.1.2 0 .6-3.2.5-3.4-.1-.1 0-.2 0-.2.3 0 .7-3.3.6-4.2v-.5c0 .1.2-.4.1-1.2a5 5 0 0 0-.1-1.5zm-6 .3-.2.2-.1.6v-.6c-.1-.4-.2-.2-.3.5v1.5c.2.5.4-.1.5-1.4v-.8zm-4 .3v.3l.1.6c.2.5.3.3.2-.3 0-.4-.2-.6-.3-.6zm11.1 1-.3.6a1148.6 1148.6 0 0 1-2 11 20.5 20.5 0 0 0 .7 9.4l.2.4c0 .3 0 .6.2.7.1.2.4.3.7.3.3 0 .3 0 0-.2-.4 0-.5-.4-.6-1l-.4-1.8c-.6-2-.6-4.3 0-7.8 1-7 1.6-10.2 1.8-10.4l.7 1.4c2 4.3 2.3 6.3 1.6 10.6a29.5 29.5 0 0 1-2.7 8.8c.4 0 1.6-2.4 2.1-4.4a65.4 65.4 0 0 1 1-3.8l.3-2.3a11 11 0 0 0-.7-6.8l-1-2.2c-.1-.5-.5-1.2-1-1.7zm-49.8 1-.3.3v.3c.2 0 .3-.2.4-.3l-.1-.3zm8.6 1.4v.3l.1.3.1-.3c0-.2 0-.3-.2-.3zm-.8 0h-.1c-.2.1-.2.3-.2.5.1.1.3.2.5.1.3-.1.3-.1 0-.2-.2 0-.3-.2-.3-.3v-.1zm34 0v.5l.3.2-.1-.5-.3-.2zm-34.7.4a2 2 0 0 0-.9.6c0 .2-.6.5-1 .7l-.8.5c0 .1-.1.2-.3.2l-1 .5c-.3.3-.4.5-.3.5.2 0 .2 0 0 .2-.2 0-.2.2-.1.2l.6-.3c.2-.2.2-.3 0-.4l.2-.3c.4-.2.5-.2.4.1-.2.3 0 .3.5-.1.3-.3.6-.5.5-.6 0-.1 0-.2.1-.1.2 0 .8-.2 1.4-.6.6-.4 1-.7.8-.7-.1 0-.2-.1 0-.3zm2.1.2.1.2.1.7c0 .3 0 .3.2 0 0-.2 0-.5-.2-.7l-.2-.2zm-2.4.2c.1 0 .2 0 .1.2l-.3.2c-.1 0-.2-.1 0-.2l.2-.2zm2 0c-.7 0-2 .5-2.2.8l-.2.2-2.2 1.3a52.2 52.2 0 0 1-5.6 3.6 8 8 0 0 0-1.6 1.2l-1 .9-1 1.3c-1.3 2-2.7 6.8-2.3 7.7l.5.4 1.4-1.3a33 33 0 0 1 4-3.5l.3-.3c0-.2.2-.3.3-.3a11 11 0 0 0 2.6-1.6l.3-.2a13.4 13.4 0 0 0 5.6-5.5 133.7 133.7 0 0 1 1.5-3.6c.3-.4 0-1.1-.5-1.1zm0 .2c.3.1.1.6-.3 1.6-1.8 4-2.8 5.2-6.5 7.6l-3.8 2.5c-.6.5-2 1.6-3 2.6s-1.8 1.7-2 1.5c0-.2 1.2-4.5 1.7-5.5l.6-.9.3-.4 1-1.3c1-1 2-1.5 5.6-3.9a143 143 0 0 0 4.5-2.8c1.1-.7 1.7-1 2-1zm43.8 1 .2 1c.1.6.3 1 .3.8.1-.3-.3-1.9-.5-1.8zm-43.8 1.4c-.1 0-.2.1-.2.3v.3l.3-.3v-.3zm-6.8.5c-.7 0-3.4 1.8-3.4 2.2 0 .3 0 .3.5 0l.8-.7.3-.2a14.8 14.8 0 0 0 2.2-1.4h-.4zm45.6.8c.1.2.1.4 0 .4v-.4zm-49.6 1.4a1 1 0 0 0-.4 0l-.5.2.5.1c.4.2.4.2.2.5-.3.3-.3.3.1 0s.5-.7.1-.8zm9.6.3-.2.2-.4.3c0 .2.2 0 .4-.3l.2-.2zm46 .2-.1.3v.3c.2 0 .3-.1.3-.3l-.1-.3zm-56.6.5v.2c0 .2 0 .3.1.2v-.4zm56.6.4c-.1 0-.2.2-.2.5 0 .2 0 .4.2.3h.3c0 .2.2.3.4.3.3 0 .3 0 0-.1-.2 0-.4-.4-.4-.6l-.3-.4zm1 1.1c-.3 0-.6.5-.7 1.6a32.6 32.6 0 0 1-4 11.4c-.6.6-2 6-2 7.5.2 1 .4.3.8-1.8.5-2.3 1.4-4.6 2.4-6.4 1.6-2.4 2.7-5.6 3.4-9.4.4-2.4.5-2.3 1.6.8.7 2 .8 2.4.8 4.4 0 2.8-.3 3.7-2 6.4a27 27 0 0 1-5.7 6.4c-1 .6-.9.8.2.3a23.8 23.8 0 0 0 5.2-5.4l.1-.3c.3.2 2-2.9 2.5-4.7a7 7 0 0 0 .3-3.3c-.1-2-.5-3.2-1.6-5.9-.5-1-.9-1.6-1.2-1.6zm-49 .2-.2.2-.4.3c0 .2.2 0 .4-.3l.2-.2zm48.3.1c-.1.2-.3.3-.4.3l-.3.3-.1 1.4c-.1.8-.1.9.2.8.1 0 .3-.3.2-.4v-1l.4-1.4zm-58.7.4c0-.1-.2 0-.3.3l-.3.7.3-.3.3-.7zm8.6 1c-.2 0-.4.1-.8.5-.3.3-.6.5-.7.4 0 0-.1 0 0 .2 0 .1-.2.4-.5.5l-.5.4h.3c.2 0 .4-.2.5-.3l.5-.2.7-.4c.3-.3.5-.3.6-.1v-.4l-.1-.7zm53 .6h-.2c-.2.2-.2.4-.1.5.2.3.3.2.3-.2v-.3zm-62.7 0-.2.2c-.1.3-.1.4 0 .2.2-.2.3-.3.2-.4zm9.5.7c-.3 0-1 .4-2.6 1.3a30.1 30.1 0 0 0-7.6 7.2l-.4 1.1c-.5 1-.8 2.5-.8 4 0 1.9.4 4.7.8 5.6.7 1.4 1 1.2 1.8-1 1-3 3.8-7.8 5.9-9.9 1-1 2-2.9 3-5.5.7-1.7.8-2.5.5-2.7h-.1c.3.6-2.3 6-3.6 7.4-1 1.1-2.7 3.1-3.3 4a35.5 35.5 0 0 0-3.7 7.3c-.3 0-.7-3-.8-4.8 0-3.4 1-5.7 3.9-8.6 1-1 2.4-2.3 3.1-2.7 3.3-2.2 4.1-2.7 3.9-2.7zm-2.4.2s-.2 0-.3.3l-.6.3c-.3 0-.7.6-.6.7.1.1 0 .1 0 0-.2 0-.5 0-.7.3-.3.3-.3.4-.2.5.2 0 .1.1-.1.2h-.5c0-.2-.4 0-.9.5-1.6 1.4-2.1 2-2 2.3 0 .1 0 .2 0 0-.2-.1-1.2.7-1 1v.1l-.6.1c-.3.1-.3.2-.1.3.2.2.2.3 0 .5l-.2.5c0 .1 0 .2.2.1l.2-.4c0-.1.2-.4.5-.6l.5-.5a17.2 17.2 0 0 1 4.2-3.9l1.6-1.1.3-.3.1-.6.2-.3zm-7.8 7.6zm.2-7.3v.5c.2-.1.2-.3.1-.4v-.1zm59.5.4c-.2 0-.4.2-.4.7l-.3 1.1a18 18 0 0 0-1.1 3.6c.2.4.4 0 .3-.5 0-.4 0-.6.2-.6s.5-.6 1-2c.7-2.4.7-2.3.3-2.3zm4.2.4v.7c0 .3.2.6.2.5v-.7l-.2-.5zm-53.1 1.3-.2.2c-.2.1-.4.5-.4.8v.6l.2-.4.2-.8.2-.4zm-8 1.7-.1.3c-.2.2-.3.2-.3 0s.4-.5.5-.3zm-3.7 1c0-.2-.1-.1-.1.2v.4l.1-.6zm10 .6-.1.4s0 .1.2 0l.2-.3c0-.1-.1-.1-.2 0zm55.2.7v.5-.5zm-7 .3-.1.4-.4.7c-.2.2-.4.6-.3.8.1.4.1.4.4.1.7-1.2 1-1.5.7-1.4-.2.2-.3.1-.2-.2v-.4zm6.6 1.3-.4.8c-.2.5-.3 1-.2 1.3 0 .3 0 .4-.1.2-.2 0-.2 0-.1.1.1.2.2.2.5-.2l.3-.5v-.3c.2-.2.2-.5.1-.8zm-56.5.4c-.3 0-2 2.1-2.8 3.4-.3.4-.3.6-.1.7.2.1.9-.5.9-.8l.6-.8.6-1 .1-.2h.6c.3-.2.3-.2-.2-.3h-.6l.5-.5c.4-.2.5-.5.4-.5zm57 1.2-.4.6-1.6 2.3a29.8 29.8 0 0 1-3.6 4.4l-1.2 1-1.5 1.3a19 19 0 0 0-4.6 4.5l-.7 1.2c-.7 1.1-.9 2.1-.3 2.3l2.4-.4a23.5 23.5 0 0 0 5.8-2.7c.1 0 .3 0 .3-.2 0-.1 1.2-1 2.2-1.5.6-.4 2.2-2.3 2.3-2.8 0-.3.2-.5.3-.5l.4-.7c.5-1.5.8-3 1-5.3 0-2.3 0-2.6-.3-3zm-56.6 0c-.4 0-2.2 1.7-2.6 2.6l-1 1.6c-.3.6-.6 1.1-.5 1.2 0 .1 0 .3-.2.3l-.3.3-.6 2a3 3 0 0 0-.4 1.4c0 .2-.1.5-.3.6-.3.4-.4 4.3-.1 5.4a20.1 20.1 0 0 0 3.8 6.7l.3.3h.6c.1 0 .2-1.6.2-4.3 0-4.6 0-4.6 1.2-8.6.7-2.3.8-2.4.7-5.5 0-3.3-.1-4-.8-4zm0 .2c.3 0 .4.3.4 2.5 0 2.7-.2 4.2-1 6.2a25 25 0 0 0-1.3 9c0 2.2 0 3.4-.2 3.4l-.9-1.1c-.3-.7-1-1.7-1.2-2.3a9 9 0 0 1-1.4-5.4c0-1.5 0-2.4.3-3.1l.7-2a22 22 0 0 1 4.6-7.2zm.9 0-.1.3c0 .2 0 .3.2.3v-.3l-.1-.3zm-9.6.1-.3.3c-.2.3-.2.4 0 .4.1 0 .4-.6.3-.7zm66.3 0c-.1 0-.2.6-.2 1.9 0 1 0 1.9.1 1.8.2-.2.3-3.5.1-3.6zm-2.8 1-.5.8c-.2.3-.2.5-.1.4 0 0 .2 0 .2.2v.1a23.2 23.2 0 0 1 .4-.7c-.3.2-.3 0 0-.5v-.3zm-57.2.1c.1 0 .1.1 0 .2l-.1.2-.1-.2s0-.2.2-.2zm59 0c.2 0 .2.7.1 2.3-.2 4-1 5.8-3 8-1.8 2-5.8 4.2-9.4 5.3-1 .4-1.8.4-1.8 0 0-.3 2.9-4.1 3.8-5l2.4-1.8a27.3 27.3 0 0 0 7.9-8.7zm-55.5.2-.2.2v.2c.2 0 .3 0 .3-.2l-.1-.2zm0 1.3v.5-.4zm52.8 0-.1.3c0 .1.1.2.3.1l.3-.1-.3-.2h-.2zm-58 .7v.5c0 .3 0 .4-.1.2-.2 0-.2 0-.1.1.2.4.5.1.5-.5 0-.3-.1-.4-.2-.3zm57.8 0v.2c-.1.1-.3.3-.5.3s-.7.5-1.2 1c-1 1.4-3.2 3.3-3.8 3.4-.3.2-.4.6-.3 1.1h.2v-.1c-.1-.1 0-.2.1-.2l.7-.4 1.1-1c.5-.3.7-.6.7-.8v-.1c.4.1 3-2.7 3-3.2v-.1zm-58.2 1.3c-.2 0-.3.1-.2.2l.2.2.2-.2c0-.1 0-.2-.2-.2zm-.3.5c-.2-.2-.6.5-1.4 3-.3 1-.6 1.6-1 1.9l-.4.3.5.2c.4 0 .5.1.5 1.7v2.1l.2.5c.2 0-.1-4.2-.2-4.3-.1 0-.1-.4 0-.8.1-.3.3-.5.4-.3 0 0 .3-.3.5-1l.5-1.5c.1-.3.1-.3 0-.2-.2 0-.2 0-.2-.3 0-.2.2-.3.4-.3.3 0 .5-.7.2-1zm-.2.1.1.1v.4l-.1-.3v-.2zm-4 .4v.8c-.1.4 0 .8 0 .8l.2-.8-.1-.8zm10 .9-.2.3s0 .2.2.2l.2-.3c0-.2-.1-.3-.2-.2zm-9.7 1-.1.2v.6c0 .5.2.3.1-.4v-.4zm9.5 2c-.2 0-.2 0 0 0h.3-.3zm.6.1-.4.4c-.7.8-1 3.1-1 6.9v4.6c.2 1.1 1 3.2 1.7 4.1.5.6 2 2.2 2.6 2.6 1 .9 2 1.4 3 2 1.4.7 1.6.8 2 .4.1-.3 0-.8-1-2.7a28.6 28.6 0 0 1-3.1-10.1c-.3-2-1-4.6-1.7-5.5-.3-.4-.5-1-.5-1.1 0-.3 0-.4-.2-.4l-.3-.4c0-.2-.3-.5-.6-.6l-.5-.2zm-.8.1c-.3 0-.3 0-.2.3 0 .3.1.4.1.2 0-.1.2-.2.3-.1h.2c0-.2-.2-.3-.4-.4zm1 0a43.2 43.2 0 0 0 2.2 4.5 23.8 23.8 0 0 1 1 6.2 61.8 61.8 0 0 1 .9 2.7v.2c-.1.6 1 3.5 2 5.3l.5 1.2-.1.2c-.2 0-1.7-1-1.9-1.2l-1-.8a12 12 0 0 1-3.7-3.8c-.8-1.7-1.1-3.2-1.2-6.4-.1-2.5 0-3.2.3-5 .4-2.3.7-3 1-3zm.9.2v.3c.1.3.2.4.3.2 0-.1 0-.4-.2-.5h-.1zm53.2.3-.3.4-.1.4.3-.4.1-.4zm-55.6.5c-.3-.2-.5.8-.4 1.6l.2.8.2-1.1v-1.3zm54.1 1.4-.4.3c-.3.2-.5.5-.5.7-.1.4 0 .4.6 0l.4-.7v-.3zm-1 1zm-53.8-.8v.2c0 .2 0 .3.1.2v-.4zm53.6.7c-.2 0-.4.3-.9.6l-1.4 1c-.4.2-.6.5-.6.6 0 .1 0 .2-.1.1l-1.5.5c-.7.3-1 .6-1 .7h-.2l-2 .5a6 6 0 0 1-2.2.4h-1l.4.3c.3.3.3.4 0 .5-.2.2-.2.2.1.1a62.5 62.5 0 0 1 1.4-.5c0-.2 0-.2.3-.1h.4l1-.2c.5 0 1-.2 1.2-.4l1-.5c.3-.2.6-.4.5-.5 0 0 0-.1.1 0 .3.1 1.5-.4 2.4-1l.8-.5c.3 0 1.3-1 1.4-1.3l-.1-.3zm-53.3.3v.5-.5zm54.4 0c-.3 0-.6.2-1 .6a17.9 17.9 0 0 1-2.2 1.4 28.5 28.5 0 0 1-7.2 3c-3 .6-5 1.4-7.5 3-1.5 1-1.7 1.2-1.7 1.8 0 .5.7.8 2.5 1 2 .3 3.6.3 6.7-.2a11 11 0 0 0 5.3-1.7c.4-.3.8-.6 1-.6 0 0 .2-.1.2-.3 0-.2 0-.3.2-.2.2 0 .2-.1.2-.2 0-.2 0-.3.2-.2.2 0 .2-.1.2-.2 0-.2 0-.3.2-.3.3 0 1.5-1.7 2-2.8l.4-.6.2-.2.4-1c.6-1.5.7-2 .1-2.2h-.2zm1 .6-.1.2c0 .2 0 .3.1.2v-.4zm-1 .4s0 .4-.2.7l-.3.7c.1 0 0 .3-.2.5l-1 1.6a11 11 0 0 1-7.8 5.5 41.3 41.3 0 0 1-9 .2c-.7 0-.9-.2-.9-.5 0-.2.1-.4.3-.4l.6-.3.6-.4 1.4-.8c1.2-.7 3.8-1.6 6.1-2 2.9-.7 6.5-2.3 9-4l1.4-.8zm-54.6.4-.1 1c0 .7-.1.6-.2-.4l-.1 1.8c0 4.9 0 5 .4 5 .1 0 .3.2.4.6 0 .3.1.5.2.5l-.1-.9a18 18 0 0 1-.3-4.2c0-2 0-3.4-.2-3.4zm43.2 0-.2.4.1.3.2-.3v-.3zm3.2 2.4h.5-.5zm-51 .8h-.1c0 .2 0 .3.2.3h.2l-.2-.3zm10.8.2-.2.1a16 16 0 0 0 1 5c0 .3.2.6.3.5.1 0 .2 0 .2.3l.1 1.1c.2.8.2.8.3.3l.2-.2.1.2c.1-.1 0-.3 0-.4l-.4-.8-.4-1.3a3 3 0 0 1-.3-1c0-.3-.2-1.3-.4-1.2v-1c0-1 0-1.3-.2-1.5l-.3-.1zm1.1 0c-.4.1-.4.2-.3 1.4a12.2 12.2 0 0 0 1 4.1 88.2 88.2 0 0 1 1 2.6 18.5 18.5 0 0 0 3.3 5.2l.9.7 1.4.8c1 .6 2.5 1 4.8 1.4 2 .4 3.6.3 3.6-.2 0-.3-1-1.2-2-2a25 25 0 0 1-7.2-8.5l-.8-1a12 12 0 0 0-1.6-1.8 17328.4 17328.4 0 0 1-2.3-1.7s-.1 0 0-.1c0-.4-1.2-1-1.8-.9zm.1.2a14 14 0 0 1 3.4 2.8c.6.6 1.6 2 2.3 3 2 3.2 2.3 3.5 2.5 3.4v.2c-.2.6 5.4 6 6 5.7l.1.3c0 .3 0 .4-.4.3-1 0-4.6-.8-5.6-1.2a11.2 11.2 0 0 1-4.6-3.6 36 36 0 0 1-3-6.2c-.7-2.4-1-4.7-.7-4.7zm-1.2 0v.6-.5zm2.8.1v.3c.1.2.2.3.3.2 0 0 0-.2-.2-.3l-.1-.2zm29.7 1.4-.6.3-.2.3.6-.3.2-.3zm-41.2 1.1c-.3-.1-.3 0 0 .5l.4.4c.2 0-.1-.7-.4-.9zm15 .3c-.2 0 .1.7.3.9.4.2.4.1 0-.4a2 2 0 0 0-.4-.5zm-5.7.3v.5-.5zm43.7.3-.3.2-.3.3c0 .2.1.1.4-.2l.2-.3zM247 312h.5-.5zm31.9 0h.5-.5zm-33.8.2v.1c0 .2.2.7.6 1 .3.5.6.8.7.7 0 0 0-.2-.2-.3-.2-.1-.2-.2 0-.2.1 0 .2-.2.2-.5 0-.4 0-.5-.5-.5-.4 0-.7 0-.7-.2l-.1-.1zm2 0c-.2 0-.3 0-.4.2-.3.3-.1 1.3.2 1.3v.3c0 .2.8 1.4 2 2.6l.6.8.3.1c.2 0 .3 0 .2.2-.1.1.6.8.9.8l.2.3.1.3 1.4 1c.6.6 1.3 1 1.5 1l.3.2h-.2c-.3 0-1.3-.5-2.4-1.6l-.8-.5c-.2 0 0 0 .1.2.2 0 .3.3.2.4 0 .1 0 .2.1 0l.5.3c.2.3.2.3 0 .2-.7-.2-.5 0 .7.8l1.3 1.1c.1.3.3.3.5.2l.9-.1c.4 0 .4 0-.2-.3-.4-.2-.7-.5-.7-.6v-.1c0 .3 1.5 1 3 1.4 2 .5 5 .2 8.3-.7 1-.3 1.7-.9 1.6-1.3-.1-.2-.6-.4-1-.6a32.4 32.4 0 0 1-12-5.4c-.1-.4-1.8-1.1-3.5-1.7-1.8-.6-3-1-3.7-.8zm30.4.1-.1.2c-.1.2-.3.2-.5.1-.1 0-.2 0 0 0l-.1.3-.3-.1c0-.1-.7 0-1.6 0-1.1.3-2.6.3-4.6.3-2.4-.1-3 0-3 .1 0 .2.4.3 1 .4 2.6.2 4.9.1 6.7-.2l2.6-.5a20.4 20.4 0 0 1-.1-.6zm-11.3.1v.2c0 .2-.2.3-.3.2l-.3.1c0 .1 0 .2.3.3 1.1.3 1.7-.2.7-.7h-.4zm-19.3.2h.6c.5 0 .9 0 .8.2l.7.2c1.4.2 4 1.6 6.7 3.4l3.4 2a21.3 21.3 0 0 0 5.3 2l.7.2c1.4.4 1.2.7-.8 1.2-4.9 1.1-7.7.7-10.8-1.6a31.2 31.2 0 0 1-6.5-6.8c-.4-.6-.5-.8 0-.8zm14.8 0h.7-.7zm2.9.2zm0 0h.7-.6zm-2 .1c-1 0-2 0-3 .2l-2 .3c-.5 0-1 .3-1 .5-.3.4-.3.4.2.2a19.4 19.4 0 0 1 9.6.1 34.3 34.3 0 0 0 10.5 0c1-.3 1.2 0 .4.6a28 28 0 0 0-1.7 1.3l-.9.6c-2.4 2.2-6.4 2.7-10.5 1.4a30.7 30.7 0 0 1-7-3.2c-.7-.4-.7-.3-.5 0a710.7 710.7 0 0 1 3 2 19.7 19.7 0 0 0 5.4 1.8c0 .1.4.3 1 .4 1.4.3 3.9.3 5 0 1.6-.4 3.2-1.2 3-1.5 0-.2 0-.2.2-.2s1.4-.5 1.4-.7l.6-.4c1-.6 2.8-2.6 2.6-3-.2-.2-1.3-.1-3.9.3-2.4.4-6 .3-9-.3a21 21 0 0 0-3.4-.4zm-23.1 1.7-.2.2c-.1.3.4 1.4.6 1.2.1-.1.1 0 0 0 0 .3 1.2 3 1.4 2.8l.1.2c0 .2.1.3.3.2.2 0 .4 0 .4.2.1.2.3.3.4.3.2 0 0-.5-.9-1.5a8.8 8.8 0 0 1-1.6-3l-.3-.4-.2-.2zm16.3.3c-.4 0-.4.1.3.7.6.5 1.4.7 1.4.3l-.3-.3c-.1 0-.1 0 0 .1 0 .1 0 .2-.2.2s-.3 0-.3-.3c.2-.4-.3-.9-.9-.7zm.4.2.3.2-.2.2c-.1 0-.3 0-.3-.2 0 0 0-.2.2-.2zm-9 .1c.3.3.3.6 0 .4-.4-.2.2.5 1.8 2.2l1.6 1.5-.3-.4-.3-.5-.1-.2c-.3 0-.5-.2-.6-.5v-.3l-1.1-1.3-1-.9zm11 1.3c-.4 0-.3.1.4.5l1 .5s.3 0 .5.2c.3.3.3.3.3 0 0-.4-1-.9-1.6-.8-.2 0-.3 0-.2-.2 0 0-.1-.2-.4-.2zm-9.4.6c.2 0 .2.1.2.2v.2s-.2 0-.3-.2l.1-.2zm12.2.6-.3.1c.1.3.6.7 1.2.8.4.1.4.1.2 0-.3-.3 0-.3.5-.1.2 0 .3.1.1.2-.2.2 1.2.7 2.4 1 .5 0 .6 0 .3-.1-.3-.2-.3-.2.2-.2.4 0 .6.1.6.3 0 .1.1.2.4.2.3 0 .5.1.6.3.2.2.2.2 1-.3l.8-.4h-.8a14 14 0 0 1-2.3-.3l-2-.3c-.3 0-.5 0-.5-.2 0 0 0-.2-.3-.2a22 22 0 0 1-2.1-.8zm.3.2.3.2v.2c-.2 0-.3 0-.4-.2v-.2zm-22.8 1c0 .2.2.2.3.2.3 0 .3-.1-.1-.2h-.2zm1.3.6h-.3c0 .2.3.2.4.2.4 0 .4 0 0-.2zm12.6 1c.2 0 .3.1.3.3l-.1.2-.2-.2c-.1-.2 0-.2 0-.2zm.7.5s.2 0 .2.2l-.1.2-.2-.2c-.1-.2 0-.2 0-.2zm14.3.4-.3.1c-.2.2-.2.3 0 .1.3 0 .4-.1.3-.2zm-2 .8c-.1 0-.3 0-.5.2-.2 0-.2.2-.1.2l.5-.2c.2-.1.2-.2.1-.2zm-18.2.3c0-.1-.2 0-.2 0 0 .2.1.3.2.3l.2-.1s0-.2-.2-.2zm2.6.7.3.1h.2-.5z" style="fill:#ece3be;fill-opacity:1;stroke-width:1.66039"/>
        </g>
        <text xml:space="preserve" id="text1207" style="font-style:normal;font-variant:normal;font-weight:400;font-stretch:normal;font-size:38.1px;line-height:1.25;font-family:'Litho Display W05 Press';-inkscape-font-specification:'Litho Display W05 Press, Normal';font-variant-ligatures:normal;font-variant-caps:normal;font-variant-numeric:normal;font-variant-east-asian:normal;letter-spacing:12.7px;fill:#fff;fill-opacity:1;stroke-width:.264583" transform="translate(0 8)"><textPath xlink:href="#path1207" id="textPath1208">Game</textPath></text>
    </g>
</svg>

