<svg xmlns="http://www.w3.org/2000/svg" viewBox="0 0 1440 1024">
    <defs>
        <filter id="_a" width="52.8" height="49.8" x=".3" y=".8" color-interpolation-filters="sRGB" filterUnits="userSpaceOnUse">
            <feFlood flood-opacity="0" result="BackgroundImageFix"/>
            <feBlend in="SourceGraphic" in2="BackgroundImageFix" result="shape"/>
            <feColorMatrix in="SourceAlpha" result="hardAlpha" values="0 0 0 0 0 0 0 0 0 0 0 0 0 0 0 0 0 0 127 0"/>
            <feOffset dy="-6"/>
            <feComposite in2="hardAlpha" k2="-1" k3="1" operator="arithmetic"/>
            <feColorMatrix values="0 0 0 0 0.141176 0 0 0 0 0.188235 0 0 0 0 0.254902 0 0 0 1 0"/>
            <feBlend in2="shape" result="effect1_innerShadow_51_169"/>
        </filter>
        <linearGradient id="b" x1="720" x2="720" y1="701" y2="1055" gradientUnits="userSpaceOnUse">
            <stop stop-color="#3522A0"/>
            <stop offset=".3" stop-color="#2C187F"/>
            <stop offset="1" stop-color="#190334"/>
        </linearGradient>
        <linearGradient id="c" x1="904.5" x2="904.5" y1="861.8" y2="1123.4" gradientUnits="userSpaceOnUse">
            <stop stop-color="#3931C1"/>
            <stop offset="1" stop-color="#3931C1" stop-opacity="0"/>
        </linearGradient>
        <linearGradient id="d" x1="720" x2="720" y1="0" y2="731" gradientUnits="userSpaceOnUse">
            <stop stop-color="#05030F"/>
            <stop offset=".5" stop-color="#131381"/>
            <stop offset="1" stop-color="#35B6FF"/>
        </linearGradient>
        <linearGradient id="e" x1="1675.8" x2="706.4" y1="403.7" y2="1229.8" gradientUnits="userSpaceOnUse">
            <stop stop-color="#2772CB"/>
            <stop offset="1" stop-color="#45A0E8"/>
        </linearGradient>
        <clipPath id="bg_clip">
            <path fill="#fff" d="M0 0h1440v1024H0z"/>
        </clipPath>
    </defs>

    <symbol id="play-button" viewBox="0 0 54 51">
        <path style="fill: var(--buttonFill, oklch(95% 1% 10deg)); filter: url(#_a);" d="m2.3 27-.2-1.6C0 12.7-1 6.4 2.8 3S12.6 1 25 4l1.6.3c16.8 4 25.2 6.1 26.4 12 1.3 6-5.6 11.3-19.4 22l-1.4 1c-11.2 8.7-16.8 13-21.7 11-5-2-6-9.1-8.2-23.3Z"/>
    </symbol>
    <g id="game-bg" clip-path="url(#bg_clip)">
        <path fill="url(#b)" d="M0 701h1440v354H0z"/>
        <path d="M-112.8 861.8c-104.4 18.6-73 40.7-44.3 49.4 423.2 9.9 1393.4 117.8 1888 233.7 494.7 116 179.9-121.8-39.3-225.5-284-18.1-1042.6-55-1804.4-57.6zm1563.2-117.2A48944.7 48944.7 0 0 0-41 771.8c-181.2 49-441.4 133.3-32.6 78.5 408.8-54.8 1210.7-94 1560.6-98.6 23.7-4.1 49.6 1.6-36.6-7.1z" style="opacity:.25;fill:url(#c)"/>
        <path fill="url(#d)" d="M0 0h1440v731H0z"/>
        <path d="M-105.3 380.4c-231 29.4-563.5 102.1-43.5 76.3 520-25.8 1539-35.4 1983.1-26.8 30.2-2.2 63.3-8.9-46-18.2C989 391 192.8 382.2-105.3 380.4Zm-25.5 102.4c-104.4 4.8-73 10.4-44.3 12.6 423.2 2.5 1393.4 30 1888 59.5 494.7 29.5 179.9-31-39.3-57.4-284-4.6-1042.6-14-1804.4-14.7Z" style="opacity:.5;fill:url(#e)"/>
        <path d="m1499 499-116.6 50.3-20.5-5.2-74.6 67.5-78-15.2-85.6 53.5-26-3.6-86 58.7-74.6-4.7L874 731h625zm-1561 0-125 91.1V731h754l-28.6-35-56.6-24.9-93.2 4.3-81-85.3-72 17.5-57.2 26-129.8-96-30.7 8.5Z" style="fill:#151278"/>
        <path d="M383.7 520.5a4.5 4.5 0 0 1-4.5 4.5 4.5 4.5 0 0 1-4.5-4.5 4.5 4.5 0 0 1 4.5-4.5 4.5 4.5 0 0 1 4.5 4.5zm169 155.2a4.5 4.5 0 0 1-5.5 3.2 4.5 4.5 0 0 1-3.1-5.5 4.5 4.5 0 0 1 5.5-3.2 4.5 4.5 0 0 1 3.2 5.5zm223.4 38.7a4.5 4.5 0 0 1-4.5 4.5 4.5 4.5 0 0 1-4.5-4.5 4.5 4.5 0 0 1 4.5-4.5 4.5 4.5 0 0 1 4.5 4.5zM202.9 262.1a4.5 4.5 0 0 1-5.5 3.1 4.5 4.5 0 0 1-3.2-5.5 4.5 4.5 0 0 1 5.5-3.2 4.5 4.5 0 0 1 3.2 5.6zm799.8-46.6a4.5 4.5 0 0 1-4.5 4.5 4.5 4.5 0 0 1-4.5-4.5 4.5 4.5 0 0 1 4.5-4.5 4.5 4.5 0 0 1 4.5 4.5zm226.9 325.8a4.5 4.5 0 0 1-5.5 3.2 4.5 4.5 0 0 1-3.2-5.5 4.5 4.5 0 0 1 5.5-3.2 4.5 4.5 0 0 1 3.2 5.5zM258.5 246a1.5 1.5 0 0 1 0 2.2 1.5 1.5 0 0 1-2 0 1.5 1.5 0 0 1-.1-2 1.5 1.5 0 0 1 2-.2zm837.4 503a1.5 1.5 0 0 1 0 2.1 1.5 1.5 0 0 1-2 .1 1.5 1.5 0 0 1-.2-2 1.5 1.5 0 0 1 2.2-.2zm-593-370.7a1.5 1.5 0 0 1-.5 2 1.5 1.5 0 0 1-2-.4 1.5 1.5 0 0 1 .4-2 1.5 1.5 0 0 1 2 .4zM1249 429a1.5 1.5 0 0 1-.5 2.1 1.5 1.5 0 0 1-2-.4 1.5 1.5 0 0 1 .4-2.1 1.5 1.5 0 0 1 2 .4zm67.5 38a1.5 1.5 0 0 1-.4 2 1.5 1.5 0 0 1-2-.4 1.5 1.5 0 0 1 .3-2 1.5 1.5 0 0 1 2.1.4zM245.7 155.5a1.5 1.5 0 0 1-1.5 1.5 1.5 1.5 0 0 1-1.5-1.5 1.5 1.5 0 0 1 1.5-1.5 1.5 1.5 0 0 1 1.5 1.5zm837.4 502.9a1.5 1.5 0 0 1-1.5 1.5 1.5 1.5 0 0 1-1.5-1.5 1.5 1.5 0 0 1 1.5-1.5 1.5 1.5 0 0 1 1.5 1.5zm-569.2-371a1.5 1.5 0 0 1-1.8 1 1.5 1.5 0 0 1-1-1.8 1.5 1.5 0 0 1 1.8-1 1.5 1.5 0 0 1 1 1.8zM433.7 86.5a1.5 1.5 0 0 1-1.5 1.5 1.5 1.5 0 0 1-1.5-1.5 1.5 1.5 0 0 1 1.5-1.5 1.5 1.5 0 0 1 1.5 1.5zm837.4 502.9a1.5 1.5 0 0 1-1.5 1.5 1.5 1.5 0 0 1-1.5-1.5 1.5 1.5 0 0 1 1.5-1.5 1.5 1.5 0 0 1 1.5 1.5zm-557.7-320a1.5 1.5 0 0 1-1.9 1 1.5 1.5 0 0 1-1-1.7 1.5 1.5 0 0 1 1.8-1.1 1.5 1.5 0 0 1 1 1.8zM181.7 507.8a1.5 1.5 0 0 1-.5 2.1 1.5 1.5 0 0 1-2-.4 1.5 1.5 0 0 1 .4-2.1 1.5 1.5 0 0 1 2 .4zm534.1-197.4a1.5 1.5 0 0 1 .1 2.1 1.5 1.5 0 0 1-2 .1 1.5 1.5 0 0 1-.2-2 1.5 1.5 0 0 1 2.1-.2zM928 558.7a1.5 1.5 0 0 1-.4 2 1.5 1.5 0 0 1-2-.4 1.5 1.5 0 0 1 .4-2 1.5 1.5 0 0 1 2 .4zm-137-229a1.5 1.5 0 0 1 0 2 1.5 1.5 0 0 1-2 .1 1.5 1.5 0 0 1-.1-2 1.5 1.5 0 0 1 2-.2zm204.6 267a1.5 1.5 0 0 1-.5 2 1.5 1.5 0 0 1-2-.4 1.5 1.5 0 0 1 .4-2 1.5 1.5 0 0 1 2 .4zM743 592.4a1.5 1.5 0 0 1-1.5 1.5 1.5 1.5 0 0 1-1.5-1.5 1.5 1.5 0 0 1 1.5-1.5 1.5 1.5 0 0 1 1.5 1.5zM202.6 135.7a1.5 1.5 0 0 1-1.8 1 1.5 1.5 0 0 1-1.1-1.8 1.5 1.5 0 0 1 1.8-1 1.5 1.5 0 0 1 1 1.8zM931 523.4a1.5 1.5 0 0 1-1.5 1.5 1.5 1.5 0 0 1-1.5-1.5 1.5 1.5 0 0 1 1.5-1.5 1.5 1.5 0 0 1 1.5 1.5zM402 117.7a1.5 1.5 0 0 1-1.9 1 1.5 1.5 0 0 1-1-1.8 1.5 1.5 0 0 1 1.8-1 1.5 1.5 0 0 1 1 1.8zM238.6-1.5a4.5 4.5 0 0 1-4.5 4.5 4.5 4.5 0 0 1-4.5-4.5 4.5 4.5 0 0 1 4.5-4.5 4.5 4.5 0 0 1 4.5 4.5zM1076 501.4a4.5 4.5 0 0 1-4.5 4.5 4.5 4.5 0 0 1-4.5-4.5 4.5 4.5 0 0 1 4.5-4.5 4.5 4.5 0 0 1 4.5 4.5zM547.8 134a4.5 4.5 0 0 1-5.5 3.1 4.5 4.5 0 0 1-3.2-5.5 4.5 4.5 0 0 1 5.5-3.1 4.5 4.5 0 0 1 3.2 5.5z" style="fill:#5da9ef" transform="rotate(-15 379.2 520.5)"/>
    </g>
    <symbol id="back" viewBox="0 0 18 17">
        <path d="M.5 8.4 8.6.4V5.6C11.7 5.6 17.9 7.8 17.9 16.5 17.9 11.8 11.7 10.8 8.6 11V16.5L.5 8.4Z" style="fill: var(--icon-fill, #fafafa);"/>
    </symbol>
    <symbol viewBox="0 0 24 24" id="hamburger">
        <path d="M1.5 2.3C5.3 2.3 8.7 2.3 11.7 2.3 14.7 2.3 16.6 2.3 18.1 2.3 19.3 2.3 20 2.3 20.4 2.3 20.8 2.3 21.5 2.3 21.9 2.6 22.3 3 22.7 3.4 23.1 3.8 23.4 4.2 23.4 4.9 23.4 5.7 23.4 6.4 23.4 7.6 23.4 9.1 23.4 10.2 23.4 11.7 23.4 14 23.4 16.3 23.4 19.3 23.1 20.8 23.1 21.9 22.3 21.9 18.9 18.5 15.1 15.5 8.7 8.7 1.9 2.3" style="fill: none;stroke: var(--h-stroke, currentcolor);stroke-width: 4;transition: var(--h-transition);stroke-dasharray: var(--c, 20, 55);stroke-dashoffset: var(--so, 0);" />
        <path d="M1.9 11.7C7.9 11.7 14 11.7 21 11.7" style="fill: none;stroke: var(--h-stroke, currentColor);stroke-width: 4;transition: var(--h-transition);stroke-dasharray: var(--m, 0); "/>
        <path d="M1.5 21.5C4.9 21.5 7.9 21.5 10.6 21.5 13.2 21.5 15.1 21.5 16.6 21.5 18.1 21.5 19.3 21.5 20 21.5 20.8 21.5 21.5 21.5 21.9 21.2 22.3 20.8 23.1 20 23.1 18.9 23.4 17.8 23.4 16.6 23.4 15.5 23.4 14.4 23.4 12.9 23.4 11.3 23.4 9.8 23.4 8.7 23.4 7.6 23.4 6.8 23.4 6.4 23.4 5.7 23.4 5.3 23.4 4.5 23.4 3.8 23.4 3 23.4 2.3 23.1 1.9 23.1 1.9 22.3 1.9 18.9 5.3 15.5 8.3 8.7 15.1 1.9 21.9" style="fill: none;stroke: var(--h-stroke, currentcolor);stroke-width: 4;transition: var(--h-transition);stroke-dasharray: var(--c, 20, 55);stroke-dashoffset: var(--so, 0);"/>
    </symbol>
    <symbol id="england-flag" viewBox="0 0 35.7 31.8">
        <path d="M0 0h35.7v31.8H0Z" style="fill:#fff;fill-rule:evenodd;stroke-width:.311043;stroke-linecap:round"/>
        <path d="M15.2 0v12.6H0v6.6h15.2v12.6H22V19.1h13.8v-6.6H22V0h-6.7z" style="fill:#fc3745;fill-rule:evenodd;stroke-width:.133852;stroke-linecap:round"/>
    </symbol>
    <symbol id="france-flag" viewBox="0 0 35.7 31.8">
        <path d="M0 0h12v31.8H0Z" style="fill:#1207b7;fill-rule:evenodd;stroke-width:.179581;stroke-linecap:round"/>
        <path d="M12 0h11.8v31.8H12Z" style="fill:#fff;fill-rule:evenodd;stroke-width:.179581;stroke-linecap:round"/>
        <path d="M23.8 0h12v31.8h-12Z" style="fill:#fc3745;fill-rule:evenodd;stroke-width:.179581;stroke-linecap:round"/>
    </symbol>
</svg>
